<ttFont>
    <TTGlyph name="A" xMin="35" yMin="0" xMax="785" yMax="732">
      <contour>
        <pt x="35" y="27" on="1"/>
        <pt x="111" y="27" on="1"/>
        <pt x="186" y="204" on="0"/>
        <pt x="335" y="554" on="0"/>
        <pt x="410" y="732" on="1"/>
        <pt x="485" y="554" on="0"/>
        <pt x="634" y="204" on="0"/>
        <pt x="709" y="27" on="1"/>
        <pt x="785" y="27" on="1"/>
        <pt x="785" y="0" on="1"/>
        <pt x="601" y="0" on="1"/>
        <pt x="601" y="27" on="1"/>
        <pt x="680" y="27" on="1"/>
        <pt x="650" y="97" on="0"/>
        <pt x="591" y="237" on="0"/>
        <pt x="561" y="308" on="1"/>
        <pt x="259" y="308" on="1"/>
        <pt x="229" y="237" on="0"/>
        <pt x="170" y="97" on="0"/>
        <pt x="140" y="27" on="1"/>
        <pt x="219" y="27" on="1"/>
        <pt x="219" y="0" on="1"/>
        <pt x="35" y="0" on="1"/>
      </contour>
      <contour>
        <pt x="419" y="643" on="1"/>
        <pt x="410" y="670" on="1"/>
        <pt x="409" y="668" on="0"/>
        <pt x="407" y="660" on="0"/>
        <pt x="405" y="655" on="1"/>
        <pt x="401" y="643" on="1"/>
        <pt x="374" y="573" on="0"/>
        <pt x="304" y="413" on="0"/>
        <pt x="271" y="335" on="1"/>
        <pt x="549" y="335" on="1"/>
      </contour>
    </TTGlyph>
    <TTGlyph name="AE" xMin="35" yMin="0" xMax="740" yMax="700">
      <contour>
        <pt x="699" y="546" on="1"/>
        <pt x="699" y="673" on="1"/>
        <pt x="428" y="673" on="1"/>
        <pt x="428" y="366" on="1"/>
        <pt x="687" y="366" on="1"/>
        <pt x="687" y="339" on="1"/>
        <pt x="428" y="339" on="1"/>
        <pt x="428" y="27" on="1"/>
        <pt x="713" y="27" on="1"/>
        <pt x="713" y="154" on="1"/>
        <pt x="740" y="154" on="1"/>
        <pt x="740" y="0" on="1"/>
        <pt x="400" y="0" on="1"/>
        <pt x="400" y="306" on="1"/>
        <pt x="259" y="306" on="1"/>
        <pt x="230" y="235" on="0"/>
        <pt x="171" y="96" on="0"/>
        <pt x="141" y="27" on="1"/>
        <pt x="219" y="27" on="1"/>
        <pt x="219" y="0" on="1"/>
        <pt x="35" y="0" on="1"/>
        <pt x="35" y="27" on="1"/>
        <pt x="113" y="27" on="1"/>
        <pt x="185" y="196" on="0"/>
        <pt x="325" y="530" on="0"/>
        <pt x="397" y="700" on="1"/>
        <pt x="726" y="700" on="1"/>
        <pt x="726" y="546" on="1"/>
      </contour>
      <contour>
        <pt x="400" y="333" on="1"/>
        <pt x="400" y="642" on="1"/>
        <pt x="371" y="563" on="0"/>
        <pt x="303" y="411" on="0"/>
        <pt x="271" y="333" on="1"/>
      </contour>
    </TTGlyph>
    <TTGlyph name="Aacute" xMin="35" yMin="0" xMax="785" yMax="883">
      <component glyphName="acute" x="300" y="271" flags="0x4"/>
      <component glyphName="A" x="0" y="0" flags="0x4"/>
    </TTGlyph>
    <TTGlyph name="Acircumflex" xMin="35" yMin="0" xMax="785" yMax="931">
      <component glyphName="asciicircum" x="178" y="271" flags="0x4"/>
      <component glyphName="A" x="0" y="0" flags="0x4"/>
    </TTGlyph>
    <TTGlyph name="Adieresis" xMin="35" yMin="0" xMax="785" yMax="821">
      <component glyphName="dieresis" x="226" y="290" flags="0x4"/>
      <component glyphName="A" x="0" y="0" flags="0x4"/>
    </TTGlyph>
    <TTGlyph name="Agrave" xMin="35" yMin="0" xMax="785" yMax="883">
      <component glyphName="A" x="0" y="0" flags="0x204"/>
      <component glyphName="grave" x="321" y="271" flags="0x4"/>
    </TTGlyph>
    <TTGlyph name="Aring" xMin="35" yMin="0" xMax="785" yMax="902">
      <contour>
        <pt x="35" y="27" on="1"/>
        <pt x="111" y="27" on="1"/>
        <pt x="186" y="204" on="0"/>
        <pt x="335" y="554" on="0"/>
        <pt x="410" y="732" on="1"/>
        <pt x="485" y="554" on="0"/>
        <pt x="634" y="204" on="0"/>
        <pt x="709" y="27" on="1"/>
        <pt x="785" y="27" on="1"/>
        <pt x="785" y="0" on="1"/>
        <pt x="601" y="0" on="1"/>
        <pt x="601" y="27" on="1"/>
        <pt x="680" y="27" on="1"/>
        <pt x="650" y="97" on="0"/>
        <pt x="591" y="237" on="0"/>
        <pt x="561" y="308" on="1"/>
        <pt x="259" y="308" on="1"/>
        <pt x="229" y="237" on="0"/>
        <pt x="170" y="97" on="0"/>
        <pt x="140" y="27" on="1"/>
        <pt x="219" y="27" on="1"/>
        <pt x="219" y="0" on="1"/>
        <pt x="35" y="0" on="1"/>
      </contour>
      <contour>
        <pt x="419" y="643" on="1"/>
        <pt x="410" y="670" on="1"/>
        <pt x="409" y="668" on="0"/>
        <pt x="407" y="660" on="0"/>
        <pt x="405" y="655" on="1"/>
        <pt x="401" y="643" on="1"/>
        <pt x="374" y="573" on="0"/>
        <pt x="304" y="413" on="0"/>
        <pt x="271" y="335" on="1"/>
        <pt x="549" y="335" on="1"/>
      </contour>
      <contour>
        <pt x="365" y="834" on="1"/>
        <pt x="365" y="816" on="0"/>
        <pt x="392" y="789" on="0"/>
        <pt x="411" y="789" on="1"/>
        <pt x="429" y="789" on="0"/>
        <pt x="456" y="816" on="0"/>
        <pt x="456" y="834" on="1"/>
        <pt x="456" y="853" on="0"/>
        <pt x="429" y="880" on="0"/>
        <pt x="411" y="880" on="1"/>
        <pt x="392" y="880" on="0"/>
        <pt x="365" y="853" on="0"/>
      </contour>
      <contour>
        <pt x="343" y="835" on="1"/>
        <pt x="343" y="864" on="0"/>
        <pt x="382" y="902" on="0"/>
        <pt x="411" y="902" on="1"/>
        <pt x="440" y="902" on="0"/>
        <pt x="478" y="864" on="0"/>
        <pt x="478" y="835" on="1"/>
        <pt x="478" y="806" on="0"/>
        <pt x="440" y="767" on="0"/>
        <pt x="411" y="767" on="1"/>
        <pt x="382" y="767" on="0"/>
        <pt x="343" y="806" on="0"/>
      </contour>
    </TTGlyph>
    <TTGlyph name="Atilde" xMin="35" yMin="0" xMax="785" yMax="834">
      <component glyphName="asciitilde" x="135" y="291" flags="0x4"/>
      <component glyphName="A" x="0" y="0" flags="0x4"/>
    </TTGlyph>
    <TTGlyph name="B" xMin="35" yMin="0" xMax="486" yMax="700">
      <contour>
        <pt x="35" y="27" on="1"/>
        <pt x="101" y="27" on="1"/>
        <pt x="101" y="673" on="1"/>
        <pt x="35" y="673" on="1"/>
        <pt x="35" y="700" on="1"/>
        <pt x="253" y="700" on="1"/>
        <pt x="299" y="700" on="0"/>
        <pt x="375" y="680" on="0"/>
        <pt x="430" y="638" on="0"/>
        <pt x="460" y="571" on="0"/>
        <pt x="460" y="525" on="1"/>
        <pt x="460" y="463" on="0"/>
        <pt x="398" y="369" on="0"/>
        <pt x="334" y="352" on="1"/>
        <pt x="364" y="346" on="0"/>
        <pt x="419" y="318" on="0"/>
        <pt x="461" y="274" on="0"/>
        <pt x="486" y="216" on="0"/>
        <pt x="486" y="180" on="1"/>
        <pt x="486" y="135" on="0"/>
        <pt x="450" y="68" on="0"/>
        <pt x="390" y="23" on="0"/>
        <pt x="313" y="0" on="0"/>
        <pt x="271" y="0" on="1"/>
        <pt x="35" y="0" on="1"/>
      </contour>
      <contour>
        <pt x="129" y="338" on="1"/>
        <pt x="129" y="27" on="1"/>
        <pt x="269" y="27" on="1"/>
        <pt x="308" y="27" on="0"/>
        <pt x="376" y="46" on="0"/>
        <pt x="428" y="84" on="0"/>
        <pt x="458" y="142" on="0"/>
        <pt x="458" y="180" on="1"/>
        <pt x="458" y="221" on="0"/>
        <pt x="423" y="281" on="0"/>
        <pt x="365" y="320" on="0"/>
        <pt x="291" y="338" on="0"/>
        <pt x="251" y="338" on="1"/>
      </contour>
      <contour>
        <pt x="129" y="673" on="1"/>
        <pt x="129" y="365" on="1"/>
        <pt x="268" y="365" on="1"/>
        <pt x="305" y="365" on="0"/>
        <pt x="366" y="388" on="0"/>
        <pt x="409" y="430" on="0"/>
        <pt x="432" y="489" on="0"/>
        <pt x="432" y="525" on="1"/>
        <pt x="432" y="565" on="0"/>
        <pt x="407" y="621" on="0"/>
        <pt x="363" y="657" on="0"/>
        <pt x="301" y="673" on="0"/>
        <pt x="264" y="673" on="1"/>
      </contour>
    </TTGlyph>
    <TTGlyph name="C" xMin="35" yMin="-8" xMax="575" yMax="708">
      <contour>
        <pt x="548" y="546" on="1"/>
        <pt x="548" y="641" on="1"/>
        <pt x="477" y="681" on="0"/>
        <pt x="392" y="681" on="1"/>
        <pt x="324" y="681" on="0"/>
        <pt x="204" y="628" on="0"/>
        <pt x="115" y="538" on="0"/>
        <pt x="63" y="417" on="0"/>
        <pt x="63" y="348" on="1"/>
        <pt x="63" y="280" on="0"/>
        <pt x="115" y="160" on="0"/>
        <pt x="203" y="71" on="0"/>
        <pt x="322" y="19" on="0"/>
        <pt x="390" y="19" on="1"/>
        <pt x="436" y="19" on="0"/>
        <pt x="520" y="43" on="0"/>
        <pt x="558" y="65" on="1"/>
        <pt x="574" y="42" on="1"/>
        <pt x="534" y="19" on="0"/>
        <pt x="443" y="-8" on="0"/>
        <pt x="392" y="-8" on="1"/>
        <pt x="318" y="-8" on="0"/>
        <pt x="188" y="48" on="0"/>
        <pt x="91" y="145" on="0"/>
        <pt x="35" y="275" on="0"/>
        <pt x="35" y="349" on="1"/>
        <pt x="35" y="423" on="0"/>
        <pt x="91" y="554" on="0"/>
        <pt x="188" y="651" on="0"/>
        <pt x="318" y="708" on="0"/>
        <pt x="392" y="708" on="1"/>
        <pt x="443" y="708" on="0"/>
        <pt x="534" y="682" on="0"/>
        <pt x="575" y="658" on="1"/>
        <pt x="575" y="546" on="1"/>
      </contour>
    </TTGlyph>
    <TTGlyph name="Ccedilla" xMin="35" yMin="-228" xMax="575" yMax="708">
      <contour>
        <pt x="548" y="474" on="1"/>
        <pt x="548" y="641" on="1"/>
        <pt x="477" y="681" on="0"/>
        <pt x="392" y="681" on="1"/>
        <pt x="324" y="681" on="0"/>
        <pt x="204" y="628" on="0"/>
        <pt x="115" y="538" on="0"/>
        <pt x="63" y="417" on="0"/>
        <pt x="63" y="348" on="1"/>
        <pt x="63" y="280" on="0"/>
        <pt x="115" y="160" on="0"/>
        <pt x="203" y="71" on="0"/>
        <pt x="322" y="19" on="0"/>
        <pt x="390" y="19" on="1"/>
        <pt x="436" y="19" on="0"/>
        <pt x="520" y="43" on="0"/>
        <pt x="558" y="65" on="1"/>
        <pt x="574" y="42" on="1"/>
        <pt x="535" y="19" on="0"/>
        <pt x="445" y="-7" on="0"/>
        <pt x="395" y="-8" on="1"/>
        <pt x="395" y="-17" on="0"/>
        <pt x="397" y="-21" on="1"/>
        <pt x="402" y="-39" on="0"/>
        <pt x="425" y="-54" on="0"/>
        <pt x="436" y="-61" on="1"/>
        <pt x="459" y="-76" on="0"/>
        <pt x="477" y="-114" on="0"/>
        <pt x="477" y="-130" on="1"/>
        <pt x="477" y="-180" on="0"/>
        <pt x="426" y="-228" on="0"/>
        <pt x="389" y="-228" on="1"/>
        <pt x="361" y="-228" on="0"/>
        <pt x="314" y="-198" on="0"/>
        <pt x="303" y="-167" on="1"/>
        <pt x="325" y="-159" on="1"/>
        <pt x="330" y="-179" on="0"/>
        <pt x="364" y="-205" on="0"/>
        <pt x="388" y="-205" on="1"/>
        <pt x="417" y="-205" on="0"/>
        <pt x="454" y="-165" on="0"/>
        <pt x="454" y="-136" on="1"/>
        <pt x="454" y="-110" on="0"/>
        <pt x="429" y="-81" on="0"/>
        <pt x="398" y="-60" on="0"/>
        <pt x="373" y="-39" on="0"/>
        <pt x="373" y="-20" on="1"/>
        <pt x="373" y="-7" on="1"/>
        <pt x="302" y="-4" on="0"/>
        <pt x="179" y="55" on="0"/>
        <pt x="88" y="151" on="0"/>
        <pt x="35" y="277" on="0"/>
        <pt x="35" y="349" on="1"/>
        <pt x="35" y="423" on="0"/>
        <pt x="91" y="554" on="0"/>
        <pt x="188" y="651" on="0"/>
        <pt x="318" y="708" on="0"/>
        <pt x="392" y="708" on="1"/>
        <pt x="443" y="708" on="0"/>
        <pt x="534" y="682" on="0"/>
        <pt x="575" y="658" on="1"/>
        <pt x="575" y="474" on="1"/>
      </contour>
    </TTGlyph>
    <TTGlyph name="D" xMin="35" yMin="0" xMax="597" yMax="700">
      <contour>
        <pt x="35" y="27" on="1"/>
        <pt x="103" y="27" on="1"/>
        <pt x="103" y="673" on="1"/>
        <pt x="35" y="673" on="1"/>
        <pt x="35" y="700" on="1"/>
        <pt x="245" y="700" on="1"/>
        <pt x="317" y="700" on="0"/>
        <pt x="445" y="651" on="0"/>
        <pt x="541" y="560" on="0"/>
        <pt x="597" y="430" on="0"/>
        <pt x="597" y="350" on="1"/>
        <pt x="597" y="291" on="0"/>
        <pt x="556" y="167" on="0"/>
        <pt x="464" y="65" on="0"/>
        <pt x="317" y="0" on="0"/>
        <pt x="211" y="0" on="1"/>
        <pt x="35" y="0" on="1"/>
      </contour>
      <contour>
        <pt x="131" y="673" on="1"/>
        <pt x="131" y="27" on="1"/>
        <pt x="223" y="27" on="1"/>
        <pt x="314" y="27" on="0"/>
        <pt x="445" y="85" on="0"/>
        <pt x="530" y="177" on="0"/>
        <pt x="570" y="292" on="0"/>
        <pt x="570" y="350" on="1"/>
        <pt x="570" y="424" on="0"/>
        <pt x="519" y="544" on="0"/>
        <pt x="431" y="628" on="0"/>
        <pt x="314" y="673" on="0"/>
        <pt x="248" y="673" on="1"/>
      </contour>
    </TTGlyph>
    <TTGlyph name="E" xMin="35" yMin="0" xMax="536" yMax="700">
      <contour>
        <pt x="35" y="27" on="1"/>
        <pt x="112" y="27" on="1"/>
        <pt x="112" y="673" on="1"/>
        <pt x="35" y="673" on="1"/>
        <pt x="35" y="700" on="1"/>
        <pt x="522" y="700" on="1"/>
        <pt x="522" y="546" on="1"/>
        <pt x="495" y="546" on="1"/>
        <pt x="495" y="673" on="1"/>
        <pt x="140" y="673" on="1"/>
        <pt x="140" y="366" on="1"/>
        <pt x="483" y="366" on="1"/>
        <pt x="483" y="339" on="1"/>
        <pt x="140" y="339" on="1"/>
        <pt x="140" y="27" on="1"/>
        <pt x="509" y="27" on="1"/>
        <pt x="509" y="154" on="1"/>
        <pt x="536" y="154" on="1"/>
        <pt x="536" y="0" on="1"/>
        <pt x="35" y="0" on="1"/>
      </contour>
    </TTGlyph>
    <TTGlyph name="Eacute" xMin="35" yMin="0" xMax="536" yMax="883">
      <component glyphName="E" x="0" y="0" flags="0x204"/>
      <component glyphName="acute" x="174" y="271" flags="0x4"/>
    </TTGlyph>
    <TTGlyph name="Ecircumflex" xMin="35" yMin="0" xMax="536" yMax="931">
      <component glyphName="E" x="0" y="0" flags="0x204"/>
      <component glyphName="asciicircum" x="68" y="271" flags="0x4"/>
    </TTGlyph>
    <TTGlyph name="Edieresis" xMin="35" yMin="0" xMax="536" yMax="821">
      <component glyphName="E" x="0" y="0" flags="0x204"/>
      <component glyphName="dieresis" x="111" y="290" flags="0x4"/>
    </TTGlyph>
    <TTGlyph name="Egrave" xMin="35" yMin="0" xMax="536" yMax="883">
      <component glyphName="E" x="0" y="0" flags="0x204"/>
      <component glyphName="grave" x="210" y="271" flags="0x4"/>
    </TTGlyph>
    <TTGlyph name="Eth" xMin="35" yMin="0" xMax="597" yMax="700">
      <contour>
        <pt x="44" y="366" on="1"/>
        <pt x="103" y="366" on="1"/>
        <pt x="103" y="673" on="1"/>
        <pt x="35" y="673" on="1"/>
        <pt x="35" y="700" on="1"/>
        <pt x="245" y="700" on="1"/>
        <pt x="317" y="700" on="0"/>
        <pt x="445" y="651" on="0"/>
        <pt x="541" y="560" on="0"/>
        <pt x="597" y="430" on="0"/>
        <pt x="597" y="350" on="1"/>
        <pt x="597" y="291" on="0"/>
        <pt x="556" y="167" on="0"/>
        <pt x="464" y="65" on="0"/>
        <pt x="317" y="0" on="0"/>
        <pt x="211" y="0" on="1"/>
        <pt x="35" y="0" on="1"/>
        <pt x="35" y="27" on="1"/>
        <pt x="103" y="27" on="1"/>
        <pt x="103" y="339" on="1"/>
        <pt x="44" y="339" on="1"/>
      </contour>
      <contour>
        <pt x="131" y="673" on="1"/>
        <pt x="131" y="366" on="1"/>
        <pt x="346" y="366" on="1"/>
        <pt x="346" y="339" on="1"/>
        <pt x="131" y="339" on="1"/>
        <pt x="131" y="28" on="1"/>
        <pt x="223" y="28" on="1"/>
        <pt x="314" y="28" on="0"/>
        <pt x="445" y="85" on="0"/>
        <pt x="530" y="177" on="0"/>
        <pt x="570" y="292" on="0"/>
        <pt x="570" y="350" on="1"/>
        <pt x="570" y="424" on="0"/>
        <pt x="519" y="544" on="0"/>
        <pt x="431" y="628" on="0"/>
        <pt x="314" y="673" on="0"/>
        <pt x="248" y="673" on="1"/>
      </contour>
    </TTGlyph>
    <TTGlyph name="F" xMin="35" yMin="0" xMax="522" yMax="700">
      <contour>
        <pt x="35" y="27" on="1"/>
        <pt x="112" y="27" on="1"/>
        <pt x="112" y="673" on="1"/>
        <pt x="35" y="673" on="1"/>
        <pt x="35" y="700" on="1"/>
        <pt x="522" y="700" on="1"/>
        <pt x="522" y="546" on="1"/>
        <pt x="495" y="546" on="1"/>
        <pt x="495" y="673" on="1"/>
        <pt x="140" y="673" on="1"/>
        <pt x="140" y="366" on="1"/>
        <pt x="483" y="366" on="1"/>
        <pt x="483" y="339" on="1"/>
        <pt x="140" y="339" on="1"/>
        <pt x="140" y="27" on="1"/>
        <pt x="223" y="27" on="1"/>
        <pt x="223" y="0" on="1"/>
        <pt x="35" y="0" on="1"/>
      </contour>
    </TTGlyph>
    <TTGlyph name="G" xMin="35" yMin="-10" xMax="575" yMax="706">
      <contour>
        <pt x="574" y="298" on="1"/>
        <pt x="574" y="40" on="1"/>
        <pt x="534" y="17" on="0"/>
        <pt x="443" y="-10" on="0"/>
        <pt x="392" y="-10" on="1"/>
        <pt x="318" y="-10" on="0"/>
        <pt x="188" y="46" on="0"/>
        <pt x="91" y="143" on="0"/>
        <pt x="35" y="273" on="0"/>
        <pt x="35" y="347" on="1"/>
        <pt x="35" y="421" on="0"/>
        <pt x="91" y="552" on="0"/>
        <pt x="188" y="649" on="0"/>
        <pt x="318" y="706" on="0"/>
        <pt x="392" y="706" on="1"/>
        <pt x="443" y="706" on="0"/>
        <pt x="534" y="680" on="0"/>
        <pt x="575" y="656" on="1"/>
        <pt x="559" y="633" on="1"/>
        <pt x="484" y="679" on="0"/>
        <pt x="392" y="679" on="1"/>
        <pt x="324" y="679" on="0"/>
        <pt x="204" y="626" on="0"/>
        <pt x="115" y="536" on="0"/>
        <pt x="63" y="415" on="0"/>
        <pt x="63" y="346" on="1"/>
        <pt x="63" y="278" on="0"/>
        <pt x="115" y="158" on="0"/>
        <pt x="203" y="69" on="0"/>
        <pt x="322" y="17" on="0"/>
        <pt x="390" y="17" on="1"/>
        <pt x="474" y="17" on="0"/>
        <pt x="546" y="57" on="1"/>
        <pt x="546" y="271" on="1"/>
        <pt x="388" y="271" on="1"/>
        <pt x="388" y="298" on="1"/>
      </contour>
    </TTGlyph>
    <TTGlyph name="H" xMin="35" yMin="0" xMax="692" yMax="700">
      <contour>
        <pt x="505" y="700" on="1"/>
        <pt x="692" y="700" on="1"/>
        <pt x="692" y="673" on="1"/>
        <pt x="615" y="673" on="1"/>
        <pt x="615" y="27" on="1"/>
        <pt x="692" y="27" on="1"/>
        <pt x="692" y="0" on="1"/>
        <pt x="505" y="0" on="1"/>
        <pt x="505" y="27" on="1"/>
        <pt x="587" y="27" on="1"/>
        <pt x="587" y="339" on="1"/>
        <pt x="140" y="339" on="1"/>
        <pt x="140" y="27" on="1"/>
        <pt x="223" y="27" on="1"/>
        <pt x="223" y="0" on="1"/>
        <pt x="35" y="0" on="1"/>
        <pt x="35" y="27" on="1"/>
        <pt x="112" y="27" on="1"/>
        <pt x="112" y="673" on="1"/>
        <pt x="35" y="673" on="1"/>
        <pt x="35" y="700" on="1"/>
        <pt x="223" y="700" on="1"/>
        <pt x="223" y="673" on="1"/>
        <pt x="140" y="673" on="1"/>
        <pt x="140" y="366" on="1"/>
        <pt x="587" y="366" on="1"/>
        <pt x="587" y="673" on="1"/>
        <pt x="505" y="673" on="1"/>
      </contour>
    </TTGlyph>
    <TTGlyph name="I" xMin="35" yMin="0" xMax="223" yMax="700">
      <contour>
        <pt x="35" y="27" on="1"/>
        <pt x="112" y="27" on="1"/>
        <pt x="112" y="673" on="1"/>
        <pt x="35" y="673" on="1"/>
        <pt x="35" y="700" on="1"/>
        <pt x="223" y="700" on="1"/>
        <pt x="223" y="673" on="1"/>
        <pt x="140" y="673" on="1"/>
        <pt x="140" y="27" on="1"/>
        <pt x="223" y="27" on="1"/>
        <pt x="223" y="0" on="1"/>
        <pt x="35" y="0" on="1"/>
      </contour>
    </TTGlyph>
    <TTGlyph name="Iacute" xMin="35" yMin="0" xMax="242" yMax="883">
      <component glyphName="I" x="0" y="0" flags="0x204"/>
      <component glyphName="acute" x="22" y="271" flags="0x4"/>
    </TTGlyph>
    <TTGlyph name="Icircumflex" xMin="8" yMin="0" xMax="248" yMax="931">
      <component glyphName="I" x="0" y="0" flags="0x204"/>
      <component glyphName="asciicircum" x="-104" y="271" flags="0x4"/>
    </TTGlyph>
    <TTGlyph name="Idieresis" xMin="19" yMin="0" xMax="237" yMax="821">
      <component glyphName="I" x="0" y="0" flags="0x4"/>
      <component glyphName="dieresis" x="-56" y="290" flags="0x4"/>
    </TTGlyph>
    <TTGlyph name="Igrave" xMin="12" yMin="0" xMax="223" yMax="883">
      <component glyphName="I" x="0" y="0" flags="0x204"/>
      <component glyphName="grave" x="33" y="271" flags="0x4"/>
    </TTGlyph>
    <TTGlyph name="J" xMin="35" yMin="-142" xMax="231" yMax="700">
      <contour>
        <pt x="35" y="700" on="1"/>
        <pt x="231" y="700" on="1"/>
        <pt x="231" y="90" on="1"/>
        <pt x="231" y="34" on="0"/>
        <pt x="200" y="-51" on="0"/>
        <pt x="147" y="-109" on="0"/>
        <pt x="75" y="-141" on="0"/>
        <pt x="35" y="-142" on="1"/>
        <pt x="35" y="-115" on="1"/>
        <pt x="71" y="-113" on="0"/>
        <pt x="133" y="-84" on="0"/>
        <pt x="178" y="-31" on="0"/>
        <pt x="203" y="45" on="0"/>
        <pt x="203" y="93" on="1"/>
        <pt x="203" y="673" on="1"/>
        <pt x="35" y="673" on="1"/>
      </contour>
    </TTGlyph>
    <TTGlyph name="K" xMin="35" yMin="0" xMax="651" yMax="700">
      <contour>
        <pt x="467" y="27" on="1"/>
        <pt x="531" y="27" on="1"/>
        <pt x="456" y="121" on="0"/>
        <pt x="309" y="309" on="0"/>
        <pt x="235" y="404" on="1"/>
        <pt x="139" y="314" on="1"/>
        <pt x="139" y="242" on="0"/>
        <pt x="140" y="99" on="0"/>
        <pt x="140" y="27" on="1"/>
        <pt x="223" y="27" on="1"/>
        <pt x="223" y="0" on="1"/>
        <pt x="35" y="0" on="1"/>
        <pt x="35" y="27" on="1"/>
        <pt x="112" y="27" on="1"/>
        <pt x="112" y="673" on="1"/>
        <pt x="35" y="673" on="1"/>
        <pt x="35" y="700" on="1"/>
        <pt x="219" y="700" on="1"/>
        <pt x="219" y="673" on="1"/>
        <pt x="140" y="673" on="1"/>
        <pt x="140" y="373" on="1"/>
        <pt x="140" y="365" on="0"/>
        <pt x="139" y="352" on="0"/>
        <pt x="138" y="344" on="1"/>
        <pt x="156" y="364" on="1"/>
        <pt x="479" y="673" on="1"/>
        <pt x="421" y="673" on="1"/>
        <pt x="421" y="700" on="1"/>
        <pt x="604" y="700" on="1"/>
        <pt x="604" y="673" on="1"/>
        <pt x="517" y="673" on="1"/>
        <pt x="254" y="422" on="1"/>
        <pt x="333" y="322" on="0"/>
        <pt x="488" y="126" on="0"/>
        <pt x="566" y="27" on="1"/>
        <pt x="651" y="27" on="1"/>
        <pt x="651" y="0" on="1"/>
        <pt x="467" y="0" on="1"/>
      </contour>
    </TTGlyph>
    <TTGlyph name="L" xMin="35" yMin="0" xMax="532" yMax="700">
      <contour>
        <pt x="35" y="27" on="1"/>
        <pt x="108" y="27" on="1"/>
        <pt x="108" y="673" on="1"/>
        <pt x="35" y="673" on="1"/>
        <pt x="35" y="700" on="1"/>
        <pt x="219" y="700" on="1"/>
        <pt x="219" y="673" on="1"/>
        <pt x="136" y="673" on="1"/>
        <pt x="136" y="27" on="1"/>
        <pt x="505" y="27" on="1"/>
        <pt x="505" y="154" on="1"/>
        <pt x="532" y="154" on="1"/>
        <pt x="532" y="0" on="1"/>
        <pt x="35" y="0" on="1"/>
      </contour>
    </TTGlyph>
    <TTGlyph name="M" xMin="35" yMin="0" xMax="929" yMax="700">
      <contour>
        <pt x="823" y="700" on="1"/>
        <pt x="925" y="700" on="1"/>
        <pt x="925" y="673" on="1"/>
        <pt x="846" y="673" on="1"/>
        <pt x="846" y="27" on="1"/>
        <pt x="929" y="27" on="1"/>
        <pt x="929" y="0" on="1"/>
        <pt x="741" y="0" on="1"/>
        <pt x="741" y="27" on="1"/>
        <pt x="818" y="27" on="1"/>
        <pt x="818" y="610" on="1"/>
        <pt x="818" y="611" on="0"/>
        <pt x="818" y="623" on="0"/>
        <pt x="819" y="638" on="0"/>
        <pt x="820" y="651" on="0"/>
        <pt x="820" y="652" on="1"/>
        <pt x="818" y="650" on="0"/>
        <pt x="811" y="641" on="0"/>
        <pt x="806" y="634" on="1"/>
        <pt x="793" y="616" on="0"/>
        <pt x="748" y="558" on="0"/>
        <pt x="693" y="485" on="0"/>
        <pt x="629" y="402" on="0"/>
        <pt x="566" y="319" on="0"/>
        <pt x="505" y="240" on="0"/>
        <pt x="480" y="207" on="1"/>
        <pt x="422" y="283" on="0"/>
        <pt x="329" y="404" on="0"/>
        <pt x="251" y="506" on="0"/>
        <pt x="184" y="594" on="0"/>
        <pt x="151" y="637" on="1"/>
        <pt x="140" y="652" on="1"/>
        <pt x="141" y="641" on="0"/>
        <pt x="142" y="621" on="0"/>
        <pt x="142" y="610" on="1"/>
        <pt x="142" y="27" on="1"/>
        <pt x="223" y="27" on="1"/>
        <pt x="223" y="0" on="1"/>
        <pt x="35" y="0" on="1"/>
        <pt x="35" y="27" on="1"/>
        <pt x="114" y="27" on="1"/>
        <pt x="114" y="673" on="1"/>
        <pt x="35" y="673" on="1"/>
        <pt x="35" y="700" on="1"/>
        <pt x="137" y="700" on="1"/>
        <pt x="143" y="693" on="0"/>
        <pt x="182" y="641" on="0"/>
        <pt x="239" y="567" on="0"/>
        <pt x="309" y="476" on="0"/>
        <pt x="382" y="381" on="0"/>
        <pt x="451" y="291" on="0"/>
        <pt x="480" y="254" on="1"/>
        <pt x="566" y="365" on="0"/>
        <pt x="737" y="589" on="0"/>
      </contour>
    </TTGlyph>
    <TTGlyph name="N" xMin="35" yMin="-32" xMax="808" yMax="700">
      <contour>
        <pt x="35" y="27" on="1"/>
        <pt x="114" y="27" on="1"/>
        <pt x="114" y="673" on="1"/>
        <pt x="35" y="673" on="1"/>
        <pt x="35" y="700" on="1"/>
        <pt x="141" y="700" on="1"/>
        <pt x="681" y="58" on="1"/>
        <pt x="700" y="32" on="1"/>
        <pt x="697" y="64" on="1"/>
        <pt x="697" y="673" on="1"/>
        <pt x="620" y="673" on="1"/>
        <pt x="620" y="700" on="1"/>
        <pt x="808" y="700" on="1"/>
        <pt x="808" y="673" on="1"/>
        <pt x="725" y="673" on="1"/>
        <pt x="725" y="-32" on="1"/>
        <pt x="158" y="638" on="1"/>
        <pt x="140" y="660" on="1"/>
        <pt x="142" y="632" on="1"/>
        <pt x="142" y="27" on="1"/>
        <pt x="223" y="27" on="1"/>
        <pt x="223" y="0" on="1"/>
        <pt x="35" y="0" on="1"/>
      </contour>
    </TTGlyph>
    <TTGlyph name="Ntilde" xMin="35" yMin="-32" xMax="808" yMax="836">
      <component glyphName="N" x="0" y="0" flags="0x4"/>
      <component glyphName="asciitilde" x="134" y="293" flags="0x4"/>
    </TTGlyph>
    <TTGlyph name="O" xMin="35" yMin="-8" xMax="751" yMax="708">
      <contour>
        <pt x="35" y="349" on="1"/>
        <pt x="35" y="423" on="0"/>
        <pt x="91" y="554" on="0"/>
        <pt x="188" y="651" on="0"/>
        <pt x="318" y="708" on="0"/>
        <pt x="392" y="708" on="1"/>
        <pt x="466" y="708" on="0"/>
        <pt x="597" y="651" on="0"/>
        <pt x="694" y="554" on="0"/>
        <pt x="751" y="423" on="0"/>
        <pt x="751" y="349" on="1"/>
        <pt x="751" y="275" on="0"/>
        <pt x="694" y="145" on="0"/>
        <pt x="597" y="48" on="0"/>
        <pt x="466" y="-8" on="0"/>
        <pt x="392" y="-8" on="1"/>
        <pt x="318" y="-8" on="0"/>
        <pt x="188" y="48" on="0"/>
        <pt x="91" y="145" on="0"/>
        <pt x="35" y="275" on="0"/>
      </contour>
      <contour>
        <pt x="63" y="348" on="1"/>
        <pt x="63" y="280" on="0"/>
        <pt x="115" y="160" on="0"/>
        <pt x="203" y="71" on="0"/>
        <pt x="322" y="19" on="0"/>
        <pt x="390" y="19" on="1"/>
        <pt x="458" y="19" on="0"/>
        <pt x="579" y="71" on="0"/>
        <pt x="670" y="161" on="0"/>
        <pt x="723" y="281" on="0"/>
        <pt x="723" y="349" on="1"/>
        <pt x="723" y="417" on="0"/>
        <pt x="671" y="538" on="0"/>
        <pt x="581" y="628" on="0"/>
        <pt x="460" y="681" on="0"/>
        <pt x="392" y="681" on="1"/>
        <pt x="324" y="681" on="0"/>
        <pt x="204" y="628" on="0"/>
        <pt x="115" y="538" on="0"/>
        <pt x="63" y="417" on="0"/>
      </contour>
    </TTGlyph>
    <TTGlyph name="Oacute" xMin="35" yMin="-8" xMax="751" yMax="883">
      <component glyphName="O" x="0" y="0" flags="0x204"/>
      <component glyphName="acute" x="302" y="271" flags="0x4"/>
    </TTGlyph>
    <TTGlyph name="Ocircumflex" xMin="35" yMin="-8" xMax="751" yMax="931">
      <component glyphName="O" x="0" y="0" flags="0x204"/>
      <component glyphName="asciicircum" x="165" y="271" flags="0x4"/>
    </TTGlyph>
    <TTGlyph name="Odieresis" xMin="35" yMin="-8" xMax="751" yMax="821">
      <component glyphName="O" x="0" y="0" flags="0x204"/>
      <component glyphName="dieresis" x="213" y="290" flags="0x4"/>
    </TTGlyph>
    <TTGlyph name="Ograve" xMin="35" yMin="-8" xMax="751" yMax="883">
      <component glyphName="O" x="0" y="0" flags="0x204"/>
      <component glyphName="grave" x="300" y="271" flags="0x4"/>
    </TTGlyph>
    <TTGlyph name="Oslash" xMin="35" yMin="-10" xMax="751" yMax="710">
      <contour>
        <pt x="63" y="348" on="1"/>
        <pt x="63" y="276" on="0"/>
        <pt x="117" y="154" on="0"/>
        <pt x="165" y="109" on="1"/>
        <pt x="272" y="237" on="0"/>
        <pt x="483" y="486" on="0"/>
        <pt x="589" y="614" on="1"/>
        <pt x="547" y="646" on="0"/>
        <pt x="447" y="681" on="0"/>
        <pt x="392" y="681" on="1"/>
        <pt x="324" y="681" on="0"/>
        <pt x="204" y="628" on="0"/>
        <pt x="115" y="538" on="0"/>
        <pt x="63" y="417" on="0"/>
      </contour>
      <contour>
        <pt x="390" y="19" on="1"/>
        <pt x="458" y="19" on="0"/>
        <pt x="579" y="71" on="0"/>
        <pt x="670" y="161" on="0"/>
        <pt x="723" y="281" on="0"/>
        <pt x="723" y="349" on="1"/>
        <pt x="723" y="424" on="0"/>
        <pt x="661" y="552" on="0"/>
        <pt x="608" y="598" on="1"/>
        <pt x="502" y="471" on="0"/>
        <pt x="290" y="220" on="0"/>
        <pt x="184" y="93" on="1"/>
        <pt x="227" y="58" on="0"/>
        <pt x="330" y="19" on="0"/>
      </contour>
      <contour>
        <pt x="35" y="349" on="1"/>
        <pt x="35" y="423" on="0"/>
        <pt x="91" y="554" on="0"/>
        <pt x="188" y="651" on="0"/>
        <pt x="318" y="708" on="0"/>
        <pt x="392" y="708" on="1"/>
        <pt x="453" y="708" on="0"/>
        <pt x="563" y="670" on="0"/>
        <pt x="608" y="635" on="1"/>
        <pt x="624" y="654" on="0"/>
        <pt x="654" y="691" on="0"/>
        <pt x="670" y="710" on="1"/>
        <pt x="675" y="705" on="0"/>
        <pt x="684" y="698" on="0"/>
        <pt x="689" y="694" on="1"/>
        <pt x="673" y="675" on="0"/>
        <pt x="643" y="639" on="0"/>
        <pt x="627" y="620" on="1"/>
        <pt x="684" y="570" on="0"/>
        <pt x="751" y="430" on="0"/>
        <pt x="751" y="349" on="1"/>
        <pt x="751" y="275" on="0"/>
        <pt x="694" y="145" on="0"/>
        <pt x="597" y="48" on="0"/>
        <pt x="466" y="-8" on="0"/>
        <pt x="392" y="-8" on="1"/>
        <pt x="328" y="-8" on="0"/>
        <pt x="213" y="34" on="0"/>
        <pt x="167" y="72" on="1"/>
        <pt x="150" y="52" on="0"/>
        <pt x="115" y="10" on="0"/>
        <pt x="98" y="-10" on="1"/>
        <pt x="93" y="-5" on="0"/>
        <pt x="84" y="2" on="0"/>
        <pt x="79" y="7" on="1"/>
        <pt x="97" y="27" on="0"/>
        <pt x="131" y="69" on="0"/>
        <pt x="148" y="89" on="1"/>
        <pt x="95" y="137" on="0"/>
        <pt x="35" y="271" on="0"/>
      </contour>
    </TTGlyph>
    <TTGlyph name="Otilde" xMin="35" yMin="-8" xMax="751" yMax="870">
      <component glyphName="O" x="0" y="0" flags="0x204"/>
      <component glyphName="asciitilde" x="123" y="327" flags="0x4"/>
    </TTGlyph>
    <TTGlyph name="P" xMin="35" yMin="0" xMax="453" yMax="700">
      <contour>
        <pt x="35" y="27" on="1"/>
        <pt x="101" y="27" on="1"/>
        <pt x="101" y="673" on="1"/>
        <pt x="35" y="673" on="1"/>
        <pt x="35" y="700" on="1"/>
        <pt x="246" y="700" on="1"/>
        <pt x="276" y="700" on="0"/>
        <pt x="348" y="680" on="0"/>
        <pt x="411" y="637" on="0"/>
        <pt x="453" y="568" on="0"/>
        <pt x="453" y="520" on="1"/>
        <pt x="453" y="435" on="0"/>
        <pt x="343" y="335" on="0"/>
        <pt x="240" y="335" on="1"/>
        <pt x="129" y="335" on="1"/>
        <pt x="129" y="27" on="1"/>
        <pt x="223" y="27" on="1"/>
        <pt x="223" y="0" on="1"/>
        <pt x="35" y="0" on="1"/>
      </contour>
      <contour>
        <pt x="129" y="362" on="1"/>
        <pt x="238" y="362" on="1"/>
        <pt x="293" y="362" on="0"/>
        <pt x="365" y="392" on="0"/>
        <pt x="408" y="439" on="0"/>
        <pt x="425" y="494" on="0"/>
        <pt x="425" y="520" on="1"/>
        <pt x="425" y="550" on="0"/>
        <pt x="397" y="606" on="0"/>
        <pt x="347" y="648" on="0"/>
        <pt x="279" y="673" on="0"/>
        <pt x="239" y="673" on="1"/>
        <pt x="129" y="673" on="1"/>
      </contour>
    </TTGlyph>
    <TTGlyph name="Q" xMin="35" yMin="-8" xMax="773" yMax="708">
      <contour>
        <pt x="63" y="348" on="1"/>
        <pt x="63" y="280" on="0"/>
        <pt x="115" y="160" on="0"/>
        <pt x="203" y="71" on="0"/>
        <pt x="322" y="19" on="0"/>
        <pt x="390" y="19" on="1"/>
        <pt x="458" y="19" on="0"/>
        <pt x="579" y="71" on="0"/>
        <pt x="670" y="161" on="0"/>
        <pt x="723" y="281" on="0"/>
        <pt x="723" y="349" on="1"/>
        <pt x="723" y="417" on="0"/>
        <pt x="670" y="538" on="0"/>
        <pt x="580" y="628" on="0"/>
        <pt x="460" y="681" on="0"/>
        <pt x="392" y="681" on="1"/>
        <pt x="324" y="681" on="0"/>
        <pt x="204" y="628" on="0"/>
        <pt x="115" y="538" on="0"/>
        <pt x="63" y="417" on="0"/>
      </contour>
      <contour>
        <pt x="35" y="349" on="1"/>
        <pt x="35" y="423" on="0"/>
        <pt x="91" y="554" on="0"/>
        <pt x="188" y="651" on="0"/>
        <pt x="318" y="708" on="0"/>
        <pt x="392" y="708" on="1"/>
        <pt x="466" y="708" on="0"/>
        <pt x="597" y="651" on="0"/>
        <pt x="694" y="554" on="0"/>
        <pt x="751" y="423" on="0"/>
        <pt x="751" y="349" on="1"/>
        <pt x="751" y="295" on="0"/>
        <pt x="720" y="195" on="0"/>
        <pt x="663" y="112" on="0"/>
        <pt x="585" y="47" on="0"/>
        <pt x="538" y="27" on="1"/>
        <pt x="773" y="27" on="1"/>
        <pt x="773" y="0" on="1"/>
        <pt x="466" y="0" on="1"/>
        <pt x="428" y="-8" on="0"/>
        <pt x="392" y="-8" on="1"/>
        <pt x="318" y="-8" on="0"/>
        <pt x="188" y="48" on="0"/>
        <pt x="91" y="145" on="0"/>
        <pt x="35" y="275" on="0"/>
      </contour>
    </TTGlyph>
    <TTGlyph name="R" xMin="35" yMin="0" xMax="535" yMax="700">
      <contour>
        <pt x="35" y="27" on="1"/>
        <pt x="101" y="27" on="1"/>
        <pt x="101" y="673" on="1"/>
        <pt x="35" y="673" on="1"/>
        <pt x="35" y="700" on="1"/>
        <pt x="246" y="700" on="1"/>
        <pt x="276" y="700" on="0"/>
        <pt x="348" y="680" on="0"/>
        <pt x="411" y="637" on="0"/>
        <pt x="453" y="568" on="0"/>
        <pt x="453" y="520" on="1"/>
        <pt x="453" y="449" on="0"/>
        <pt x="376" y="355" on="0"/>
        <pt x="302" y="340" on="1"/>
        <pt x="449" y="27" on="1"/>
        <pt x="535" y="27" on="1"/>
        <pt x="535" y="0" on="1"/>
        <pt x="433" y="0" on="1"/>
        <pt x="273" y="338" on="1"/>
        <pt x="250" y="335" on="0"/>
        <pt x="227" y="335" on="1"/>
        <pt x="129" y="335" on="1"/>
        <pt x="129" y="27" on="1"/>
        <pt x="223" y="27" on="1"/>
        <pt x="223" y="0" on="1"/>
        <pt x="35" y="0" on="1"/>
      </contour>
      <contour>
        <pt x="129" y="362" on="1"/>
        <pt x="238" y="362" on="1"/>
        <pt x="293" y="362" on="0"/>
        <pt x="365" y="392" on="0"/>
        <pt x="408" y="439" on="0"/>
        <pt x="425" y="494" on="0"/>
        <pt x="425" y="520" on="1"/>
        <pt x="425" y="550" on="0"/>
        <pt x="397" y="606" on="0"/>
        <pt x="347" y="648" on="0"/>
        <pt x="279" y="673" on="0"/>
        <pt x="239" y="673" on="1"/>
        <pt x="129" y="673" on="1"/>
      </contour>
    </TTGlyph>
    <TTGlyph name="S" xMin="41" yMin="-8" xMax="453" yMax="704">
      <contour>
        <pt x="41" y="70" on="1"/>
        <pt x="41" y="173" on="1"/>
        <pt x="68" y="173" on="1"/>
        <pt x="68" y="83" on="1"/>
        <pt x="96" y="56" on="0"/>
        <pt x="179" y="19" on="0"/>
        <pt x="237" y="19" on="1"/>
        <pt x="273" y="19" on="0"/>
        <pt x="341" y="42" on="0"/>
        <pt x="393" y="84" on="0"/>
        <pt x="424" y="145" on="0"/>
        <pt x="424" y="183" on="1"/>
        <pt x="424" y="228" on="0"/>
        <pt x="394" y="287" on="0"/>
        <pt x="344" y="324" on="0"/>
        <pt x="281" y="347" on="0"/>
        <pt x="214" y="366" on="0"/>
        <pt x="150" y="387" on="0"/>
        <pt x="98" y="421" on="0"/>
        <pt x="65" y="475" on="0"/>
        <pt x="63" y="517" on="1"/>
        <pt x="61" y="550" on="0"/>
        <pt x="80" y="617" on="0"/>
        <pt x="123" y="671" on="0"/>
        <pt x="191" y="704" on="0"/>
        <pt x="239" y="704" on="1"/>
        <pt x="256" y="704" on="0"/>
        <pt x="295" y="700" on="0"/>
        <pt x="336" y="690" on="0"/>
        <pt x="376" y="672" on="0"/>
        <pt x="394" y="657" on="1"/>
        <pt x="394" y="546" on="1"/>
        <pt x="367" y="546" on="1"/>
        <pt x="367" y="643" on="1"/>
        <pt x="347" y="657" on="0"/>
        <pt x="283" y="677" on="0"/>
        <pt x="238" y="677" on="1"/>
        <pt x="201" y="677" on="0"/>
        <pt x="145" y="652" on="0"/>
        <pt x="108" y="610" on="0"/>
        <pt x="90" y="556" on="0"/>
        <pt x="90" y="527" on="1"/>
        <pt x="90" y="489" on="0"/>
        <pt x="121" y="440" on="0"/>
        <pt x="171" y="409" on="0"/>
        <pt x="235" y="389" on="0"/>
        <pt x="303" y="369" on="0"/>
        <pt x="368" y="343" on="0"/>
        <pt x="419" y="301" on="0"/>
        <pt x="451" y="235" on="0"/>
        <pt x="452" y="186" on="1"/>
        <pt x="453" y="142" on="0"/>
        <pt x="420" y="70" on="0"/>
        <pt x="362" y="19" on="0"/>
        <pt x="284" y="-8" on="0"/>
        <pt x="241" y="-8" on="1"/>
        <pt x="201" y="-8" on="0"/>
        <pt x="136" y="8" on="0"/>
        <pt x="86" y="32" on="0"/>
        <pt x="51" y="59" on="0"/>
      </contour>
    </TTGlyph>
    <TTGlyph name="T" xMin="35" yMin="0" xMax="588" yMax="700">
      <contour>
        <pt x="217" y="27" on="1"/>
        <pt x="297" y="27" on="1"/>
        <pt x="297" y="673" on="1"/>
        <pt x="62" y="673" on="1"/>
        <pt x="62" y="546" on="1"/>
        <pt x="35" y="546" on="1"/>
        <pt x="35" y="700" on="1"/>
        <pt x="588" y="700" on="1"/>
        <pt x="588" y="546" on="1"/>
        <pt x="561" y="546" on="1"/>
        <pt x="561" y="673" on="1"/>
        <pt x="325" y="673" on="1"/>
        <pt x="325" y="27" on="1"/>
        <pt x="405" y="27" on="1"/>
        <pt x="405" y="0" on="1"/>
        <pt x="217" y="0" on="1"/>
      </contour>
    </TTGlyph>
    <TTGlyph name="Thorn" xMin="35" yMin="0" xMax="458" yMax="700">
      <contour>
        <pt x="35" y="27" on="1"/>
        <pt x="106" y="27" on="1"/>
        <pt x="106" y="673" on="1"/>
        <pt x="35" y="673" on="1"/>
        <pt x="35" y="700" on="1"/>
        <pt x="219" y="700" on="1"/>
        <pt x="219" y="673" on="1"/>
        <pt x="134" y="673" on="1"/>
        <pt x="134" y="535" on="1"/>
        <pt x="251" y="535" on="1"/>
        <pt x="281" y="535" on="0"/>
        <pt x="353" y="515" on="0"/>
        <pt x="416" y="472" on="0"/>
        <pt x="458" y="403" on="0"/>
        <pt x="458" y="355" on="1"/>
        <pt x="458" y="270" on="0"/>
        <pt x="348" y="170" on="0"/>
        <pt x="245" y="170" on="1"/>
        <pt x="134" y="170" on="1"/>
        <pt x="134" y="27" on="1"/>
        <pt x="223" y="27" on="1"/>
        <pt x="223" y="0" on="1"/>
        <pt x="35" y="0" on="1"/>
      </contour>
      <contour>
        <pt x="134" y="197" on="1"/>
        <pt x="243" y="197" on="1"/>
        <pt x="298" y="197" on="0"/>
        <pt x="371" y="227" on="0"/>
        <pt x="414" y="274" on="0"/>
        <pt x="431" y="329" on="0"/>
        <pt x="431" y="355" on="1"/>
        <pt x="431" y="385" on="0"/>
        <pt x="402" y="441" on="0"/>
        <pt x="352" y="483" on="0"/>
        <pt x="284" y="508" on="0"/>
        <pt x="244" y="508" on="1"/>
        <pt x="134" y="508" on="1"/>
      </contour>
    </TTGlyph>
    <TTGlyph name="U" xMin="35" yMin="-8" xMax="650" yMax="700">
      <contour>
        <pt x="35" y="700" on="1"/>
        <pt x="223" y="700" on="1"/>
        <pt x="223" y="673" on="1"/>
        <pt x="140" y="673" on="1"/>
        <pt x="140" y="229" on="1"/>
        <pt x="140" y="178" on="0"/>
        <pt x="170" y="100" on="0"/>
        <pt x="224" y="47" on="0"/>
        <pt x="298" y="19" on="0"/>
        <pt x="342" y="19" on="1"/>
        <pt x="386" y="19" on="0"/>
        <pt x="460" y="47" on="0"/>
        <pt x="514" y="100" on="0"/>
        <pt x="545" y="178" on="0"/>
        <pt x="545" y="229" on="1"/>
        <pt x="545" y="673" on="1"/>
        <pt x="462" y="673" on="1"/>
        <pt x="462" y="700" on="1"/>
        <pt x="650" y="700" on="1"/>
        <pt x="650" y="673" on="1"/>
        <pt x="573" y="673" on="1"/>
        <pt x="573" y="226" on="1"/>
        <pt x="573" y="169" on="0"/>
        <pt x="538" y="81" on="0"/>
        <pt x="476" y="22" on="0"/>
        <pt x="391" y="-8" on="0"/>
        <pt x="342" y="-8" on="1"/>
        <pt x="292" y="-8" on="0"/>
        <pt x="208" y="22" on="0"/>
        <pt x="147" y="81" on="0"/>
        <pt x="112" y="169" on="0"/>
        <pt x="112" y="226" on="1"/>
        <pt x="112" y="673" on="1"/>
        <pt x="35" y="673" on="1"/>
      </contour>
    </TTGlyph>
    <TTGlyph name="Uacute" xMin="35" yMin="-8" xMax="650" yMax="883">
      <component glyphName="U" x="0" y="0" flags="0x204"/>
      <component glyphName="acute" x="239" y="271" flags="0x4"/>
    </TTGlyph>
    <TTGlyph name="Ucircumflex" xMin="35" yMin="-8" xMax="650" yMax="931">
      <component glyphName="U" x="0" y="0" flags="0x204"/>
      <component glyphName="asciicircum" x="113" y="271" flags="0x4"/>
    </TTGlyph>
    <TTGlyph name="Udieresis" xMin="35" yMin="-8" xMax="650" yMax="822">
      <component glyphName="U" x="0" y="0" flags="0x204"/>
      <component glyphName="dieresis" x="157" y="291" flags="0x4"/>
    </TTGlyph>
    <TTGlyph name="Ugrave" xMin="35" yMin="-8" xMax="650" yMax="883">
      <component glyphName="U" x="0" y="0" flags="0x204"/>
      <component glyphName="grave" x="254" y="271" flags="0x4"/>
    </TTGlyph>
    <TTGlyph name="V" xMin="35" yMin="-32" xMax="802" yMax="700">
      <contour>
        <pt x="35" y="700" on="1"/>
        <pt x="223" y="700" on="1"/>
        <pt x="223" y="673" on="1"/>
        <pt x="147" y="673" on="1"/>
        <pt x="213" y="518" on="0"/>
        <pt x="343" y="212" on="0"/>
        <pt x="408" y="57" on="1"/>
        <pt x="417" y="30" on="1"/>
        <pt x="426" y="57" on="1"/>
        <pt x="492" y="212" on="0"/>
        <pt x="622" y="518" on="0"/>
        <pt x="687" y="673" on="1"/>
        <pt x="615" y="673" on="1"/>
        <pt x="615" y="700" on="1"/>
        <pt x="802" y="700" on="1"/>
        <pt x="802" y="673" on="1"/>
        <pt x="716" y="673" on="1"/>
        <pt x="641" y="495" on="0"/>
        <pt x="492" y="145" on="0"/>
        <pt x="417" y="-32" on="1"/>
        <pt x="342" y="145" on="0"/>
        <pt x="193" y="495" on="0"/>
        <pt x="118" y="673" on="1"/>
        <pt x="35" y="673" on="1"/>
      </contour>
    </TTGlyph>
    <TTGlyph name="W" xMin="35" yMin="-32" xMax="1177" yMax="700">
      <contour>
        <pt x="35" y="700" on="1"/>
        <pt x="223" y="700" on="1"/>
        <pt x="223" y="673" on="1"/>
        <pt x="147" y="673" on="1"/>
        <pt x="212" y="518" on="0"/>
        <pt x="341" y="211" on="0"/>
        <pt x="408" y="57" on="1"/>
        <pt x="417" y="30" on="1"/>
        <pt x="454" y="135" on="0"/>
        <pt x="546" y="338" on="0"/>
        <pt x="589" y="441" on="1"/>
        <pt x="565" y="499" on="0"/>
        <pt x="516" y="614" on="0"/>
        <pt x="491" y="673" on="1"/>
        <pt x="409" y="673" on="1"/>
        <pt x="409" y="700" on="1"/>
        <pt x="597" y="700" on="1"/>
        <pt x="597" y="673" on="1"/>
        <pt x="520" y="673" on="1"/>
        <pt x="585" y="518" on="0"/>
        <pt x="713" y="211" on="0"/>
        <pt x="781" y="57" on="1"/>
        <pt x="790" y="30" on="1"/>
        <pt x="799" y="57" on="1"/>
        <pt x="864" y="212" on="0"/>
        <pt x="994" y="518" on="0"/>
        <pt x="1059" y="673" on="1"/>
        <pt x="989" y="673" on="1"/>
        <pt x="989" y="700" on="1"/>
        <pt x="1177" y="700" on="1"/>
        <pt x="1177" y="673" on="1"/>
        <pt x="1088" y="673" on="1"/>
        <pt x="1013" y="495" on="0"/>
        <pt x="865" y="145" on="0"/>
        <pt x="790" y="-32" on="1"/>
        <pt x="613" y="385" on="1"/>
        <pt x="603" y="410" on="1"/>
        <pt x="560" y="299" on="0"/>
        <pt x="464" y="78" on="0"/>
        <pt x="417" y="-32" on="1"/>
        <pt x="342" y="145" on="0"/>
        <pt x="193" y="495" on="0"/>
        <pt x="118" y="673" on="1"/>
        <pt x="35" y="673" on="1"/>
      </contour>
    </TTGlyph>
    <TTGlyph name="X" xMin="35" yMin="0" xMax="672" yMax="700">
      <contour>
        <pt x="35" y="700" on="1"/>
        <pt x="223" y="700" on="1"/>
        <pt x="223" y="673" on="1"/>
        <pt x="164" y="673" on="1"/>
        <pt x="210" y="603" on="0"/>
        <pt x="301" y="464" on="0"/>
        <pt x="346" y="395" on="1"/>
        <pt x="355" y="379" on="1"/>
        <pt x="364" y="395" on="1"/>
        <pt x="542" y="673" on="1"/>
        <pt x="484" y="673" on="1"/>
        <pt x="484" y="700" on="1"/>
        <pt x="672" y="700" on="1"/>
        <pt x="672" y="673" on="1"/>
        <pt x="575" y="673" on="1"/>
        <pt x="524" y="592" on="0"/>
        <pt x="423" y="435" on="0"/>
        <pt x="372" y="355" on="1"/>
        <pt x="426" y="272" on="0"/>
        <pt x="532" y="109" on="0"/>
        <pt x="586" y="27" on="1"/>
        <pt x="672" y="27" on="1"/>
        <pt x="672" y="0" on="1"/>
        <pt x="484" y="0" on="1"/>
        <pt x="484" y="27" on="1"/>
        <pt x="551" y="27" on="1"/>
        <pt x="389" y="275" on="1"/>
        <pt x="379" y="289" on="0"/>
        <pt x="362" y="322" on="0"/>
        <pt x="351" y="336" on="1"/>
        <pt x="342" y="320" on="1"/>
        <pt x="295" y="245" on="0"/>
        <pt x="201" y="100" on="0"/>
        <pt x="154" y="27" on="1"/>
        <pt x="223" y="27" on="1"/>
        <pt x="223" y="0" on="1"/>
        <pt x="35" y="0" on="1"/>
        <pt x="35" y="27" on="1"/>
        <pt x="121" y="27" on="1"/>
        <pt x="334" y="359" on="1"/>
        <pt x="131" y="673" on="1"/>
        <pt x="35" y="673" on="1"/>
      </contour>
    </TTGlyph>
    <TTGlyph name="Y" xMin="35" yMin="0" xMax="697" yMax="700">
      <contour>
        <pt x="274" y="27" on="1"/>
        <pt x="350" y="27" on="1"/>
        <pt x="350" y="264" on="1"/>
        <pt x="288" y="367" on="0"/>
        <pt x="167" y="570" on="0"/>
        <pt x="105" y="673" on="1"/>
        <pt x="35" y="673" on="1"/>
        <pt x="35" y="700" on="1"/>
        <pt x="223" y="700" on="1"/>
        <pt x="223" y="673" on="1"/>
        <pt x="139" y="673" on="1"/>
        <pt x="193" y="582" on="0"/>
        <pt x="301" y="405" on="0"/>
        <pt x="354" y="314" on="1"/>
        <pt x="366" y="287" on="1"/>
        <pt x="367" y="287" on="1"/>
        <pt x="378" y="314" on="1"/>
        <pt x="592" y="673" on="1"/>
        <pt x="510" y="673" on="1"/>
        <pt x="510" y="700" on="1"/>
        <pt x="697" y="700" on="1"/>
        <pt x="697" y="673" on="1"/>
        <pt x="626" y="673" on="1"/>
        <pt x="565" y="570" on="0"/>
        <pt x="443" y="366" on="0"/>
        <pt x="382" y="263" on="1"/>
        <pt x="382" y="27" on="1"/>
        <pt x="461" y="27" on="1"/>
        <pt x="461" y="0" on="1"/>
        <pt x="274" y="0" on="1"/>
      </contour>
    </TTGlyph>
    <TTGlyph name="Yacute" xMin="35" yMin="0" xMax="697" yMax="883">
      <component glyphName="Y" x="0" y="0" flags="0x204"/>
      <component glyphName="acute" x="272" y="271" flags="0x4"/>
    </TTGlyph>
    <TTGlyph name="Z" xMin="35" yMin="0" xMax="594" yMax="735">
      <contour>
        <pt x="594" y="188" on="1"/>
        <pt x="594" y="0" on="1"/>
        <pt x="35" y="0" on="1"/>
        <pt x="35" y="27" on="1"/>
        <pt x="529" y="673" on="1"/>
        <pt x="52" y="673" on="1"/>
        <pt x="52" y="735" on="1"/>
        <pt x="81" y="735" on="1"/>
        <pt x="81" y="700" on="1"/>
        <pt x="565" y="700" on="1"/>
        <pt x="565" y="673" on="1"/>
        <pt x="71" y="27" on="1"/>
        <pt x="567" y="27" on="1"/>
        <pt x="567" y="188" on="1"/>
      </contour>
    </TTGlyph>
    <TTGlyph name="a" xMin="35" yMin="-7" xMax="500" yMax="383">
      <contour>
        <pt x="35" y="188" on="1"/>
        <pt x="35" y="228" on="0"/>
        <pt x="65" y="299" on="0"/>
        <pt x="118" y="352" on="0"/>
        <pt x="189" y="383" on="0"/>
        <pt x="230" y="383" on="1"/>
        <pt x="260" y="383" on="0"/>
        <pt x="314" y="366" on="0"/>
        <pt x="359" y="336" on="0"/>
        <pt x="392" y="296" on="0"/>
        <pt x="401" y="274" on="1"/>
        <pt x="401" y="299" on="0"/>
        <pt x="403" y="349" on="0"/>
        <pt x="405" y="375" on="1"/>
        <pt x="426" y="375" on="1"/>
        <pt x="426" y="27" on="1"/>
        <pt x="500" y="27" on="1"/>
        <pt x="500" y="0" on="1"/>
        <pt x="401" y="0" on="1"/>
        <pt x="401" y="47" on="1"/>
        <pt x="401" y="102" on="1"/>
        <pt x="392" y="80" on="0"/>
        <pt x="360" y="40" on="0"/>
        <pt x="315" y="10" on="0"/>
        <pt x="261" y="-7" on="0"/>
        <pt x="230" y="-7" on="1"/>
        <pt x="189" y="-7" on="0"/>
        <pt x="118" y="24" on="0"/>
        <pt x="65" y="76" on="0"/>
        <pt x="35" y="147" on="0"/>
      </contour>
      <contour>
        <pt x="63" y="188" on="1"/>
        <pt x="63" y="153" on="0"/>
        <pt x="89" y="92" on="0"/>
        <pt x="134" y="47" on="0"/>
        <pt x="195" y="21" on="0"/>
        <pt x="230" y="21" on="1"/>
        <pt x="265" y="21" on="0"/>
        <pt x="327" y="47" on="0"/>
        <pt x="373" y="92" on="0"/>
        <pt x="399" y="153" on="0"/>
        <pt x="399" y="188" on="1"/>
        <pt x="399" y="223" on="0"/>
        <pt x="373" y="284" on="0"/>
        <pt x="327" y="330" on="0"/>
        <pt x="265" y="356" on="0"/>
        <pt x="230" y="356" on="1"/>
        <pt x="195" y="356" on="0"/>
        <pt x="134" y="330" on="0"/>
        <pt x="89" y="284" on="0"/>
        <pt x="63" y="223" on="0"/>
      </contour>
    </TTGlyph>
    <TTGlyph name="aacute" xMin="35" yMin="-7" xMax="500" yMax="612">
      <component glyphName="a" x="0" y="0" flags="0x204"/>
      <component glyphName="acute" x="132" y="0" flags="0x4"/>
    </TTGlyph>
    <TTGlyph name="acircumflex" xMin="35" yMin="-7" xMax="500" yMax="660">
      <component glyphName="a" x="0" y="0" flags="0x204"/>
      <component glyphName="asciicircum" x="29" y="0" flags="0x4"/>
    </TTGlyph>
    <TTGlyph name="acute" xMin="100" yMin="479" xMax="220" yMax="612">
      <contour>
        <pt x="100" y="479" on="1"/>
        <pt x="123" y="512" on="0"/>
        <pt x="167" y="579" on="0"/>
        <pt x="190" y="612" on="1"/>
        <pt x="220" y="612" on="1"/>
        <pt x="196" y="579" on="0"/>
        <pt x="148" y="512" on="0"/>
        <pt x="125" y="479" on="1"/>
      </contour>
    </TTGlyph>
    <TTGlyph name="adieresis" xMin="35" yMin="-7" xMax="500" yMax="531">
      <component glyphName="a" x="0" y="0" flags="0x204"/>
      <component glyphName="dieresis" x="57" y="0" flags="0x4"/>
    </TTGlyph>
    <TTGlyph name="ae" xMin="35" yMin="-10" xMax="552" yMax="381">
      <contour>
        <pt x="347" y="241" on="1"/>
        <pt x="347" y="197" on="1"/>
        <pt x="389" y="214" on="0"/>
        <pt x="474" y="247" on="0"/>
        <pt x="516" y="264" on="1"/>
        <pt x="497" y="304" on="0"/>
        <pt x="426" y="354" on="0"/>
        <pt x="381" y="354" on="1"/>
        <pt x="349" y="354" on="0"/>
        <pt x="318" y="341" on="1"/>
        <pt x="335" y="327" on="0"/>
        <pt x="347" y="277" on="0"/>
      </contour>
      <contour>
        <pt x="319" y="168" on="1"/>
        <pt x="233" y="168" on="1"/>
        <pt x="217" y="168" on="0"/>
        <pt x="160" y="168" on="0"/>
        <pt x="104" y="157" on="0"/>
        <pt x="63" y="128" on="0"/>
        <pt x="63" y="99" on="1"/>
        <pt x="63" y="73" on="0"/>
        <pt x="88" y="41" on="0"/>
        <pt x="127" y="23" on="0"/>
        <pt x="173" y="17" on="0"/>
        <pt x="194" y="17" on="1"/>
        <pt x="216" y="17" on="0"/>
        <pt x="261" y="25" on="0"/>
        <pt x="297" y="44" on="0"/>
        <pt x="319" y="79" on="0"/>
        <pt x="319" y="106" on="1"/>
      </contour>
      <contour>
        <pt x="83" y="320" on="1"/>
        <pt x="78" y="325" on="0"/>
        <pt x="69" y="336" on="0"/>
        <pt x="64" y="341" on="1"/>
        <pt x="74" y="349" on="0"/>
        <pt x="104" y="364" on="0"/>
        <pt x="139" y="375" on="0"/>
        <pt x="175" y="381" on="0"/>
        <pt x="192" y="381" on="1"/>
        <pt x="228" y="381" on="0"/>
        <pt x="281" y="373" on="0"/>
        <pt x="299" y="363" on="1"/>
        <pt x="335" y="381" on="0"/>
        <pt x="381" y="381" on="1"/>
        <pt x="441" y="381" on="0"/>
        <pt x="532" y="308" on="0"/>
        <pt x="552" y="249" on="1"/>
        <pt x="501" y="229" on="0"/>
        <pt x="398" y="188" on="0"/>
        <pt x="347" y="167" on="1"/>
        <pt x="347" y="128" on="1"/>
        <pt x="347" y="94" on="0"/>
        <pt x="333" y="49" on="0"/>
        <pt x="313" y="32" on="1"/>
        <pt x="329" y="26" on="0"/>
        <pt x="362" y="19" on="0"/>
        <pt x="381" y="19" on="1"/>
        <pt x="415" y="19" on="0"/>
        <pt x="473" y="44" on="0"/>
        <pt x="496" y="65" on="1"/>
        <pt x="500" y="59" on="0"/>
        <pt x="508" y="49" on="0"/>
        <pt x="513" y="44" on="1"/>
        <pt x="487" y="20" on="0"/>
        <pt x="420" y="-8" on="0"/>
        <pt x="381" y="-8" on="1"/>
        <pt x="332" y="-8" on="0"/>
        <pt x="294" y="11" on="1"/>
        <pt x="258" y="-10" on="0"/>
        <pt x="193" y="-10" on="1"/>
        <pt x="157" y="-10" on="0"/>
        <pt x="99" y="0" on="0"/>
        <pt x="58" y="26" on="0"/>
        <pt x="35" y="67" on="0"/>
        <pt x="35" y="99" on="1"/>
        <pt x="35" y="127" on="0"/>
        <pt x="60" y="164" on="0"/>
        <pt x="102" y="187" on="0"/>
        <pt x="156" y="197" on="0"/>
        <pt x="185" y="197" on="1"/>
        <pt x="319" y="197" on="1"/>
        <pt x="319" y="243" on="1"/>
        <pt x="319" y="271" on="0"/>
        <pt x="310" y="312" on="0"/>
        <pt x="283" y="340" on="0"/>
        <pt x="233" y="354" on="0"/>
        <pt x="191" y="354" on="1"/>
        <pt x="177" y="354" on="0"/>
        <pt x="146" y="348" on="0"/>
        <pt x="116" y="339" on="0"/>
        <pt x="91" y="326" on="0"/>
      </contour>
    </TTGlyph>
    <TTGlyph name="agrave" xMin="35" yMin="-7" xMax="500" yMax="612">
      <component glyphName="a" x="0" y="0" flags="0x204"/>
      <component glyphName="grave" x="157" y="0" flags="0x4"/>
    </TTGlyph>
    <TTGlyph name="ampersand" xMin="106" yMin="-19" xMax="601" yMax="750">
      <contour>
        <pt x="469" y="375" on="1"/>
        <pt x="601" y="375" on="1"/>
        <pt x="601" y="348" on="1"/>
        <pt x="497" y="348" on="1"/>
        <pt x="497" y="270" on="1"/>
        <pt x="497" y="249" on="0"/>
        <pt x="498" y="204" on="0"/>
        <pt x="495" y="160" on="0"/>
        <pt x="484" y="116" on="0"/>
        <pt x="473" y="96" on="1"/>
        <pt x="535" y="-4" on="1"/>
        <pt x="513" y="-19" on="1"/>
        <pt x="458" y="70" on="1"/>
        <pt x="431" y="35" on="0"/>
        <pt x="350" y="-7" on="0"/>
        <pt x="301" y="-7" on="1"/>
        <pt x="260" y="-7" on="0"/>
        <pt x="189" y="23" on="0"/>
        <pt x="136" y="76" on="0"/>
        <pt x="106" y="146" on="0"/>
        <pt x="106" y="187" on="1"/>
        <pt x="106" y="223" on="0"/>
        <pt x="131" y="288" on="0"/>
        <pt x="174" y="339" on="0"/>
        <pt x="233" y="373" on="0"/>
        <pt x="268" y="379" on="1"/>
        <pt x="197" y="496" on="1"/>
        <pt x="179" y="526" on="0"/>
        <pt x="164" y="590" on="0"/>
        <pt x="174" y="652" on="0"/>
        <pt x="210" y="706" on="0"/>
        <pt x="243" y="726" on="1"/>
        <pt x="271" y="743" on="0"/>
        <pt x="330" y="750" on="0"/>
        <pt x="386" y="740" on="0"/>
        <pt x="435" y="718" on="0"/>
        <pt x="454" y="706" on="1"/>
        <pt x="443" y="682" on="1"/>
        <pt x="422" y="694" on="0"/>
        <pt x="377" y="715" on="0"/>
        <pt x="331" y="724" on="0"/>
        <pt x="284" y="718" on="0"/>
        <pt x="261" y="704" on="1"/>
        <pt x="232" y="686" on="0"/>
        <pt x="200" y="639" on="0"/>
        <pt x="192" y="586" on="0"/>
        <pt x="205" y="532" on="0"/>
        <pt x="221" y="506" on="1"/>
        <pt x="450" y="133" on="1"/>
        <pt x="469" y="166" on="0"/>
        <pt x="469" y="205" on="1"/>
      </contour>
      <contour>
        <pt x="134" y="187" on="1"/>
        <pt x="134" y="152" on="0"/>
        <pt x="160" y="91" on="0"/>
        <pt x="205" y="46" on="0"/>
        <pt x="266" y="20" on="0"/>
        <pt x="301" y="20" on="1"/>
        <pt x="346" y="20" on="0"/>
        <pt x="420" y="61" on="0"/>
        <pt x="442" y="96" on="1"/>
        <pt x="284" y="353" on="1"/>
        <pt x="252" y="350" on="0"/>
        <pt x="197" y="322" on="0"/>
        <pt x="157" y="278" on="0"/>
        <pt x="134" y="220" on="0"/>
      </contour>
    </TTGlyph>
    <TTGlyph name="aring" xMin="35" yMin="-7" xMax="500" yMax="608">
      <contour>
        <pt x="35" y="188" on="1"/>
        <pt x="35" y="228" on="0"/>
        <pt x="65" y="299" on="0"/>
        <pt x="118" y="352" on="0"/>
        <pt x="189" y="383" on="0"/>
        <pt x="230" y="383" on="1"/>
        <pt x="260" y="383" on="0"/>
        <pt x="314" y="366" on="0"/>
        <pt x="359" y="336" on="0"/>
        <pt x="392" y="296" on="0"/>
        <pt x="401" y="274" on="1"/>
        <pt x="401" y="299" on="0"/>
        <pt x="403" y="349" on="0"/>
        <pt x="405" y="375" on="1"/>
        <pt x="426" y="375" on="1"/>
        <pt x="426" y="27" on="1"/>
        <pt x="500" y="27" on="1"/>
        <pt x="500" y="0" on="1"/>
        <pt x="401" y="0" on="1"/>
        <pt x="401" y="47" on="1"/>
        <pt x="401" y="102" on="1"/>
        <pt x="392" y="80" on="0"/>
        <pt x="360" y="40" on="0"/>
        <pt x="315" y="10" on="0"/>
        <pt x="261" y="-7" on="0"/>
        <pt x="230" y="-7" on="1"/>
        <pt x="189" y="-7" on="0"/>
        <pt x="118" y="24" on="0"/>
        <pt x="65" y="76" on="0"/>
        <pt x="35" y="147" on="0"/>
      </contour>
      <contour>
        <pt x="63" y="188" on="1"/>
        <pt x="63" y="153" on="0"/>
        <pt x="89" y="92" on="0"/>
        <pt x="134" y="47" on="0"/>
        <pt x="195" y="21" on="0"/>
        <pt x="230" y="21" on="1"/>
        <pt x="265" y="21" on="0"/>
        <pt x="327" y="47" on="0"/>
        <pt x="373" y="92" on="0"/>
        <pt x="399" y="153" on="0"/>
        <pt x="399" y="188" on="1"/>
        <pt x="399" y="223" on="0"/>
        <pt x="373" y="284" on="0"/>
        <pt x="327" y="330" on="0"/>
        <pt x="265" y="356" on="0"/>
        <pt x="230" y="356" on="1"/>
        <pt x="195" y="356" on="0"/>
        <pt x="134" y="330" on="0"/>
        <pt x="89" y="284" on="0"/>
        <pt x="63" y="223" on="0"/>
      </contour>
      <contour>
        <pt x="199" y="540" on="1"/>
        <pt x="199" y="521" on="0"/>
        <pt x="227" y="494" on="0"/>
        <pt x="245" y="494" on="1"/>
        <pt x="264" y="494" on="0"/>
        <pt x="291" y="521" on="0"/>
        <pt x="291" y="540" on="1"/>
        <pt x="291" y="558" on="0"/>
        <pt x="264" y="586" on="0"/>
        <pt x="245" y="586" on="1"/>
        <pt x="227" y="586" on="0"/>
        <pt x="199" y="558" on="0"/>
      </contour>
      <contour>
        <pt x="177" y="540" on="1"/>
        <pt x="177" y="569" on="0"/>
        <pt x="216" y="608" on="0"/>
        <pt x="245" y="608" on="1"/>
        <pt x="274" y="608" on="0"/>
        <pt x="313" y="569" on="0"/>
        <pt x="313" y="540" on="1"/>
        <pt x="313" y="511" on="0"/>
        <pt x="274" y="472" on="0"/>
        <pt x="245" y="472" on="1"/>
        <pt x="216" y="472" on="0"/>
        <pt x="177" y="511" on="0"/>
      </contour>
    </TTGlyph>
    <TTGlyph name="asciicircum" xMin="112" yMin="479" xMax="352" yMax="660">
      <contour>
        <pt x="232" y="660" on="1"/>
        <pt x="262" y="615" on="0"/>
        <pt x="322" y="524" on="0"/>
        <pt x="352" y="479" on="1"/>
        <pt x="327" y="479" on="1"/>
        <pt x="303" y="514" on="0"/>
        <pt x="256" y="582" on="0"/>
        <pt x="232" y="617" on="1"/>
        <pt x="208" y="582" on="0"/>
        <pt x="161" y="514" on="0"/>
        <pt x="137" y="479" on="1"/>
        <pt x="112" y="479" on="1"/>
        <pt x="142" y="524" on="0"/>
        <pt x="202" y="615" on="0"/>
      </contour>
    </TTGlyph>
    <TTGlyph name="asciitilde" xMin="130" yMin="457" xMax="421" yMax="543">
      <contour>
        <pt x="266" y="494" on="1"/>
        <pt x="250" y="511" on="0"/>
        <pt x="227" y="523" on="0"/>
        <pt x="213" y="523" on="1"/>
        <pt x="205" y="523" on="0"/>
        <pt x="185" y="519" on="0"/>
        <pt x="165" y="507" on="0"/>
        <pt x="151" y="486" on="0"/>
        <pt x="149" y="470" on="1"/>
        <pt x="144" y="471" on="0"/>
        <pt x="135" y="471" on="0"/>
        <pt x="130" y="472" on="1"/>
        <pt x="131" y="491" on="0"/>
        <pt x="147" y="518" on="0"/>
        <pt x="171" y="535" on="0"/>
        <pt x="200" y="543" on="0"/>
        <pt x="214" y="543" on="1"/>
        <pt x="234" y="543" on="0"/>
        <pt x="268" y="523" on="0"/>
        <pt x="284" y="506" on="1"/>
        <pt x="300" y="489" on="0"/>
        <pt x="324" y="477" on="0"/>
        <pt x="338" y="477" on="1"/>
        <pt x="345" y="477" on="0"/>
        <pt x="366" y="481" on="0"/>
        <pt x="385" y="493" on="0"/>
        <pt x="399" y="514" on="0"/>
        <pt x="401" y="530" on="1"/>
        <pt x="406" y="529" on="0"/>
        <pt x="416" y="529" on="0"/>
        <pt x="421" y="528" on="1"/>
        <pt x="420" y="509" on="0"/>
        <pt x="404" y="482" on="0"/>
        <pt x="380" y="465" on="0"/>
        <pt x="351" y="457" on="0"/>
        <pt x="337" y="457" on="1"/>
        <pt x="317" y="457" on="0"/>
        <pt x="282" y="477" on="0"/>
      </contour>
    </TTGlyph>
    <TTGlyph name="asterisk" xMin="36" yMin="434" xMax="299" yMax="720">
      <contour>
        <pt x="196" y="575" on="1"/>
        <pt x="221" y="561" on="0"/>
        <pt x="272" y="531" on="0"/>
        <pt x="298" y="517" on="1"/>
        <pt x="294" y="510" on="0"/>
        <pt x="286" y="497" on="0"/>
        <pt x="282" y="490" on="1"/>
        <pt x="256" y="505" on="0"/>
        <pt x="207" y="535" on="0"/>
        <pt x="181" y="550" on="1"/>
        <pt x="180" y="521" on="0"/>
        <pt x="180" y="463" on="0"/>
        <pt x="179" y="434" on="1"/>
        <pt x="152" y="434" on="1"/>
        <pt x="152" y="550" on="1"/>
        <pt x="126" y="535" on="0"/>
        <pt x="77" y="506" on="0"/>
        <pt x="52" y="492" on="1"/>
        <pt x="48" y="499" on="0"/>
        <pt x="40" y="512" on="0"/>
        <pt x="36" y="519" on="1"/>
        <pt x="62" y="533" on="0"/>
        <pt x="112" y="562" on="0"/>
        <pt x="137" y="576" on="1"/>
        <pt x="112" y="591" on="0"/>
        <pt x="62" y="621" on="0"/>
        <pt x="36" y="636" on="1"/>
        <pt x="40" y="642" on="0"/>
        <pt x="47" y="654" on="0"/>
        <pt x="50" y="660" on="1"/>
        <pt x="152" y="600" on="1"/>
        <pt x="152" y="720" on="1"/>
        <pt x="183" y="720" on="1"/>
        <pt x="182" y="690" on="0"/>
        <pt x="182" y="630" on="0"/>
        <pt x="181" y="600" on="1"/>
        <pt x="207" y="614" on="0"/>
        <pt x="259" y="644" on="0"/>
        <pt x="285" y="659" on="1"/>
        <pt x="289" y="653" on="0"/>
        <pt x="296" y="641" on="0"/>
        <pt x="299" y="635" on="1"/>
        <pt x="273" y="620" on="0"/>
        <pt x="222" y="590" on="0"/>
      </contour>
    </TTGlyph>
    <TTGlyph name="at" xMin="88" yMin="-212" xMax="890" yMax="590">
      <contour>
        <pt x="322" y="188" on="1"/>
        <pt x="322" y="153" on="0"/>
        <pt x="348" y="92" on="0"/>
        <pt x="393" y="47" on="0"/>
        <pt x="454" y="21" on="0"/>
        <pt x="489" y="21" on="1"/>
        <pt x="524" y="21" on="0"/>
        <pt x="586" y="47" on="0"/>
        <pt x="631" y="92" on="0"/>
        <pt x="657" y="153" on="0"/>
        <pt x="657" y="188" on="1"/>
        <pt x="657" y="223" on="0"/>
        <pt x="631" y="284" on="0"/>
        <pt x="586" y="330" on="0"/>
        <pt x="524" y="356" on="0"/>
        <pt x="489" y="356" on="1"/>
        <pt x="454" y="356" on="0"/>
        <pt x="393" y="330" on="0"/>
        <pt x="348" y="284" on="0"/>
        <pt x="322" y="223" on="0"/>
      </contour>
      <contour>
        <pt x="890" y="188" on="1"/>
        <pt x="888" y="130" on="0"/>
        <pt x="860" y="57" on="0"/>
        <pt x="819" y="15" on="0"/>
        <pt x="768" y="0" on="0"/>
        <pt x="743" y="0" on="1"/>
        <pt x="659" y="0" on="1"/>
        <pt x="659" y="47" on="1"/>
        <pt x="659" y="61" on="0"/>
        <pt x="660" y="88" on="0"/>
        <pt x="660" y="102" on="1"/>
        <pt x="651" y="79" on="0"/>
        <pt x="619" y="40" on="0"/>
        <pt x="574" y="11" on="0"/>
        <pt x="520" y="-7" on="0"/>
        <pt x="489" y="-7" on="1"/>
        <pt x="448" y="-7" on="0"/>
        <pt x="377" y="24" on="0"/>
        <pt x="324" y="76" on="0"/>
        <pt x="294" y="147" on="0"/>
        <pt x="294" y="188" on="1"/>
        <pt x="294" y="228" on="0"/>
        <pt x="324" y="299" on="0"/>
        <pt x="377" y="352" on="0"/>
        <pt x="448" y="383" on="0"/>
        <pt x="489" y="383" on="1"/>
        <pt x="519" y="383" on="0"/>
        <pt x="572" y="366" on="0"/>
        <pt x="617" y="336" on="0"/>
        <pt x="650" y="296" on="0"/>
        <pt x="659" y="274" on="1"/>
        <pt x="659" y="299" on="0"/>
        <pt x="662" y="349" on="0"/>
        <pt x="663" y="375" on="1"/>
        <pt x="685" y="375" on="1"/>
        <pt x="685" y="27" on="1"/>
        <pt x="748" y="27" on="1"/>
        <pt x="799" y="27" on="0"/>
        <pt x="860" y="103" on="0"/>
        <pt x="862" y="188" on="1"/>
        <pt x="862" y="266" on="0"/>
        <pt x="803" y="402" on="0"/>
        <pt x="702" y="504" on="0"/>
        <pt x="566" y="563" on="0"/>
        <pt x="489" y="563" on="1"/>
        <pt x="412" y="563" on="0"/>
        <pt x="276" y="504" on="0"/>
        <pt x="175" y="402" on="0"/>
        <pt x="116" y="266" on="0"/>
        <pt x="116" y="188" on="1"/>
        <pt x="116" y="111" on="0"/>
        <pt x="175" y="-25" on="0"/>
        <pt x="276" y="-126" on="0"/>
        <pt x="412" y="-185" on="0"/>
        <pt x="489" y="-185" on="1"/>
        <pt x="550" y="-185" on="0"/>
        <pt x="660" y="-147" on="0"/>
        <pt x="706" y="-115" on="1"/>
        <pt x="711" y="-121" on="0"/>
        <pt x="718" y="-131" on="0"/>
        <pt x="723" y="-136" on="1"/>
        <pt x="673" y="-172" on="0"/>
        <pt x="555" y="-212" on="0"/>
        <pt x="489" y="-212" on="1"/>
        <pt x="406" y="-212" on="0"/>
        <pt x="260" y="-149" on="0"/>
        <pt x="151" y="-40" on="0"/>
        <pt x="88" y="106" on="0"/>
        <pt x="88" y="189" on="1"/>
        <pt x="88" y="272" on="0"/>
        <pt x="151" y="418" on="0"/>
        <pt x="260" y="527" on="0"/>
        <pt x="406" y="590" on="0"/>
        <pt x="489" y="590" on="1"/>
        <pt x="572" y="590" on="0"/>
        <pt x="718" y="527" on="0"/>
        <pt x="827" y="418" on="0"/>
        <pt x="890" y="272" on="0"/>
      </contour>
    </TTGlyph>
    <TTGlyph name="atilde" xMin="35" yMin="-7" xMax="500" yMax="543">
      <component glyphName="a" x="0" y="0" flags="0x204"/>
      <component glyphName="asciitilde" x="-40" y="0" flags="0x4"/>
    </TTGlyph>
    <TTGlyph name="b" xMin="35" yMin="-7" xMax="500" yMax="750">
      <contour>
        <pt x="35" y="27" on="1"/>
        <pt x="109" y="27" on="1"/>
        <pt x="109" y="723" on="1"/>
        <pt x="37" y="723" on="1"/>
        <pt x="37" y="750" on="1"/>
        <pt x="136" y="750" on="1"/>
        <pt x="136" y="329" on="1"/>
        <pt x="136" y="315" on="0"/>
        <pt x="135" y="288" on="0"/>
        <pt x="134" y="274" on="1"/>
        <pt x="143" y="296" on="0"/>
        <pt x="176" y="336" on="0"/>
        <pt x="220" y="366" on="0"/>
        <pt x="275" y="383" on="0"/>
        <pt x="305" y="383" on="1"/>
        <pt x="346" y="383" on="0"/>
        <pt x="417" y="352" on="0"/>
        <pt x="470" y="300" on="0"/>
        <pt x="500" y="228" on="0"/>
        <pt x="500" y="188" on="1"/>
        <pt x="500" y="147" on="0"/>
        <pt x="470" y="76" on="0"/>
        <pt x="417" y="24" on="0"/>
        <pt x="346" y="-7" on="0"/>
        <pt x="305" y="-7" on="1"/>
        <pt x="274" y="-7" on="0"/>
        <pt x="220" y="10" on="0"/>
        <pt x="175" y="40" on="0"/>
        <pt x="143" y="80" on="0"/>
        <pt x="134" y="102" on="1"/>
        <pt x="134" y="47" on="1"/>
        <pt x="134" y="0" on="1"/>
        <pt x="35" y="0" on="1"/>
      </contour>
      <contour>
        <pt x="472" y="188" on="1"/>
        <pt x="472" y="223" on="0"/>
        <pt x="446" y="284" on="0"/>
        <pt x="401" y="330" on="0"/>
        <pt x="340" y="356" on="0"/>
        <pt x="305" y="356" on="1"/>
        <pt x="270" y="356" on="0"/>
        <pt x="208" y="330" on="0"/>
        <pt x="162" y="284" on="0"/>
        <pt x="136" y="223" on="0"/>
        <pt x="136" y="188" on="1"/>
        <pt x="136" y="153" on="0"/>
        <pt x="162" y="92" on="0"/>
        <pt x="208" y="47" on="0"/>
        <pt x="270" y="21" on="0"/>
        <pt x="305" y="21" on="1"/>
        <pt x="340" y="21" on="0"/>
        <pt x="401" y="47" on="0"/>
        <pt x="446" y="92" on="0"/>
        <pt x="472" y="153" on="0"/>
      </contour>
    </TTGlyph>
    <TTGlyph name="backslash" xMin="14" yMin="-19" xMax="322" yMax="736">
      <contour>
        <pt x="44" y="736" on="1"/>
        <pt x="114" y="546" on="0"/>
        <pt x="252" y="171" on="0"/>
        <pt x="322" y="-19" on="1"/>
        <pt x="292" y="-19" on="1"/>
        <pt x="222" y="171" on="0"/>
        <pt x="84" y="546" on="0"/>
        <pt x="14" y="736" on="1"/>
      </contour>
    </TTGlyph>
    <TTGlyph name="bar" xMin="97" yMin="-232" xMax="125" yMax="700">
      <contour>
        <pt x="97" y="-232" on="1"/>
        <pt x="97" y="700" on="1"/>
        <pt x="125" y="700" on="1"/>
        <pt x="125" y="-232" on="1"/>
      </contour>
    </TTGlyph>
    <TTGlyph name="braceleft" xMin="30" yMin="-148" xMax="244" yMax="746">
      <contour>
        <pt x="30" y="281" on="1"/>
        <pt x="30" y="316" on="1"/>
        <pt x="54" y="317" on="0"/>
        <pt x="85" y="344" on="0"/>
        <pt x="103" y="384" on="0"/>
        <pt x="109" y="431" on="0"/>
        <pt x="109" y="451" on="1"/>
        <pt x="109" y="628" on="1"/>
        <pt x="109" y="674" on="0"/>
        <pt x="125" y="722" on="0"/>
        <pt x="150" y="743" on="0"/>
        <pt x="183" y="746" on="0"/>
        <pt x="201" y="746" on="1"/>
        <pt x="244" y="746" on="1"/>
        <pt x="244" y="719" on="1"/>
        <pt x="189" y="719" on="1"/>
        <pt x="158" y="719" on="0"/>
        <pt x="137" y="670" on="0"/>
        <pt x="137" y="608" on="1"/>
        <pt x="137" y="463" on="1"/>
        <pt x="137" y="419" on="0"/>
        <pt x="126" y="362" on="0"/>
        <pt x="108" y="326" on="0"/>
        <pt x="84" y="306" on="0"/>
        <pt x="71" y="299" on="1"/>
        <pt x="84" y="292" on="0"/>
        <pt x="108" y="271" on="0"/>
        <pt x="126" y="234" on="0"/>
        <pt x="137" y="178" on="0"/>
        <pt x="137" y="135" on="1"/>
        <pt x="137" y="-11" on="1"/>
        <pt x="137" y="-72" on="0"/>
        <pt x="158" y="-121" on="0"/>
        <pt x="189" y="-121" on="1"/>
        <pt x="244" y="-121" on="1"/>
        <pt x="244" y="-148" on="1"/>
        <pt x="201" y="-148" on="1"/>
        <pt x="181" y="-148" on="0"/>
        <pt x="147" y="-145" on="0"/>
        <pt x="123" y="-118" on="0"/>
        <pt x="109" y="-58" on="0"/>
        <pt x="109" y="-1" on="1"/>
        <pt x="109" y="146" on="1"/>
        <pt x="109" y="166" on="0"/>
        <pt x="103" y="213" on="0"/>
        <pt x="85" y="253" on="0"/>
        <pt x="54" y="280" on="0"/>
      </contour>
    </TTGlyph>
    <TTGlyph name="braceright" xMin="76" yMin="-148" xMax="290" yMax="746">
      <contour>
        <pt x="290" y="316" on="1"/>
        <pt x="290" y="281" on="1"/>
        <pt x="260" y="279" on="0"/>
        <pt x="228" y="241" on="0"/>
        <pt x="213" y="189" on="0"/>
        <pt x="211" y="135" on="0"/>
        <pt x="211" y="117" on="1"/>
        <pt x="211" y="-30" on="1"/>
        <pt x="211" y="-76" on="0"/>
        <pt x="195" y="-125" on="0"/>
        <pt x="170" y="-146" on="0"/>
        <pt x="137" y="-148" on="0"/>
        <pt x="119" y="-148" on="1"/>
        <pt x="76" y="-148" on="1"/>
        <pt x="76" y="-121" on="1"/>
        <pt x="131" y="-121" on="1"/>
        <pt x="162" y="-121" on="0"/>
        <pt x="183" y="-72" on="0"/>
        <pt x="183" y="-11" on="1"/>
        <pt x="183" y="165" on="1"/>
        <pt x="183" y="198" on="0"/>
        <pt x="197" y="244" on="0"/>
        <pt x="217" y="275" on="0"/>
        <pt x="240" y="293" on="0"/>
        <pt x="249" y="299" on="1"/>
        <pt x="236" y="306" on="0"/>
        <pt x="212" y="326" on="0"/>
        <pt x="194" y="362" on="0"/>
        <pt x="183" y="419" on="0"/>
        <pt x="183" y="463" on="1"/>
        <pt x="183" y="608" on="1"/>
        <pt x="183" y="670" on="0"/>
        <pt x="162" y="719" on="0"/>
        <pt x="131" y="719" on="1"/>
        <pt x="76" y="719" on="1"/>
        <pt x="76" y="746" on="1"/>
        <pt x="119" y="746" on="1"/>
        <pt x="137" y="746" on="0"/>
        <pt x="170" y="744" on="0"/>
        <pt x="195" y="723" on="0"/>
        <pt x="211" y="674" on="0"/>
        <pt x="211" y="628" on="1"/>
        <pt x="211" y="480" on="1"/>
        <pt x="211" y="462" on="0"/>
        <pt x="213" y="407" on="0"/>
        <pt x="228" y="356" on="0"/>
        <pt x="260" y="317" on="0"/>
      </contour>
    </TTGlyph>
    <TTGlyph name="bracketleft" xMin="83" yMin="-149" xMax="252" yMax="746">
      <contour>
        <pt x="83" y="-149" on="1"/>
        <pt x="83" y="746" on="1"/>
        <pt x="252" y="746" on="1"/>
        <pt x="252" y="719" on="1"/>
        <pt x="112" y="719" on="1"/>
        <pt x="112" y="-122" on="1"/>
        <pt x="252" y="-122" on="1"/>
        <pt x="252" y="-149" on="1"/>
      </contour>
    </TTGlyph>
    <TTGlyph name="bracketright" xMin="82" yMin="-149" xMax="251" yMax="746">
      <contour>
        <pt x="251" y="746" on="1"/>
        <pt x="251" y="-149" on="1"/>
        <pt x="82" y="-149" on="1"/>
        <pt x="82" y="-122" on="1"/>
        <pt x="222" y="-122" on="1"/>
        <pt x="222" y="719" on="1"/>
        <pt x="82" y="719" on="1"/>
        <pt x="82" y="746" on="1"/>
      </contour>
    </TTGlyph>
    <TTGlyph name="brokenbar" xMin="95" yMin="-233" xMax="123" yMax="700">
      <contour>
        <pt x="123" y="-233" on="1"/>
        <pt x="95" y="-233" on="1"/>
        <pt x="95" y="117" on="1"/>
        <pt x="123" y="117" on="1"/>
      </contour>
      <contour>
        <pt x="123" y="350" on="1"/>
        <pt x="95" y="350" on="1"/>
        <pt x="95" y="700" on="1"/>
        <pt x="123" y="700" on="1"/>
      </contour>
    </TTGlyph>
    <TTGlyph name="bullet" xMin="162" yMin="223" xMax="317" yMax="378">
      <contour>
        <pt x="162" y="300" on="1"/>
        <pt x="162" y="333" on="0"/>
        <pt x="207" y="378" on="0"/>
        <pt x="239" y="378" on="1"/>
        <pt x="272" y="378" on="0"/>
        <pt x="317" y="333" on="0"/>
        <pt x="317" y="300" on="1"/>
        <pt x="317" y="268" on="0"/>
        <pt x="272" y="223" on="0"/>
        <pt x="239" y="223" on="1"/>
        <pt x="207" y="223" on="0"/>
        <pt x="162" y="268" on="0"/>
      </contour>
    </TTGlyph>
    <TTGlyph name="c" xMin="35" yMin="-7" xMax="354" yMax="383">
      <contour>
        <pt x="354" y="36" on="1"/>
        <pt x="328" y="16" on="0"/>
        <pt x="265" y="-7" on="0"/>
        <pt x="230" y="-7" on="1"/>
        <pt x="189" y="-7" on="0"/>
        <pt x="118" y="24" on="0"/>
        <pt x="66" y="76" on="0"/>
        <pt x="35" y="147" on="0"/>
        <pt x="35" y="188" on="1"/>
        <pt x="35" y="228" on="0"/>
        <pt x="66" y="300" on="0"/>
        <pt x="118" y="352" on="0"/>
        <pt x="189" y="383" on="0"/>
        <pt x="230" y="383" on="1"/>
        <pt x="266" y="383" on="0"/>
        <pt x="329" y="360" on="0"/>
        <pt x="354" y="340" on="1"/>
        <pt x="354" y="247" on="1"/>
        <pt x="328" y="247" on="1"/>
        <pt x="328" y="324" on="1"/>
        <pt x="307" y="339" on="0"/>
        <pt x="258" y="356" on="0"/>
        <pt x="230" y="356" on="1"/>
        <pt x="195" y="356" on="0"/>
        <pt x="134" y="330" on="0"/>
        <pt x="89" y="284" on="0"/>
        <pt x="63" y="223" on="0"/>
        <pt x="63" y="188" on="1"/>
        <pt x="63" y="153" on="0"/>
        <pt x="89" y="92" on="0"/>
        <pt x="134" y="47" on="0"/>
        <pt x="195" y="21" on="0"/>
        <pt x="230" y="21" on="1"/>
        <pt x="261" y="21" on="0"/>
        <pt x="314" y="40" on="0"/>
        <pt x="336" y="57" on="1"/>
      </contour>
    </TTGlyph>
    <TTGlyph name="ccedilla" xMin="35" yMin="-228" xMax="354" yMax="383">
      <contour>
        <pt x="336" y="57" on="1"/>
        <pt x="354" y="36" on="1"/>
        <pt x="350" y="33" on="0"/>
        <pt x="316" y="16" on="0"/>
        <pt x="276" y="-1" on="0"/>
        <pt x="242" y="-13" on="0"/>
        <pt x="238" y="-10" on="1"/>
        <pt x="239" y="-33" on="0"/>
        <pt x="267" y="-53" on="0"/>
        <pt x="279" y="-61" on="1"/>
        <pt x="302" y="-76" on="0"/>
        <pt x="321" y="-114" on="0"/>
        <pt x="321" y="-130" on="1"/>
        <pt x="321" y="-178" on="0"/>
        <pt x="273" y="-225" on="0"/>
        <pt x="240" y="-227" on="1"/>
        <pt x="223" y="-228" on="0"/>
        <pt x="205" y="-224" on="1"/>
        <pt x="185" y="-218" on="0"/>
        <pt x="155" y="-190" on="0"/>
        <pt x="147" y="-167" on="1"/>
        <pt x="168" y="-159" on="1"/>
        <pt x="174" y="-179" on="0"/>
        <pt x="208" y="-205" on="0"/>
        <pt x="231" y="-205" on="1"/>
        <pt x="260" y="-205" on="0"/>
        <pt x="297" y="-165" on="0"/>
        <pt x="297" y="-136" on="1"/>
        <pt x="297" y="-110" on="0"/>
        <pt x="272" y="-81" on="0"/>
        <pt x="242" y="-60" on="0"/>
        <pt x="217" y="-39" on="0"/>
        <pt x="217" y="-20" on="1"/>
        <pt x="217" y="-5" on="1"/>
        <pt x="179" y="-3" on="0"/>
        <pt x="112" y="29" on="0"/>
        <pt x="63" y="81" on="0"/>
        <pt x="35" y="149" on="0"/>
        <pt x="35" y="188" on="1"/>
        <pt x="35" y="228" on="0"/>
        <pt x="66" y="300" on="0"/>
        <pt x="118" y="352" on="0"/>
        <pt x="189" y="383" on="0"/>
        <pt x="230" y="383" on="1"/>
        <pt x="266" y="383" on="0"/>
        <pt x="329" y="360" on="0"/>
        <pt x="354" y="340" on="1"/>
        <pt x="354" y="247" on="1"/>
        <pt x="328" y="247" on="1"/>
        <pt x="328" y="324" on="1"/>
        <pt x="307" y="339" on="0"/>
        <pt x="258" y="356" on="0"/>
        <pt x="230" y="356" on="1"/>
        <pt x="195" y="356" on="0"/>
        <pt x="134" y="330" on="0"/>
        <pt x="89" y="284" on="0"/>
        <pt x="63" y="223" on="0"/>
        <pt x="63" y="188" on="1"/>
        <pt x="63" y="153" on="0"/>
        <pt x="89" y="92" on="0"/>
        <pt x="134" y="47" on="0"/>
        <pt x="195" y="21" on="0"/>
        <pt x="230" y="21" on="1"/>
        <pt x="261" y="21" on="0"/>
        <pt x="314" y="40" on="0"/>
      </contour>
    </TTGlyph>
    <TTGlyph name="cedilla" xMin="121" yMin="-228" xMax="295" yMax="0">
      <contour>
        <pt x="191" y="0" on="1"/>
        <pt x="213" y="0" on="1"/>
        <pt x="213" y="-6" on="1"/>
        <pt x="213" y="-20" on="0"/>
        <pt x="221" y="-37" on="0"/>
        <pt x="233" y="-49" on="0"/>
        <pt x="248" y="-57" on="0"/>
        <pt x="254" y="-61" on="1"/>
        <pt x="276" y="-76" on="0"/>
        <pt x="295" y="-114" on="0"/>
        <pt x="295" y="-130" on="1"/>
        <pt x="295" y="-180" on="0"/>
        <pt x="244" y="-228" on="0"/>
        <pt x="207" y="-228" on="1"/>
        <pt x="179" y="-228" on="0"/>
        <pt x="132" y="-198" on="0"/>
        <pt x="121" y="-167" on="1"/>
        <pt x="126" y="-165" on="0"/>
        <pt x="137" y="-161" on="0"/>
        <pt x="142" y="-159" on="1"/>
        <pt x="148" y="-179" on="0"/>
        <pt x="182" y="-205" on="0"/>
        <pt x="205" y="-205" on="1"/>
        <pt x="235" y="-205" on="0"/>
        <pt x="271" y="-165" on="0"/>
        <pt x="271" y="-136" on="1"/>
        <pt x="271" y="-110" on="0"/>
        <pt x="246" y="-81" on="0"/>
        <pt x="216" y="-60" on="0"/>
        <pt x="191" y="-39" on="0"/>
        <pt x="191" y="-20" on="1"/>
      </contour>
    </TTGlyph>
    <TTGlyph name="cent" xMin="36" yMin="-68" xMax="355" yMax="438">
      <contour>
        <pt x="337" y="57" on="1"/>
        <pt x="355" y="36" on="1"/>
        <pt x="304" y="-4" on="0"/>
        <pt x="236" y="-6" on="1"/>
        <pt x="236" y="-68" on="1"/>
        <pt x="208" y="-68" on="1"/>
        <pt x="208" y="-4" on="1"/>
        <pt x="171" y="0" on="0"/>
        <pt x="108" y="33" on="0"/>
        <pt x="62" y="84" on="0"/>
        <pt x="36" y="150" on="0"/>
        <pt x="36" y="188" on="1"/>
        <pt x="36" y="225" on="0"/>
        <pt x="62" y="292" on="0"/>
        <pt x="108" y="344" on="0"/>
        <pt x="171" y="377" on="0"/>
        <pt x="208" y="381" on="1"/>
        <pt x="208" y="438" on="1"/>
        <pt x="236" y="438" on="1"/>
        <pt x="236" y="383" on="1"/>
        <pt x="270" y="382" on="0"/>
        <pt x="331" y="360" on="0"/>
        <pt x="355" y="340" on="1"/>
        <pt x="354" y="339" on="0"/>
        <pt x="354" y="339" on="1"/>
        <pt x="354" y="337" on="0"/>
        <pt x="355" y="335" on="0"/>
        <pt x="355" y="333" on="1"/>
        <pt x="355" y="247" on="1"/>
        <pt x="329" y="247" on="1"/>
        <pt x="329" y="324" on="1"/>
        <pt x="309" y="338" on="0"/>
        <pt x="262" y="355" on="0"/>
        <pt x="236" y="355" on="1"/>
        <pt x="236" y="21" on="1"/>
        <pt x="265" y="22" on="0"/>
        <pt x="316" y="41" on="0"/>
      </contour>
      <contour>
        <pt x="64" y="188" on="1"/>
        <pt x="64" y="156" on="0"/>
        <pt x="86" y="100" on="0"/>
        <pt x="125" y="56" on="0"/>
        <pt x="177" y="27" on="0"/>
        <pt x="208" y="23" on="1"/>
        <pt x="208" y="352" on="1"/>
        <pt x="177" y="349" on="0"/>
        <pt x="125" y="320" on="0"/>
        <pt x="86" y="277" on="0"/>
        <pt x="64" y="220" on="0"/>
      </contour>
    </TTGlyph>
    <TTGlyph name="colon" xMin="59" yMin="0" xMax="111" yMax="303">
      <contour>
        <pt x="59" y="276" on="1"/>
        <pt x="59" y="287" on="0"/>
        <pt x="74" y="303" on="0"/>
        <pt x="85" y="303" on="1"/>
        <pt x="96" y="303" on="0"/>
        <pt x="111" y="287" on="0"/>
        <pt x="111" y="276" on="1"/>
        <pt x="111" y="265" on="0"/>
        <pt x="96" y="250" on="0"/>
        <pt x="85" y="250" on="1"/>
        <pt x="74" y="250" on="0"/>
        <pt x="59" y="265" on="0"/>
      </contour>
      <contour>
        <pt x="59" y="26" on="1"/>
        <pt x="59" y="37" on="0"/>
        <pt x="74" y="53" on="0"/>
        <pt x="85" y="53" on="1"/>
        <pt x="96" y="53" on="0"/>
        <pt x="111" y="37" on="0"/>
        <pt x="111" y="26" on="1"/>
        <pt x="111" y="15" on="0"/>
        <pt x="96" y="0" on="0"/>
        <pt x="85" y="0" on="1"/>
        <pt x="74" y="0" on="0"/>
        <pt x="59" y="15" on="0"/>
      </contour>
    </TTGlyph>
    <TTGlyph name="comma" xMin="22" yMin="-120" xMax="134" yMax="86">
      <contour>
        <pt x="134" y="86" on="1"/>
        <pt x="112" y="34" on="0"/>
        <pt x="70" y="-68" on="0"/>
        <pt x="48" y="-120" on="1"/>
        <pt x="22" y="-120" on="1"/>
        <pt x="42" y="-68" on="0"/>
        <pt x="79" y="34" on="0"/>
        <pt x="99" y="86" on="1"/>
      </contour>
    </TTGlyph>
    <TTGlyph name="copyright" xMin="143" yMin="117" xMax="657" yMax="628">
      <contour>
        <pt x="399" y="135" on="1"/>
        <pt x="448" y="135" on="0"/>
        <pt x="535" y="171" on="0"/>
        <pt x="600" y="234" on="0"/>
        <pt x="637" y="321" on="0"/>
        <pt x="637" y="371" on="1"/>
        <pt x="637" y="423" on="0"/>
        <pt x="600" y="510" on="0"/>
        <pt x="535" y="574" on="0"/>
        <pt x="448" y="610" on="0"/>
        <pt x="399" y="610" on="1"/>
        <pt x="350" y="610" on="0"/>
        <pt x="264" y="574" on="0"/>
        <pt x="200" y="510" on="0"/>
        <pt x="163" y="423" on="0"/>
        <pt x="163" y="371" on="1"/>
        <pt x="163" y="321" on="0"/>
        <pt x="200" y="234" on="0"/>
        <pt x="264" y="171" on="0"/>
        <pt x="350" y="135" on="0"/>
      </contour>
      <contour>
        <pt x="400" y="117" on="1"/>
        <pt x="346" y="117" on="0"/>
        <pt x="252" y="155" on="0"/>
        <pt x="183" y="223" on="0"/>
        <pt x="143" y="317" on="0"/>
        <pt x="143" y="372" on="1"/>
        <pt x="143" y="427" on="0"/>
        <pt x="183" y="521" on="0"/>
        <pt x="252" y="590" on="0"/>
        <pt x="346" y="628" on="0"/>
        <pt x="400" y="628" on="1"/>
        <pt x="454" y="628" on="0"/>
        <pt x="548" y="590" on="0"/>
        <pt x="617" y="521" on="0"/>
        <pt x="657" y="427" on="0"/>
        <pt x="657" y="372" on="1"/>
        <pt x="657" y="317" on="0"/>
        <pt x="617" y="223" on="0"/>
        <pt x="548" y="155" on="0"/>
        <pt x="454" y="117" on="0"/>
      </contour>
      <contour>
        <pt x="490" y="464" on="1"/>
        <pt x="490" y="507" on="1"/>
        <pt x="458" y="525" on="0"/>
        <pt x="419" y="525" on="1"/>
        <pt x="388" y="525" on="0"/>
        <pt x="334" y="501" on="0"/>
        <pt x="293" y="460" on="0"/>
        <pt x="270" y="405" on="0"/>
        <pt x="270" y="374" on="1"/>
        <pt x="270" y="343" on="0"/>
        <pt x="293" y="289" on="0"/>
        <pt x="334" y="249" on="0"/>
        <pt x="388" y="226" on="0"/>
        <pt x="418" y="226" on="1"/>
        <pt x="460" y="226" on="0"/>
        <pt x="494" y="246" on="1"/>
        <pt x="501" y="236" on="1"/>
        <pt x="483" y="225" on="0"/>
        <pt x="442" y="213" on="0"/>
        <pt x="419" y="213" on="1"/>
        <pt x="386" y="213" on="0"/>
        <pt x="327" y="239" on="0"/>
        <pt x="283" y="283" on="0"/>
        <pt x="258" y="342" on="0"/>
        <pt x="258" y="375" on="1"/>
        <pt x="258" y="409" on="0"/>
        <pt x="283" y="468" on="0"/>
        <pt x="327" y="512" on="0"/>
        <pt x="386" y="537" on="0"/>
        <pt x="419" y="537" on="1"/>
        <pt x="463" y="537" on="0"/>
        <pt x="502" y="515" on="1"/>
        <pt x="502" y="464" on="1"/>
      </contour>
    </TTGlyph>
    <TTGlyph name="currency" xMin="104" yMin="214" xMax="390" yMax="501">
      <contour>
        <pt x="137" y="361" on="1"/>
        <pt x="137" y="338" on="0"/>
        <pt x="154" y="298" on="0"/>
        <pt x="184" y="268" on="0"/>
        <pt x="224" y="250" on="0"/>
        <pt x="247" y="250" on="1"/>
        <pt x="270" y="250" on="0"/>
        <pt x="310" y="268" on="0"/>
        <pt x="340" y="298" on="0"/>
        <pt x="357" y="338" on="0"/>
        <pt x="357" y="361" on="1"/>
        <pt x="357" y="384" on="0"/>
        <pt x="340" y="424" on="0"/>
        <pt x="310" y="454" on="0"/>
        <pt x="270" y="472" on="0"/>
        <pt x="247" y="472" on="1"/>
        <pt x="224" y="472" on="0"/>
        <pt x="184" y="454" on="0"/>
        <pt x="154" y="424" on="0"/>
        <pt x="137" y="384" on="0"/>
      </contour>
      <contour>
        <pt x="109" y="361" on="1"/>
        <pt x="109" y="385" on="0"/>
        <pt x="125" y="428" on="0"/>
        <pt x="139" y="446" on="1"/>
        <pt x="104" y="481" on="1"/>
        <pt x="124" y="501" on="1"/>
        <pt x="159" y="466" on="1"/>
        <pt x="177" y="481" on="0"/>
        <pt x="221" y="499" on="0"/>
        <pt x="247" y="499" on="1"/>
        <pt x="273" y="499" on="0"/>
        <pt x="318" y="481" on="0"/>
        <pt x="335" y="465" on="1"/>
        <pt x="370" y="500" on="1"/>
        <pt x="390" y="481" on="1"/>
        <pt x="355" y="446" on="1"/>
        <pt x="385" y="410" on="0"/>
        <pt x="385" y="361" on="1"/>
        <pt x="385" y="335" on="0"/>
        <pt x="367" y="291" on="0"/>
        <pt x="353" y="273" on="1"/>
        <pt x="390" y="235" on="1"/>
        <pt x="370" y="215" on="1"/>
        <pt x="332" y="253" on="1"/>
        <pt x="296" y="223" on="0"/>
        <pt x="247" y="223" on="1"/>
        <pt x="223" y="223" on="0"/>
        <pt x="179" y="238" on="0"/>
        <pt x="162" y="252" on="1"/>
        <pt x="124" y="214" on="1"/>
        <pt x="104" y="234" on="1"/>
        <pt x="142" y="272" on="1"/>
        <pt x="109" y="310" on="0"/>
      </contour>
    </TTGlyph>
    <TTGlyph name="d" xMin="35" yMin="-7" xMax="500" yMax="750">
      <contour>
        <pt x="401" y="47" on="1"/>
        <pt x="401" y="102" on="1"/>
        <pt x="392" y="80" on="0"/>
        <pt x="360" y="40" on="0"/>
        <pt x="315" y="10" on="0"/>
        <pt x="261" y="-7" on="0"/>
        <pt x="230" y="-7" on="1"/>
        <pt x="189" y="-7" on="0"/>
        <pt x="118" y="24" on="0"/>
        <pt x="65" y="76" on="0"/>
        <pt x="35" y="147" on="0"/>
        <pt x="35" y="188" on="1"/>
        <pt x="35" y="228" on="0"/>
        <pt x="65" y="300" on="0"/>
        <pt x="118" y="352" on="0"/>
        <pt x="189" y="383" on="0"/>
        <pt x="230" y="383" on="1"/>
        <pt x="260" y="383" on="0"/>
        <pt x="314" y="366" on="0"/>
        <pt x="359" y="336" on="0"/>
        <pt x="392" y="296" on="0"/>
        <pt x="401" y="274" on="1"/>
        <pt x="400" y="300" on="0"/>
        <pt x="399" y="350" on="0"/>
        <pt x="399" y="376" on="1"/>
        <pt x="399" y="723" on="1"/>
        <pt x="327" y="723" on="1"/>
        <pt x="327" y="750" on="1"/>
        <pt x="426" y="750" on="1"/>
        <pt x="426" y="27" on="1"/>
        <pt x="500" y="27" on="1"/>
        <pt x="500" y="0" on="1"/>
        <pt x="401" y="0" on="1"/>
      </contour>
      <contour>
        <pt x="63" y="188" on="1"/>
        <pt x="63" y="153" on="0"/>
        <pt x="89" y="92" on="0"/>
        <pt x="134" y="47" on="0"/>
        <pt x="195" y="21" on="0"/>
        <pt x="230" y="21" on="1"/>
        <pt x="265" y="21" on="0"/>
        <pt x="327" y="47" on="0"/>
        <pt x="373" y="92" on="0"/>
        <pt x="399" y="153" on="0"/>
        <pt x="399" y="188" on="1"/>
        <pt x="399" y="223" on="0"/>
        <pt x="373" y="284" on="0"/>
        <pt x="327" y="330" on="0"/>
        <pt x="265" y="356" on="0"/>
        <pt x="230" y="356" on="1"/>
        <pt x="195" y="356" on="0"/>
        <pt x="134" y="330" on="0"/>
        <pt x="89" y="284" on="0"/>
        <pt x="63" y="223" on="0"/>
      </contour>
    </TTGlyph>
    <TTGlyph name="degree" xMin="56" yMin="479" xMax="219" yMax="641">
      <contour>
        <pt x="138" y="501" on="1"/>
        <pt x="163" y="501" on="0"/>
        <pt x="197" y="534" on="0"/>
        <pt x="197" y="560" on="1"/>
        <pt x="197" y="585" on="0"/>
        <pt x="163" y="619" on="0"/>
        <pt x="138" y="619" on="1"/>
        <pt x="113" y="619" on="0"/>
        <pt x="78" y="585" on="0"/>
        <pt x="78" y="560" on="1"/>
        <pt x="78" y="534" on="0"/>
        <pt x="113" y="501" on="0"/>
      </contour>
      <contour>
        <pt x="56" y="559" on="1"/>
        <pt x="56" y="594" on="0"/>
        <pt x="103" y="641" on="0"/>
        <pt x="138" y="641" on="1"/>
        <pt x="172" y="641" on="0"/>
        <pt x="219" y="594" on="0"/>
        <pt x="219" y="559" on="1"/>
        <pt x="219" y="525" on="0"/>
        <pt x="172" y="479" on="0"/>
        <pt x="138" y="479" on="1"/>
        <pt x="103" y="479" on="0"/>
        <pt x="56" y="525" on="0"/>
      </contour>
    </TTGlyph>
    <TTGlyph name="dieresis" xMin="75" yMin="478" xMax="293" yMax="531">
      <contour>
        <pt x="241" y="504" on="1"/>
        <pt x="241" y="515" on="0"/>
        <pt x="256" y="531" on="0"/>
        <pt x="267" y="531" on="1"/>
        <pt x="278" y="531" on="0"/>
        <pt x="293" y="515" on="0"/>
        <pt x="293" y="504" on="1"/>
        <pt x="293" y="493" on="0"/>
        <pt x="278" y="478" on="0"/>
        <pt x="267" y="478" on="1"/>
        <pt x="256" y="478" on="0"/>
        <pt x="241" y="493" on="0"/>
      </contour>
      <contour>
        <pt x="75" y="504" on="1"/>
        <pt x="75" y="515" on="0"/>
        <pt x="91" y="531" on="0"/>
        <pt x="102" y="531" on="1"/>
        <pt x="113" y="531" on="0"/>
        <pt x="128" y="515" on="0"/>
        <pt x="128" y="504" on="1"/>
        <pt x="128" y="493" on="0"/>
        <pt x="113" y="478" on="0"/>
        <pt x="102" y="478" on="1"/>
        <pt x="91" y="478" on="0"/>
        <pt x="75" y="493" on="0"/>
      </contour>
    </TTGlyph>
    <TTGlyph name="divide" xMin="68" yMin="71" xMax="428" yMax="374">
      <contour>
        <pt x="428" y="209" on="1"/>
        <pt x="68" y="209" on="1"/>
        <pt x="68" y="237" on="1"/>
        <pt x="428" y="237" on="1"/>
      </contour>
      <contour>
        <pt x="225" y="347" on="1"/>
        <pt x="225" y="358" on="0"/>
        <pt x="240" y="374" on="0"/>
        <pt x="251" y="374" on="1"/>
        <pt x="262" y="374" on="0"/>
        <pt x="277" y="358" on="0"/>
        <pt x="277" y="347" on="1"/>
        <pt x="277" y="336" on="0"/>
        <pt x="262" y="321" on="0"/>
        <pt x="251" y="321" on="1"/>
        <pt x="240" y="321" on="0"/>
        <pt x="225" y="336" on="0"/>
      </contour>
      <contour>
        <pt x="225" y="97" on="1"/>
        <pt x="225" y="108" on="0"/>
        <pt x="240" y="124" on="0"/>
        <pt x="251" y="124" on="1"/>
        <pt x="262" y="124" on="0"/>
        <pt x="277" y="108" on="0"/>
        <pt x="277" y="97" on="1"/>
        <pt x="277" y="86" on="0"/>
        <pt x="262" y="71" on="0"/>
        <pt x="251" y="71" on="1"/>
        <pt x="240" y="71" on="0"/>
        <pt x="225" y="86" on="0"/>
      </contour>
    </TTGlyph>
    <TTGlyph name="dollar" xMin="41" yMin="-68" xMax="453" yMax="764">
      <contour>
        <pt x="367" y="546" on="1"/>
        <pt x="367" y="643" on="1"/>
        <pt x="349" y="656" on="0"/>
        <pt x="291" y="675" on="0"/>
        <pt x="252" y="677" on="1"/>
        <pt x="252" y="384" on="1"/>
        <pt x="288" y="373" on="0"/>
        <pt x="358" y="348" on="0"/>
        <pt x="415" y="306" on="0"/>
        <pt x="451" y="238" on="0"/>
        <pt x="452" y="186" on="1"/>
        <pt x="453" y="143" on="0"/>
        <pt x="422" y="73" on="0"/>
        <pt x="367" y="23" on="0"/>
        <pt x="294" y="-6" on="0"/>
        <pt x="252" y="-8" on="1"/>
        <pt x="252" y="-68" on="1"/>
        <pt x="225" y="-68" on="1"/>
        <pt x="225" y="-7" on="1"/>
        <pt x="188" y="-6" on="0"/>
        <pt x="129" y="11" on="0"/>
        <pt x="83" y="34" on="0"/>
        <pt x="50" y="60" on="0"/>
        <pt x="41" y="70" on="1"/>
        <pt x="41" y="173" on="1"/>
        <pt x="68" y="173" on="1"/>
        <pt x="68" y="83" on="1"/>
        <pt x="94" y="57" on="0"/>
        <pt x="171" y="22" on="0"/>
        <pt x="225" y="20" on="1"/>
        <pt x="225" y="362" on="1"/>
        <pt x="194" y="371" on="0"/>
        <pt x="137" y="393" on="0"/>
        <pt x="93" y="427" on="0"/>
        <pt x="65" y="478" on="0"/>
        <pt x="63" y="517" on="1"/>
        <pt x="61" y="549" on="0"/>
        <pt x="78" y="613" on="0"/>
        <pt x="118" y="666" on="0"/>
        <pt x="181" y="701" on="0"/>
        <pt x="225" y="703" on="1"/>
        <pt x="225" y="764" on="1"/>
        <pt x="252" y="764" on="1"/>
        <pt x="252" y="704" on="1"/>
        <pt x="268" y="703" on="0"/>
        <pt x="305" y="698" on="0"/>
        <pt x="342" y="688" on="0"/>
        <pt x="378" y="670" on="0"/>
        <pt x="394" y="657" on="1"/>
        <pt x="394" y="546" on="1"/>
      </contour>
      <contour>
        <pt x="424" y="183" on="1"/>
        <pt x="424" y="227" on="0"/>
        <pt x="394" y="285" on="0"/>
        <pt x="346" y="322" on="0"/>
        <pt x="284" y="345" on="0"/>
        <pt x="252" y="354" on="1"/>
        <pt x="252" y="20" on="1"/>
        <pt x="286" y="22" on="0"/>
        <pt x="348" y="46" on="0"/>
        <pt x="396" y="88" on="0"/>
        <pt x="424" y="147" on="0"/>
      </contour>
      <contour>
        <pt x="90" y="527" on="1"/>
        <pt x="90" y="495" on="0"/>
        <pt x="112" y="451" on="0"/>
        <pt x="149" y="420" on="0"/>
        <pt x="198" y="400" on="0"/>
        <pt x="225" y="392" on="1"/>
        <pt x="225" y="675" on="1"/>
        <pt x="191" y="673" on="0"/>
        <pt x="141" y="647" on="0"/>
        <pt x="107" y="607" on="0"/>
        <pt x="90" y="555" on="0"/>
      </contour>
    </TTGlyph>
    <TTGlyph name="e" xMin="35" yMin="-7" xMax="401" yMax="383">
      <contour>
        <pt x="230" y="356" on="1"/>
        <pt x="189" y="356" on="0"/>
        <pt x="121" y="320" on="0"/>
        <pt x="76" y="262" on="0"/>
        <pt x="58" y="186" on="0"/>
        <pt x="68" y="147" on="1"/>
        <pt x="143" y="177" on="0"/>
        <pt x="290" y="236" on="0"/>
        <pt x="365" y="266" on="1"/>
        <pt x="346" y="306" on="0"/>
        <pt x="275" y="356" on="0"/>
      </contour>
      <contour>
        <pt x="401" y="251" on="1"/>
        <pt x="320" y="218" on="0"/>
        <pt x="158" y="154" on="0"/>
        <pt x="77" y="121" on="1"/>
        <pt x="96" y="76" on="0"/>
        <pt x="177" y="21" on="0"/>
        <pt x="230" y="21" on="1"/>
        <pt x="264" y="21" on="0"/>
        <pt x="322" y="45" on="0"/>
        <pt x="345" y="66" on="1"/>
        <pt x="349" y="61" on="0"/>
        <pt x="357" y="51" on="0"/>
        <pt x="362" y="46" on="1"/>
        <pt x="336" y="21" on="0"/>
        <pt x="269" y="-7" on="0"/>
        <pt x="230" y="-7" on="1"/>
        <pt x="189" y="-7" on="0"/>
        <pt x="118" y="24" on="0"/>
        <pt x="66" y="76" on="0"/>
        <pt x="35" y="147" on="0"/>
        <pt x="35" y="188" on="1"/>
        <pt x="35" y="228" on="0"/>
        <pt x="66" y="300" on="0"/>
        <pt x="118" y="352" on="0"/>
        <pt x="189" y="383" on="0"/>
        <pt x="230" y="383" on="1"/>
        <pt x="290" y="383" on="0"/>
        <pt x="381" y="309" on="0"/>
      </contour>
    </TTGlyph>
    <TTGlyph name="eacute" xMin="35" yMin="-7" xMax="401" yMax="612">
      <component glyphName="e" x="0" y="0" flags="0x204"/>
      <component glyphName="acute" x="130" y="0" flags="0x4"/>
    </TTGlyph>
    <TTGlyph name="ecircumflex" xMin="35" yMin="-7" xMax="401" yMax="660">
      <component glyphName="e" x="0" y="0" flags="0x204"/>
      <component glyphName="asciicircum" x="-2" y="0" flags="0x4"/>
    </TTGlyph>
    <TTGlyph name="edieresis" xMin="35" yMin="-7" xMax="401" yMax="531">
      <component glyphName="e" x="0" y="0" flags="0x204"/>
      <component glyphName="dieresis" x="49" y="0" flags="0x4"/>
    </TTGlyph>
    <TTGlyph name="egrave" xMin="35" yMin="-7" xMax="401" yMax="612">
      <component glyphName="e" x="0" y="0" flags="0x204"/>
      <component glyphName="grave" x="138" y="0" flags="0x4"/>
    </TTGlyph>
    <TTGlyph name="eight" xMin="50" yMin="-8" xMax="462" yMax="658">
      <contour>
        <pt x="134" y="508" on="1"/>
        <pt x="134" y="485" on="0"/>
        <pt x="153" y="446" on="0"/>
        <pt x="185" y="418" on="0"/>
        <pt x="229" y="402" on="0"/>
        <pt x="254" y="402" on="1"/>
        <pt x="279" y="402" on="0"/>
        <pt x="322" y="418" on="0"/>
        <pt x="354" y="446" on="0"/>
        <pt x="372" y="485" on="0"/>
        <pt x="372" y="508" on="1"/>
        <pt x="372" y="533" on="0"/>
        <pt x="354" y="577" on="0"/>
        <pt x="322" y="611" on="0"/>
        <pt x="279" y="631" on="0"/>
        <pt x="254" y="631" on="1"/>
        <pt x="229" y="631" on="0"/>
        <pt x="185" y="611" on="0"/>
        <pt x="153" y="577" on="0"/>
        <pt x="134" y="533" on="0"/>
      </contour>
      <contour>
        <pt x="78" y="198" on="1"/>
        <pt x="78" y="162" on="0"/>
        <pt x="105" y="97" on="0"/>
        <pt x="152" y="48" on="0"/>
        <pt x="216" y="19" on="0"/>
        <pt x="253" y="19" on="1"/>
        <pt x="290" y="19" on="0"/>
        <pt x="357" y="48" on="0"/>
        <pt x="406" y="97" on="0"/>
        <pt x="435" y="162" on="0"/>
        <pt x="435" y="198" on="1"/>
        <pt x="435" y="234" on="0"/>
        <pt x="406" y="298" on="0"/>
        <pt x="357" y="346" on="0"/>
        <pt x="291" y="373" on="0"/>
        <pt x="254" y="373" on="1"/>
        <pt x="217" y="373" on="0"/>
        <pt x="153" y="346" on="0"/>
        <pt x="105" y="298" on="0"/>
        <pt x="78" y="234" on="0"/>
      </contour>
      <contour>
        <pt x="50" y="198" on="1"/>
        <pt x="50" y="232" on="0"/>
        <pt x="71" y="293" on="0"/>
        <pt x="108" y="343" on="0"/>
        <pt x="160" y="380" on="0"/>
        <pt x="191" y="389" on="1"/>
        <pt x="153" y="404" on="0"/>
        <pt x="105" y="471" on="0"/>
        <pt x="105" y="514" on="1"/>
        <pt x="105" y="544" on="0"/>
        <pt x="128" y="596" on="0"/>
        <pt x="169" y="635" on="0"/>
        <pt x="222" y="658" on="0"/>
        <pt x="252" y="658" on="1"/>
        <pt x="283" y="658" on="0"/>
        <pt x="336" y="635" on="0"/>
        <pt x="376" y="595" on="0"/>
        <pt x="399" y="541" on="0"/>
        <pt x="399" y="511" on="1"/>
        <pt x="399" y="469" on="0"/>
        <pt x="354" y="405" on="0"/>
        <pt x="317" y="389" on="1"/>
        <pt x="348" y="380" on="0"/>
        <pt x="401" y="344" on="0"/>
        <pt x="440" y="294" on="0"/>
        <pt x="462" y="232" on="0"/>
        <pt x="462" y="198" on="1"/>
        <pt x="462" y="155" on="0"/>
        <pt x="429" y="80" on="0"/>
        <pt x="373" y="24" on="0"/>
        <pt x="297" y="-8" on="0"/>
        <pt x="255" y="-8" on="1"/>
        <pt x="213" y="-8" on="0"/>
        <pt x="138" y="24" on="0"/>
        <pt x="82" y="80" on="0"/>
        <pt x="50" y="155" on="0"/>
      </contour>
    </TTGlyph>
    <TTGlyph name="emdash" xMin="99" yMin="178" xMax="601" yMax="205">
      <contour>
        <pt x="99" y="178" on="1"/>
        <pt x="99" y="205" on="1"/>
        <pt x="601" y="205" on="1"/>
        <pt x="601" y="178" on="1"/>
      </contour>
    </TTGlyph>
    <TTGlyph name="endash" xMin="100" yMin="178" xMax="401" yMax="205">
      <contour>
        <pt x="100" y="178" on="1"/>
        <pt x="100" y="205" on="1"/>
        <pt x="401" y="205" on="1"/>
        <pt x="401" y="178" on="1"/>
      </contour>
    </TTGlyph>
    <TTGlyph name="equal" xMin="100" yMin="142" xMax="606" yMax="364">
      <contour>
        <pt x="606" y="170" on="1"/>
        <pt x="606" y="142" on="1"/>
        <pt x="100" y="142" on="1"/>
        <pt x="100" y="170" on="1"/>
      </contour>
      <contour>
        <pt x="606" y="364" on="1"/>
        <pt x="606" y="336" on="1"/>
        <pt x="100" y="336" on="1"/>
        <pt x="100" y="364" on="1"/>
      </contour>
    </TTGlyph>
    <TTGlyph name="eth" xMin="35" yMin="-6" xMax="426" yMax="728">
      <contour>
        <pt x="63" y="188" on="1"/>
        <pt x="63" y="153" on="0"/>
        <pt x="89" y="92" on="0"/>
        <pt x="134" y="47" on="0"/>
        <pt x="196" y="21" on="0"/>
        <pt x="231" y="21" on="1"/>
        <pt x="266" y="21" on="0"/>
        <pt x="328" y="48" on="0"/>
        <pt x="373" y="93" on="0"/>
        <pt x="399" y="154" on="0"/>
        <pt x="399" y="189" on="1"/>
        <pt x="399" y="224" on="0"/>
        <pt x="372" y="286" on="0"/>
        <pt x="326" y="331" on="0"/>
        <pt x="265" y="356" on="0"/>
        <pt x="230" y="356" on="1"/>
        <pt x="195" y="356" on="0"/>
        <pt x="134" y="330" on="0"/>
        <pt x="89" y="284" on="0"/>
        <pt x="63" y="223" on="0"/>
      </contour>
      <contour>
        <pt x="126" y="544" on="1"/>
        <pt x="144" y="563" on="0"/>
        <pt x="180" y="602" on="0"/>
        <pt x="198" y="621" on="1"/>
        <pt x="176" y="645" on="0"/>
        <pt x="130" y="690" on="0"/>
        <pt x="104" y="710" on="1"/>
        <pt x="109" y="715" on="0"/>
        <pt x="117" y="723" on="0"/>
        <pt x="121" y="728" on="1"/>
        <pt x="146" y="710" on="0"/>
        <pt x="193" y="666" on="0"/>
        <pt x="216" y="641" on="1"/>
        <pt x="233" y="659" on="0"/>
        <pt x="265" y="694" on="0"/>
        <pt x="281" y="712" on="1"/>
        <pt x="286" y="708" on="0"/>
        <pt x="294" y="700" on="0"/>
        <pt x="299" y="696" on="1"/>
        <pt x="282" y="678" on="0"/>
        <pt x="249" y="641" on="0"/>
        <pt x="232" y="622" on="1"/>
        <pt x="271" y="575" on="0"/>
        <pt x="341" y="468" on="0"/>
        <pt x="395" y="356" on="0"/>
        <pt x="426" y="243" on="0"/>
        <pt x="426" y="190" on="1"/>
        <pt x="426" y="149" on="0"/>
        <pt x="396" y="78" on="0"/>
        <pt x="344" y="25" on="0"/>
        <pt x="272" y="-6" on="0"/>
        <pt x="232" y="-6" on="1"/>
        <pt x="191" y="-6" on="0"/>
        <pt x="120" y="23" on="0"/>
        <pt x="66" y="76" on="0"/>
        <pt x="35" y="146" on="0"/>
        <pt x="35" y="187" on="1"/>
        <pt x="35" y="227" on="0"/>
        <pt x="65" y="299" on="0"/>
        <pt x="117" y="352" on="0"/>
        <pt x="188" y="384" on="0"/>
        <pt x="229" y="384" on="1"/>
        <pt x="274" y="384" on="0"/>
        <pt x="348" y="344" on="0"/>
        <pt x="372" y="312" on="1"/>
        <pt x="359" y="365" on="0"/>
        <pt x="285" y="517" on="0"/>
        <pt x="213" y="602" on="1"/>
        <pt x="144" y="527" on="1"/>
        <pt x="139" y="532" on="0"/>
        <pt x="131" y="539" on="0"/>
      </contour>
    </TTGlyph>
    <TTGlyph name="exclam" xMin="74" yMin="29" xMax="126" yMax="750">
      <contour>
        <pt x="100" y="29" on="1"/>
        <pt x="90" y="29" on="0"/>
        <pt x="74" y="44" on="0"/>
        <pt x="74" y="55" on="1"/>
        <pt x="74" y="67" on="0"/>
        <pt x="90" y="82" on="0"/>
        <pt x="100" y="82" on="1"/>
        <pt x="110" y="82" on="0"/>
        <pt x="126" y="67" on="0"/>
        <pt x="126" y="55" on="1"/>
        <pt x="126" y="44" on="0"/>
        <pt x="110" y="29" on="0"/>
      </contour>
      <contour>
        <pt x="86" y="750" on="1"/>
        <pt x="114" y="750" on="1"/>
        <pt x="114" y="166" on="1"/>
        <pt x="86" y="166" on="1"/>
      </contour>
    </TTGlyph>
    <TTGlyph name="exclamdown" xMin="74" yMin="-210" xMax="126" yMax="511">
      <component glyphName="exclam" x="0" y="540" scalex="1.0" scaley="-0.999877929688" flags="0x4"/>
    </TTGlyph>
    <TTGlyph name="f" xMin="35" yMin="0" xMax="292" yMax="750">
      <contour>
        <pt x="35" y="27" on="1"/>
        <pt x="96" y="27" on="1"/>
        <pt x="96" y="348" on="1"/>
        <pt x="35" y="348" on="1"/>
        <pt x="35" y="375" on="1"/>
        <pt x="96" y="375" on="1"/>
        <pt x="96" y="518" on="1"/>
        <pt x="96" y="573" on="0"/>
        <pt x="127" y="659" on="0"/>
        <pt x="180" y="717" on="0"/>
        <pt x="251" y="748" on="0"/>
        <pt x="292" y="750" on="1"/>
        <pt x="292" y="723" on="1"/>
        <pt x="258" y="723" on="0"/>
        <pt x="197" y="694" on="0"/>
        <pt x="151" y="642" on="0"/>
        <pt x="124" y="567" on="0"/>
        <pt x="124" y="520" on="1"/>
        <pt x="124" y="375" on="1"/>
        <pt x="251" y="375" on="1"/>
        <pt x="251" y="348" on="1"/>
        <pt x="124" y="348" on="1"/>
        <pt x="124" y="27" on="1"/>
        <pt x="219" y="27" on="1"/>
        <pt x="219" y="0" on="1"/>
        <pt x="35" y="0" on="1"/>
      </contour>
    </TTGlyph>
    <TTGlyph name="five" xMin="113" yMin="-8" xMax="462" yMax="650">
      <contour>
        <pt x="430" y="650" on="1"/>
        <pt x="430" y="559" on="1"/>
        <pt x="403" y="559" on="1"/>
        <pt x="403" y="623" on="1"/>
        <pt x="171" y="623" on="1"/>
        <pt x="171" y="382" on="1"/>
        <pt x="191" y="390" on="0"/>
        <pt x="232" y="401" on="0"/>
        <pt x="255" y="401" on="1"/>
        <pt x="297" y="401" on="0"/>
        <pt x="373" y="369" on="0"/>
        <pt x="429" y="314" on="0"/>
        <pt x="462" y="240" on="0"/>
        <pt x="462" y="198" on="1"/>
        <pt x="462" y="155" on="0"/>
        <pt x="429" y="80" on="0"/>
        <pt x="373" y="24" on="0"/>
        <pt x="297" y="-8" on="0"/>
        <pt x="255" y="-8" on="1"/>
        <pt x="213" y="-8" on="0"/>
        <pt x="141" y="22" on="0"/>
        <pt x="113" y="49" on="1"/>
        <pt x="134" y="68" on="1"/>
        <pt x="157" y="45" on="0"/>
        <pt x="218" y="19" on="0"/>
        <pt x="253" y="19" on="1"/>
        <pt x="290" y="19" on="0"/>
        <pt x="357" y="48" on="0"/>
        <pt x="406" y="97" on="0"/>
        <pt x="435" y="162" on="0"/>
        <pt x="435" y="198" on="1"/>
        <pt x="435" y="234" on="0"/>
        <pt x="406" y="298" on="0"/>
        <pt x="357" y="346" on="0"/>
        <pt x="290" y="373" on="0"/>
        <pt x="253" y="373" on="1"/>
        <pt x="218" y="373" on="0"/>
        <pt x="160" y="350" on="0"/>
        <pt x="143" y="331" on="1"/>
        <pt x="143" y="650" on="1"/>
      </contour>
    </TTGlyph>
    <TTGlyph name="four" xMin="37" yMin="0" xMax="500" yMax="658">
      <contour>
        <pt x="298" y="27" on="1"/>
        <pt x="375" y="27" on="1"/>
        <pt x="375" y="183" on="1"/>
        <pt x="37" y="183" on="1"/>
        <pt x="403" y="658" on="1"/>
        <pt x="403" y="210" on="1"/>
        <pt x="500" y="210" on="1"/>
        <pt x="500" y="183" on="1"/>
        <pt x="403" y="183" on="1"/>
        <pt x="403" y="27" on="1"/>
        <pt x="486" y="27" on="1"/>
        <pt x="486" y="0" on="1"/>
        <pt x="298" y="0" on="1"/>
      </contour>
      <contour>
        <pt x="375" y="576" on="1"/>
        <pt x="95" y="210" on="1"/>
        <pt x="375" y="210" on="1"/>
      </contour>
    </TTGlyph>
    <TTGlyph name="g" xMin="35" yMin="-250" xMax="501" yMax="383">
      <contour>
        <pt x="405" y="375" on="1"/>
        <pt x="501" y="375" on="1"/>
        <pt x="501" y="348" on="1"/>
        <pt x="426" y="348" on="1"/>
        <pt x="426" y="-26" on="1"/>
        <pt x="426" y="-79" on="0"/>
        <pt x="397" y="-161" on="0"/>
        <pt x="346" y="-218" on="0"/>
        <pt x="278" y="-249" on="0"/>
        <pt x="239" y="-250" on="1"/>
        <pt x="197" y="-248" on="0"/>
        <pt x="112" y="-221" on="0"/>
        <pt x="86" y="-190" on="1"/>
        <pt x="107" y="-171" on="1"/>
        <pt x="130" y="-198" on="0"/>
        <pt x="203" y="-222" on="0"/>
        <pt x="238" y="-222" on="1"/>
        <pt x="271" y="-222" on="0"/>
        <pt x="330" y="-194" on="0"/>
        <pt x="373" y="-143" on="0"/>
        <pt x="399" y="-71" on="0"/>
        <pt x="399" y="-27" on="1"/>
        <pt x="399" y="47" on="1"/>
        <pt x="399" y="61" on="0"/>
        <pt x="400" y="87" on="0"/>
        <pt x="401" y="101" on="1"/>
        <pt x="383" y="56" on="0"/>
        <pt x="291" y="-6" on="0"/>
        <pt x="230" y="-6" on="1"/>
        <pt x="189" y="-6" on="0"/>
        <pt x="118" y="24" on="0"/>
        <pt x="65" y="77" on="0"/>
        <pt x="35" y="147" on="0"/>
        <pt x="35" y="188" on="1"/>
        <pt x="35" y="228" on="0"/>
        <pt x="65" y="299" on="0"/>
        <pt x="118" y="352" on="0"/>
        <pt x="189" y="383" on="0"/>
        <pt x="230" y="383" on="1"/>
        <pt x="260" y="383" on="0"/>
        <pt x="314" y="366" on="0"/>
        <pt x="359" y="336" on="0"/>
        <pt x="392" y="296" on="0"/>
        <pt x="401" y="274" on="1"/>
        <pt x="401" y="299" on="0"/>
        <pt x="403" y="349" on="0"/>
      </contour>
      <contour>
        <pt x="63" y="188" on="1"/>
        <pt x="63" y="153" on="0"/>
        <pt x="89" y="92" on="0"/>
        <pt x="134" y="47" on="0"/>
        <pt x="195" y="21" on="0"/>
        <pt x="230" y="21" on="1"/>
        <pt x="265" y="21" on="0"/>
        <pt x="327" y="47" on="0"/>
        <pt x="373" y="92" on="0"/>
        <pt x="399" y="153" on="0"/>
        <pt x="399" y="188" on="1"/>
        <pt x="399" y="223" on="0"/>
        <pt x="373" y="284" on="0"/>
        <pt x="327" y="330" on="0"/>
        <pt x="265" y="356" on="0"/>
        <pt x="230" y="356" on="1"/>
        <pt x="195" y="356" on="0"/>
        <pt x="134" y="330" on="0"/>
        <pt x="89" y="284" on="0"/>
        <pt x="63" y="223" on="0"/>
      </contour>
    </TTGlyph>
    <TTGlyph name="germandbls" xMin="35" yMin="-8" xMax="510" yMax="658">
      <contour>
        <pt x="35" y="27" on="1"/>
        <pt x="113" y="27" on="1"/>
        <pt x="113" y="363" on="1"/>
        <pt x="49" y="363" on="1"/>
        <pt x="49" y="390" on="1"/>
        <pt x="113" y="390" on="1"/>
        <pt x="113" y="425" on="1"/>
        <pt x="113" y="480" on="0"/>
        <pt x="144" y="566" on="0"/>
        <pt x="196" y="625" on="0"/>
        <pt x="265" y="657" on="0"/>
        <pt x="303" y="658" on="1"/>
        <pt x="333" y="657" on="0"/>
        <pt x="385" y="634" on="0"/>
        <pt x="424" y="594" on="0"/>
        <pt x="447" y="541" on="0"/>
        <pt x="447" y="511" on="1"/>
        <pt x="447" y="469" on="0"/>
        <pt x="402" y="405" on="0"/>
        <pt x="365" y="389" on="1"/>
        <pt x="396" y="380" on="0"/>
        <pt x="449" y="344" on="0"/>
        <pt x="488" y="294" on="0"/>
        <pt x="510" y="232" on="0"/>
        <pt x="510" y="198" on="1"/>
        <pt x="510" y="155" on="0"/>
        <pt x="477" y="80" on="0"/>
        <pt x="421" y="24" on="0"/>
        <pt x="345" y="-8" on="0"/>
        <pt x="303" y="-8" on="1"/>
        <pt x="274" y="-8" on="0"/>
        <pt x="224" y="6" on="0"/>
        <pt x="201" y="19" on="1"/>
        <pt x="212" y="43" on="1"/>
        <pt x="253" y="18" on="0"/>
        <pt x="301" y="18" on="1"/>
        <pt x="338" y="18" on="0"/>
        <pt x="405" y="47" on="0"/>
        <pt x="454" y="96" on="0"/>
        <pt x="483" y="162" on="0"/>
        <pt x="483" y="198" on="1"/>
        <pt x="483" y="234" on="0"/>
        <pt x="454" y="297" on="0"/>
        <pt x="405" y="345" on="0"/>
        <pt x="340" y="373" on="0"/>
        <pt x="303" y="373" on="1"/>
        <pt x="303" y="387" on="1"/>
        <pt x="303" y="401" on="1"/>
        <pt x="327" y="401" on="0"/>
        <pt x="370" y="417" on="0"/>
        <pt x="401" y="445" on="0"/>
        <pt x="420" y="484" on="0"/>
        <pt x="420" y="508" on="1"/>
        <pt x="420" y="532" on="0"/>
        <pt x="403" y="576" on="0"/>
        <pt x="372" y="610" on="0"/>
        <pt x="329" y="630" on="0"/>
        <pt x="304" y="630" on="1"/>
        <pt x="271" y="630" on="0"/>
        <pt x="212" y="602" on="0"/>
        <pt x="167" y="549" on="0"/>
        <pt x="141" y="474" on="0"/>
        <pt x="141" y="428" on="1"/>
        <pt x="141" y="0" on="1"/>
        <pt x="35" y="0" on="1"/>
      </contour>
    </TTGlyph>
    <TTGlyph name="grave" xMin="-21" yMin="479" xMax="98" yMax="612">
      <contour>
        <pt x="8" y="612" on="1"/>
        <pt x="31" y="579" on="0"/>
        <pt x="75" y="512" on="0"/>
        <pt x="98" y="479" on="1"/>
        <pt x="74" y="479" on="1"/>
        <pt x="50" y="512" on="0"/>
        <pt x="2" y="579" on="0"/>
        <pt x="-21" y="612" on="1"/>
      </contour>
    </TTGlyph>
    <TTGlyph name="greater" xMin="115" yMin="-15" xMax="553" yMax="491">
      <contour>
        <pt x="115" y="-15" on="1"/>
        <pt x="115" y="21" on="1"/>
        <pt x="210" y="75" on="0"/>
        <pt x="398" y="184" on="0"/>
        <pt x="493" y="238" on="1"/>
        <pt x="398" y="292" on="0"/>
        <pt x="210" y="401" on="0"/>
        <pt x="115" y="455" on="1"/>
        <pt x="115" y="491" on="1"/>
        <pt x="225" y="428" on="0"/>
        <pt x="443" y="301" on="0"/>
        <pt x="553" y="238" on="1"/>
        <pt x="443" y="175" on="0"/>
        <pt x="225" y="48" on="0"/>
      </contour>
    </TTGlyph>
    <TTGlyph name="guillemotleft" xMin="117" yMin="77" xMax="459" yMax="400">
      <contour>
        <pt x="459" y="77" on="1"/>
        <pt x="288" y="239" on="1"/>
        <pt x="331" y="280" on="0"/>
        <pt x="416" y="359" on="0"/>
        <pt x="459" y="400" on="1"/>
        <pt x="459" y="367" on="1"/>
        <pt x="427" y="335" on="0"/>
        <pt x="364" y="271" on="0"/>
        <pt x="332" y="239" on="1"/>
        <pt x="364" y="206" on="0"/>
        <pt x="427" y="141" on="0"/>
        <pt x="459" y="109" on="1"/>
      </contour>
      <contour>
        <pt x="288" y="77" on="1"/>
        <pt x="117" y="239" on="1"/>
        <pt x="160" y="280" on="0"/>
        <pt x="245" y="359" on="0"/>
        <pt x="288" y="400" on="1"/>
        <pt x="288" y="367" on="1"/>
        <pt x="256" y="335" on="0"/>
        <pt x="193" y="271" on="0"/>
        <pt x="161" y="239" on="1"/>
        <pt x="193" y="206" on="0"/>
        <pt x="256" y="141" on="0"/>
        <pt x="288" y="109" on="1"/>
      </contour>
    </TTGlyph>
    <TTGlyph name="guillemotright" xMin="117" yMin="77" xMax="459" yMax="400">
      <component glyphName="guillemotleft" x="576" y="0" scalex="-0.999877929688" scaley="1.0" flags="0x4"/>
    </TTGlyph>
    <TTGlyph name="guilsinglleft" xMin="117" yMin="77" xMax="288" yMax="400">
      <contour>
        <pt x="288" y="77" on="1"/>
        <pt x="117" y="239" on="1"/>
        <pt x="160" y="280" on="0"/>
        <pt x="245" y="359" on="0"/>
        <pt x="288" y="400" on="1"/>
        <pt x="288" y="367" on="1"/>
        <pt x="256" y="335" on="0"/>
        <pt x="193" y="271" on="0"/>
        <pt x="161" y="239" on="1"/>
        <pt x="193" y="206" on="0"/>
        <pt x="256" y="141" on="0"/>
        <pt x="288" y="109" on="1"/>
      </contour>
    </TTGlyph>
    <TTGlyph name="guilsinglright" xMin="117" yMin="77" xMax="288" yMax="400">
      <component glyphName="guilsinglleft" x="405" y="0" scalex="-0.999877929688" scaley="1.0" flags="0x4"/>
    </TTGlyph>
    <TTGlyph name="h" xMin="35" yMin="0" xMax="499" yMax="750">
      <contour>
        <pt x="315" y="27" on="1"/>
        <pt x="394" y="27" on="1"/>
        <pt x="394" y="268" on="1"/>
        <pt x="392" y="303" on="0"/>
        <pt x="345" y="353" on="0"/>
        <pt x="303" y="355" on="1"/>
        <pt x="271" y="355" on="0"/>
        <pt x="212" y="334" on="0"/>
        <pt x="167" y="296" on="0"/>
        <pt x="141" y="243" on="0"/>
        <pt x="141" y="212" on="1"/>
        <pt x="141" y="27" on="1"/>
        <pt x="219" y="27" on="1"/>
        <pt x="219" y="0" on="1"/>
        <pt x="35" y="0" on="1"/>
        <pt x="35" y="27" on="1"/>
        <pt x="113" y="27" on="1"/>
        <pt x="113" y="723" on="1"/>
        <pt x="40" y="723" on="1"/>
        <pt x="40" y="750" on="1"/>
        <pt x="141" y="750" on="1"/>
        <pt x="141" y="322" on="1"/>
        <pt x="138" y="277" on="1"/>
        <pt x="159" y="325" on="0"/>
        <pt x="246" y="382" on="0"/>
        <pt x="303" y="382" on="1"/>
        <pt x="357" y="382" on="0"/>
        <pt x="419" y="320" on="0"/>
        <pt x="421" y="270" on="1"/>
        <pt x="421" y="27" on="1"/>
        <pt x="499" y="27" on="1"/>
        <pt x="499" y="0" on="1"/>
        <pt x="315" y="0" on="1"/>
      </contour>
    </TTGlyph>
    <TTGlyph name="hyphen" xMin="53" yMin="177" xMax="237" yMax="204">
      <contour>
        <pt x="53" y="177" on="1"/>
        <pt x="53" y="204" on="1"/>
        <pt x="237" y="204" on="1"/>
        <pt x="237" y="177" on="1"/>
      </contour>
    </TTGlyph>
    <TTGlyph name="hyphen_" xMin="53" yMin="177" xMax="237" yMax="204">
      <contour>
        <pt x="53" y="177" on="1"/>
        <pt x="53" y="204" on="1"/>
        <pt x="237" y="204" on="1"/>
        <pt x="237" y="177" on="1"/>
      </contour>
    </TTGlyph>
    <TTGlyph name="i" xMin="35" yMin="0" xMax="219" yMax="531">
      <contour>
        <pt x="35" y="27" on="1"/>
        <pt x="115" y="27" on="1"/>
        <pt x="115" y="348" on="1"/>
        <pt x="35" y="348" on="1"/>
        <pt x="35" y="375" on="1"/>
        <pt x="142" y="375" on="1"/>
        <pt x="142" y="27" on="1"/>
        <pt x="219" y="27" on="1"/>
        <pt x="219" y="0" on="1"/>
        <pt x="35" y="0" on="1"/>
      </contour>
      <contour>
        <pt x="102" y="504" on="1"/>
        <pt x="102" y="515" on="0"/>
        <pt x="118" y="531" on="0"/>
        <pt x="129" y="531" on="1"/>
        <pt x="140" y="531" on="0"/>
        <pt x="155" y="515" on="0"/>
        <pt x="155" y="504" on="1"/>
        <pt x="155" y="493" on="0"/>
        <pt x="140" y="478" on="0"/>
        <pt x="129" y="478" on="1"/>
        <pt x="118" y="478" on="0"/>
        <pt x="102" y="493" on="0"/>
      </contour>
    </TTGlyph>
    <TTGlyph name="iacute" xMin="35" yMin="0" xMax="238" yMax="612">
      <contour>
        <pt x="35" y="27" on="1"/>
        <pt x="115" y="27" on="1"/>
        <pt x="115" y="348" on="1"/>
        <pt x="35" y="348" on="1"/>
        <pt x="35" y="375" on="1"/>
        <pt x="142" y="375" on="1"/>
        <pt x="142" y="27" on="1"/>
        <pt x="219" y="27" on="1"/>
        <pt x="219" y="0" on="1"/>
        <pt x="35" y="0" on="1"/>
      </contour>
      <contour>
        <pt x="118" y="479" on="1"/>
        <pt x="141" y="512" on="0"/>
        <pt x="185" y="579" on="0"/>
        <pt x="208" y="612" on="1"/>
        <pt x="238" y="612" on="1"/>
        <pt x="214" y="579" on="0"/>
        <pt x="166" y="512" on="0"/>
        <pt x="143" y="479" on="1"/>
      </contour>
    </TTGlyph>
    <TTGlyph name="icircumflex" xMin="9" yMin="0" xMax="249" yMax="660">
      <contour>
        <pt x="35" y="27" on="1"/>
        <pt x="115" y="27" on="1"/>
        <pt x="115" y="348" on="1"/>
        <pt x="35" y="348" on="1"/>
        <pt x="35" y="375" on="1"/>
        <pt x="142" y="375" on="1"/>
        <pt x="142" y="27" on="1"/>
        <pt x="219" y="27" on="1"/>
        <pt x="219" y="0" on="1"/>
        <pt x="35" y="0" on="1"/>
      </contour>
      <contour>
        <pt x="129" y="660" on="1"/>
        <pt x="159" y="615" on="0"/>
        <pt x="219" y="524" on="0"/>
        <pt x="249" y="479" on="1"/>
        <pt x="224" y="479" on="1"/>
        <pt x="200" y="514" on="0"/>
        <pt x="153" y="582" on="0"/>
        <pt x="129" y="617" on="1"/>
        <pt x="105" y="582" on="0"/>
        <pt x="58" y="514" on="0"/>
        <pt x="34" y="479" on="1"/>
        <pt x="9" y="479" on="1"/>
        <pt x="39" y="524" on="0"/>
        <pt x="99" y="615" on="0"/>
      </contour>
    </TTGlyph>
    <TTGlyph name="idieresis" xMin="20" yMin="0" xMax="238" yMax="531">
      <contour>
        <pt x="35" y="27" on="1"/>
        <pt x="115" y="27" on="1"/>
        <pt x="115" y="348" on="1"/>
        <pt x="35" y="348" on="1"/>
        <pt x="35" y="375" on="1"/>
        <pt x="142" y="375" on="1"/>
        <pt x="142" y="27" on="1"/>
        <pt x="219" y="27" on="1"/>
        <pt x="219" y="0" on="1"/>
        <pt x="35" y="0" on="1"/>
      </contour>
      <contour>
        <pt x="186" y="504" on="1"/>
        <pt x="186" y="515" on="0"/>
        <pt x="201" y="531" on="0"/>
        <pt x="212" y="531" on="1"/>
        <pt x="223" y="531" on="0"/>
        <pt x="238" y="515" on="0"/>
        <pt x="238" y="504" on="1"/>
        <pt x="238" y="493" on="0"/>
        <pt x="223" y="478" on="0"/>
        <pt x="212" y="478" on="1"/>
        <pt x="201" y="478" on="0"/>
        <pt x="186" y="493" on="0"/>
      </contour>
      <contour>
        <pt x="20" y="504" on="1"/>
        <pt x="20" y="515" on="0"/>
        <pt x="36" y="531" on="0"/>
        <pt x="47" y="531" on="1"/>
        <pt x="58" y="531" on="0"/>
        <pt x="73" y="515" on="0"/>
        <pt x="73" y="504" on="1"/>
        <pt x="73" y="493" on="0"/>
        <pt x="58" y="478" on="0"/>
        <pt x="47" y="478" on="1"/>
        <pt x="36" y="478" on="0"/>
        <pt x="20" y="493" on="0"/>
      </contour>
    </TTGlyph>
    <TTGlyph name="igrave" xMin="20" yMin="0" xMax="219" yMax="612">
      <contour>
        <pt x="35" y="27" on="1"/>
        <pt x="115" y="27" on="1"/>
        <pt x="115" y="348" on="1"/>
        <pt x="35" y="348" on="1"/>
        <pt x="35" y="375" on="1"/>
        <pt x="142" y="375" on="1"/>
        <pt x="142" y="27" on="1"/>
        <pt x="219" y="27" on="1"/>
        <pt x="219" y="0" on="1"/>
        <pt x="35" y="0" on="1"/>
      </contour>
      <contour>
        <pt x="49" y="612" on="1"/>
        <pt x="72" y="579" on="0"/>
        <pt x="116" y="512" on="0"/>
        <pt x="139" y="479" on="1"/>
        <pt x="115" y="479" on="1"/>
        <pt x="91" y="512" on="0"/>
        <pt x="43" y="579" on="0"/>
        <pt x="20" y="612" on="1"/>
      </contour>
    </TTGlyph>
    <TTGlyph name="j" xMin="35" yMin="-180" xMax="153" yMax="531">
      <contour>
        <pt x="35" y="375" on="1"/>
        <pt x="140" y="375" on="1"/>
        <pt x="140" y="-6" on="1"/>
        <pt x="140" y="-64" on="0"/>
        <pt x="108" y="-151" on="0"/>
        <pt x="79" y="-180" on="1"/>
        <pt x="58" y="-161" on="1"/>
        <pt x="83" y="-135" on="0"/>
        <pt x="112" y="-58" on="0"/>
        <pt x="112" y="-8" on="1"/>
        <pt x="112" y="348" on="1"/>
        <pt x="35" y="348" on="1"/>
      </contour>
      <contour>
        <pt x="101" y="504" on="1"/>
        <pt x="101" y="515" on="0"/>
        <pt x="116" y="531" on="0"/>
        <pt x="127" y="531" on="1"/>
        <pt x="138" y="531" on="0"/>
        <pt x="153" y="515" on="0"/>
        <pt x="153" y="504" on="1"/>
        <pt x="153" y="493" on="0"/>
        <pt x="138" y="478" on="0"/>
        <pt x="127" y="478" on="1"/>
        <pt x="116" y="478" on="0"/>
        <pt x="101" y="493" on="0"/>
      </contour>
    </TTGlyph>
    <TTGlyph name="k" xMin="35" yMin="0" xMax="460" yMax="750">
      <contour>
        <pt x="281" y="27" on="1"/>
        <pt x="341" y="27" on="1"/>
        <pt x="307" y="73" on="0"/>
        <pt x="238" y="165" on="0"/>
        <pt x="205" y="212" on="1"/>
        <pt x="136" y="147" on="1"/>
        <pt x="136" y="27" on="1"/>
        <pt x="219" y="27" on="1"/>
        <pt x="219" y="0" on="1"/>
        <pt x="35" y="0" on="1"/>
        <pt x="35" y="27" on="1"/>
        <pt x="108" y="27" on="1"/>
        <pt x="108" y="723" on="1"/>
        <pt x="36" y="723" on="1"/>
        <pt x="36" y="750" on="1"/>
        <pt x="136" y="750" on="1"/>
        <pt x="136" y="183" on="1"/>
        <pt x="312" y="348" on="1"/>
        <pt x="244" y="348" on="1"/>
        <pt x="244" y="375" on="1"/>
        <pt x="423" y="375" on="1"/>
        <pt x="423" y="348" on="1"/>
        <pt x="348" y="348" on="1"/>
        <pt x="314" y="316" on="0"/>
        <pt x="261" y="263" on="0"/>
        <pt x="226" y="231" on="1"/>
        <pt x="263" y="180" on="0"/>
        <pt x="337" y="78" on="0"/>
        <pt x="375" y="27" on="1"/>
        <pt x="460" y="27" on="1"/>
        <pt x="460" y="0" on="1"/>
        <pt x="281" y="0" on="1"/>
      </contour>
    </TTGlyph>
    <TTGlyph name="l" xMin="35" yMin="0" xMax="219" yMax="750">
      <contour>
        <pt x="35" y="27" on="1"/>
        <pt x="108" y="27" on="1"/>
        <pt x="108" y="723" on="1"/>
        <pt x="36" y="723" on="1"/>
        <pt x="36" y="750" on="1"/>
        <pt x="136" y="750" on="1"/>
        <pt x="136" y="27" on="1"/>
        <pt x="219" y="27" on="1"/>
        <pt x="219" y="0" on="1"/>
        <pt x="35" y="0" on="1"/>
      </contour>
    </TTGlyph>
    <TTGlyph name="less" xMin="115" yMin="-15" xMax="553" yMax="491">
      <contour>
        <pt x="553" y="21" on="1"/>
        <pt x="553" y="-15" on="1"/>
        <pt x="443" y="48" on="0"/>
        <pt x="225" y="175" on="0"/>
        <pt x="115" y="238" on="1"/>
        <pt x="225" y="301" on="0"/>
        <pt x="443" y="428" on="0"/>
        <pt x="553" y="491" on="1"/>
        <pt x="553" y="455" on="1"/>
        <pt x="458" y="401" on="0"/>
        <pt x="270" y="292" on="0"/>
        <pt x="175" y="238" on="1"/>
        <pt x="270" y="184" on="0"/>
        <pt x="458" y="75" on="0"/>
      </contour>
    </TTGlyph>
    <TTGlyph name="logicalnot" xMin="100" yMin="148" xMax="460" yMax="242">
      <contour>
        <pt x="432" y="148" on="1"/>
        <pt x="432" y="219" on="1"/>
        <pt x="100" y="219" on="1"/>
        <pt x="100" y="242" on="1"/>
        <pt x="460" y="242" on="1"/>
        <pt x="460" y="148" on="1"/>
      </contour>
    </TTGlyph>
    <TTGlyph name="m" xMin="35" yMin="0" xMax="779" yMax="382">
      <contour>
        <pt x="595" y="27" on="1"/>
        <pt x="674" y="27" on="1"/>
        <pt x="674" y="268" on="1"/>
        <pt x="672" y="303" on="0"/>
        <pt x="625" y="353" on="0"/>
        <pt x="583" y="355" on="1"/>
        <pt x="551" y="355" on="0"/>
        <pt x="494" y="334" on="0"/>
        <pt x="450" y="298" on="0"/>
        <pt x="422" y="247" on="0"/>
        <pt x="421" y="217" on="1"/>
        <pt x="421" y="27" on="1"/>
        <pt x="499" y="27" on="1"/>
        <pt x="499" y="0" on="1"/>
        <pt x="315" y="0" on="1"/>
        <pt x="315" y="27" on="1"/>
        <pt x="394" y="27" on="1"/>
        <pt x="394" y="268" on="1"/>
        <pt x="392" y="303" on="0"/>
        <pt x="345" y="353" on="0"/>
        <pt x="303" y="355" on="1"/>
        <pt x="271" y="355" on="0"/>
        <pt x="212" y="334" on="0"/>
        <pt x="167" y="296" on="0"/>
        <pt x="141" y="243" on="0"/>
        <pt x="141" y="212" on="1"/>
        <pt x="141" y="27" on="1"/>
        <pt x="219" y="27" on="1"/>
        <pt x="219" y="0" on="1"/>
        <pt x="35" y="0" on="1"/>
        <pt x="35" y="27" on="1"/>
        <pt x="113" y="27" on="1"/>
        <pt x="113" y="348" on="1"/>
        <pt x="40" y="348" on="1"/>
        <pt x="40" y="375" on="1"/>
        <pt x="134" y="375" on="1"/>
        <pt x="136" y="331" on="1"/>
        <pt x="136" y="316" on="0"/>
        <pt x="138" y="292" on="0"/>
        <pt x="138" y="277" on="1"/>
        <pt x="158" y="325" on="0"/>
        <pt x="246" y="382" on="0"/>
        <pt x="303" y="382" on="1"/>
        <pt x="353" y="382" on="0"/>
        <pt x="415" y="327" on="0"/>
        <pt x="420" y="282" on="1"/>
        <pt x="442" y="327" on="0"/>
        <pt x="528" y="382" on="0"/>
        <pt x="583" y="382" on="1"/>
        <pt x="637" y="382" on="0"/>
        <pt x="700" y="320" on="0"/>
        <pt x="702" y="270" on="1"/>
        <pt x="702" y="27" on="1"/>
        <pt x="779" y="27" on="1"/>
        <pt x="779" y="0" on="1"/>
        <pt x="595" y="0" on="1"/>
      </contour>
    </TTGlyph>
    <TTGlyph name="macron" xMin="85" yMin="489" xMax="315" yMax="511">
      <contour>
        <pt x="85" y="489" on="1"/>
        <pt x="85" y="511" on="1"/>
        <pt x="315" y="511" on="1"/>
        <pt x="315" y="489" on="1"/>
      </contour>
    </TTGlyph>
    <TTGlyph name="mu" xMin="34" yMin="-201" xMax="492" yMax="375">
      <contour>
        <pt x="314" y="375" on="1"/>
        <pt x="418" y="375" on="1"/>
        <pt x="418" y="25" on="1"/>
        <pt x="492" y="25" on="1"/>
        <pt x="492" y="0" on="1"/>
        <pt x="397" y="0" on="1"/>
        <pt x="394" y="53" on="1"/>
        <pt x="393" y="98" on="1"/>
        <pt x="373" y="50" on="0"/>
        <pt x="284" y="-7" on="0"/>
        <pt x="229" y="-7" on="1"/>
        <pt x="197" y="-7" on="0"/>
        <pt x="151" y="17" on="0"/>
        <pt x="138" y="39" on="1"/>
        <pt x="138" y="-201" on="1"/>
        <pt x="110" y="-201" on="1"/>
        <pt x="110" y="348" on="1"/>
        <pt x="34" y="348" on="1"/>
        <pt x="34" y="375" on="1"/>
        <pt x="138" y="375" on="1"/>
        <pt x="138" y="107" on="1"/>
        <pt x="140" y="72" on="0"/>
        <pt x="186" y="22" on="0"/>
        <pt x="229" y="20" on="1"/>
        <pt x="261" y="20" on="0"/>
        <pt x="320" y="41" on="0"/>
        <pt x="364" y="79" on="0"/>
        <pt x="390" y="132" on="0"/>
        <pt x="390" y="163" on="1"/>
        <pt x="390" y="348" on="1"/>
        <pt x="314" y="348" on="1"/>
      </contour>
    </TTGlyph>
    <TTGlyph name="multiply" xMin="126" yMin="0" xMax="401" yMax="275">
      <contour>
        <pt x="381" y="0" on="1"/>
        <pt x="351" y="29" on="0"/>
        <pt x="292" y="89" on="0"/>
        <pt x="263" y="118" on="1"/>
        <pt x="233" y="89" on="0"/>
        <pt x="175" y="29" on="0"/>
        <pt x="146" y="0" on="1"/>
        <pt x="135" y="9" on="0"/>
        <pt x="126" y="20" on="1"/>
        <pt x="155" y="49" on="0"/>
        <pt x="214" y="108" on="0"/>
        <pt x="243" y="138" on="1"/>
        <pt x="127" y="254" on="1"/>
        <pt x="146" y="274" on="1"/>
        <pt x="263" y="157" on="1"/>
        <pt x="292" y="187" on="0"/>
        <pt x="352" y="245" on="0"/>
        <pt x="381" y="275" on="1"/>
        <pt x="386" y="270" on="0"/>
        <pt x="395" y="260" on="0"/>
        <pt x="400" y="255" on="1"/>
        <pt x="283" y="138" on="1"/>
        <pt x="312" y="109" on="0"/>
        <pt x="371" y="49" on="0"/>
        <pt x="401" y="20" on="1"/>
      </contour>
    </TTGlyph>
    <TTGlyph name="n" xMin="35" yMin="0" xMax="499" yMax="382">
      <contour>
        <pt x="315" y="27" on="1"/>
        <pt x="394" y="27" on="1"/>
        <pt x="394" y="268" on="1"/>
        <pt x="392" y="303" on="0"/>
        <pt x="345" y="353" on="0"/>
        <pt x="303" y="355" on="1"/>
        <pt x="271" y="355" on="0"/>
        <pt x="212" y="334" on="0"/>
        <pt x="167" y="296" on="0"/>
        <pt x="141" y="243" on="0"/>
        <pt x="141" y="212" on="1"/>
        <pt x="141" y="27" on="1"/>
        <pt x="219" y="27" on="1"/>
        <pt x="219" y="0" on="1"/>
        <pt x="35" y="0" on="1"/>
        <pt x="35" y="27" on="1"/>
        <pt x="113" y="27" on="1"/>
        <pt x="113" y="348" on="1"/>
        <pt x="40" y="348" on="1"/>
        <pt x="40" y="375" on="1"/>
        <pt x="134" y="375" on="1"/>
        <pt x="136" y="331" on="1"/>
        <pt x="136" y="316" on="0"/>
        <pt x="138" y="292" on="0"/>
        <pt x="138" y="277" on="1"/>
        <pt x="158" y="325" on="0"/>
        <pt x="246" y="382" on="0"/>
        <pt x="303" y="382" on="1"/>
        <pt x="357" y="382" on="0"/>
        <pt x="419" y="320" on="0"/>
        <pt x="421" y="270" on="1"/>
        <pt x="421" y="27" on="1"/>
        <pt x="499" y="27" on="1"/>
        <pt x="499" y="0" on="1"/>
        <pt x="315" y="0" on="1"/>
      </contour>
    </TTGlyph>
    <TTGlyph name="nine" xMin="49" yMin="-8" xMax="463" yMax="634">
      <contour>
        <pt x="435" y="429" on="1"/>
        <pt x="435" y="466" on="0"/>
        <pt x="407" y="530" on="0"/>
        <pt x="359" y="578" on="0"/>
        <pt x="294" y="606" on="0"/>
        <pt x="257" y="606" on="1"/>
        <pt x="220" y="606" on="0"/>
        <pt x="154" y="578" on="0"/>
        <pt x="105" y="530" on="0"/>
        <pt x="77" y="466" on="0"/>
        <pt x="77" y="429" on="1"/>
        <pt x="77" y="392" on="0"/>
        <pt x="105" y="328" on="0"/>
        <pt x="154" y="280" on="0"/>
        <pt x="220" y="252" on="0"/>
        <pt x="257" y="252" on="1"/>
        <pt x="294" y="252" on="0"/>
        <pt x="359" y="280" on="0"/>
        <pt x="407" y="328" on="0"/>
        <pt x="435" y="392" on="0"/>
      </contour>
      <contour>
        <pt x="463" y="429" on="1"/>
        <pt x="463" y="357" on="0"/>
        <pt x="401" y="233" on="0"/>
        <pt x="304" y="125" on="0"/>
        <pt x="186" y="32" on="0"/>
        <pt x="131" y="-8" on="1"/>
        <pt x="122" y="3" on="0"/>
        <pt x="113" y="15" on="1"/>
        <pt x="233" y="95" on="0"/>
        <pt x="366" y="239" on="0"/>
        <pt x="391" y="290" on="1"/>
        <pt x="368" y="260" on="0"/>
        <pt x="298" y="225" on="0"/>
        <pt x="256" y="225" on="1"/>
        <pt x="213" y="225" on="0"/>
        <pt x="138" y="257" on="0"/>
        <pt x="82" y="313" on="0"/>
        <pt x="49" y="387" on="0"/>
        <pt x="49" y="429" on="1"/>
        <pt x="49" y="471" on="0"/>
        <pt x="82" y="546" on="0"/>
        <pt x="138" y="602" on="0"/>
        <pt x="213" y="634" on="0"/>
        <pt x="256" y="634" on="1"/>
        <pt x="299" y="634" on="0"/>
        <pt x="374" y="602" on="0"/>
        <pt x="430" y="546" on="0"/>
        <pt x="463" y="471" on="0"/>
      </contour>
    </TTGlyph>
    <TTGlyph name="ntilde" xMin="35" yMin="0" xMax="499" yMax="534">
      <component glyphName="n" x="0" y="0" flags="0x204"/>
      <component glyphName="asciitilde" x="0" y="-9" flags="0x4"/>
    </TTGlyph>
    <TTGlyph name="numbersign" xMin="28" yMin="0" xMax="507" yMax="643">
      <contour>
        <pt x="190" y="400" on="1"/>
        <pt x="185" y="361" on="0"/>
        <pt x="177" y="284" on="0"/>
        <pt x="172" y="245" on="1"/>
        <pt x="328" y="245" on="1"/>
        <pt x="333" y="284" on="0"/>
        <pt x="341" y="361" on="0"/>
        <pt x="346" y="400" on="1"/>
      </contour>
      <contour>
        <pt x="299" y="0" on="1"/>
        <pt x="306" y="55" on="0"/>
        <pt x="318" y="163" on="0"/>
        <pt x="324" y="218" on="1"/>
        <pt x="168" y="218" on="1"/>
        <pt x="162" y="163" on="0"/>
        <pt x="150" y="55" on="0"/>
        <pt x="143" y="0" on="1"/>
        <pt x="115" y="0" on="1"/>
        <pt x="122" y="55" on="0"/>
        <pt x="134" y="163" on="0"/>
        <pt x="140" y="218" on="1"/>
        <pt x="28" y="218" on="1"/>
        <pt x="31" y="245" on="1"/>
        <pt x="144" y="245" on="1"/>
        <pt x="149" y="284" on="0"/>
        <pt x="157" y="361" on="0"/>
        <pt x="162" y="400" on="1"/>
        <pt x="51" y="400" on="1"/>
        <pt x="54" y="427" on="1"/>
        <pt x="166" y="427" on="1"/>
        <pt x="172" y="481" on="0"/>
        <pt x="185" y="589" on="0"/>
        <pt x="192" y="643" on="1"/>
        <pt x="220" y="643" on="1"/>
        <pt x="213" y="589" on="0"/>
        <pt x="200" y="481" on="0"/>
        <pt x="194" y="427" on="1"/>
        <pt x="350" y="427" on="1"/>
        <pt x="356" y="481" on="0"/>
        <pt x="369" y="589" on="0"/>
        <pt x="376" y="643" on="1"/>
        <pt x="404" y="643" on="1"/>
        <pt x="397" y="589" on="0"/>
        <pt x="384" y="481" on="0"/>
        <pt x="378" y="427" on="1"/>
        <pt x="507" y="427" on="1"/>
        <pt x="504" y="400" on="1"/>
        <pt x="374" y="400" on="1"/>
        <pt x="369" y="361" on="0"/>
        <pt x="361" y="284" on="0"/>
        <pt x="356" y="245" on="1"/>
        <pt x="484" y="245" on="1"/>
        <pt x="484" y="238" on="0"/>
        <pt x="482" y="225" on="0"/>
        <pt x="481" y="218" on="1"/>
        <pt x="352" y="218" on="1"/>
        <pt x="346" y="163" on="0"/>
        <pt x="334" y="55" on="0"/>
        <pt x="327" y="0" on="1"/>
      </contour>
    </TTGlyph>
    <TTGlyph name="o" xMin="36" yMin="-7" xMax="428" yMax="384">
      <contour>
        <pt x="36" y="188" on="1"/>
        <pt x="36" y="228" on="0"/>
        <pt x="66" y="300" on="0"/>
        <pt x="119" y="353" on="0"/>
        <pt x="190" y="384" on="0"/>
        <pt x="231" y="384" on="1"/>
        <pt x="272" y="384" on="0"/>
        <pt x="344" y="353" on="0"/>
        <pt x="397" y="300" on="0"/>
        <pt x="428" y="228" on="0"/>
        <pt x="428" y="188" on="1"/>
        <pt x="428" y="147" on="0"/>
        <pt x="397" y="76" on="0"/>
        <pt x="344" y="24" on="0"/>
        <pt x="272" y="-7" on="0"/>
        <pt x="231" y="-7" on="1"/>
        <pt x="190" y="-7" on="0"/>
        <pt x="119" y="24" on="0"/>
        <pt x="66" y="76" on="0"/>
        <pt x="36" y="147" on="0"/>
      </contour>
      <contour>
        <pt x="64" y="188" on="1"/>
        <pt x="64" y="153" on="0"/>
        <pt x="90" y="92" on="0"/>
        <pt x="135" y="47" on="0"/>
        <pt x="196" y="21" on="0"/>
        <pt x="231" y="21" on="1"/>
        <pt x="265" y="21" on="0"/>
        <pt x="327" y="47" on="0"/>
        <pt x="372" y="92" on="0"/>
        <pt x="399" y="153" on="0"/>
        <pt x="399" y="188" on="1"/>
        <pt x="399" y="223" on="0"/>
        <pt x="372" y="284" on="0"/>
        <pt x="327" y="330" on="0"/>
        <pt x="265" y="356" on="0"/>
        <pt x="231" y="356" on="1"/>
        <pt x="196" y="356" on="0"/>
        <pt x="135" y="330" on="0"/>
        <pt x="90" y="284" on="0"/>
        <pt x="64" y="223" on="0"/>
      </contour>
    </TTGlyph>
    <TTGlyph name="oacute" xMin="36" yMin="-7" xMax="428" yMax="612">
      <component glyphName="o" x="0" y="0" flags="0x204"/>
      <component glyphName="acute" x="131" y="0" flags="0x4"/>
    </TTGlyph>
    <TTGlyph name="ocircumflex" xMin="36" yMin="-7" xMax="428" yMax="660">
      <component glyphName="o" x="0" y="0" flags="0x204"/>
      <component glyphName="asciicircum" x="3" y="0" flags="0x4"/>
    </TTGlyph>
    <TTGlyph name="odieresis" xMin="36" yMin="-7" xMax="428" yMax="531">
      <component glyphName="o" x="0" y="0" flags="0x204"/>
      <component glyphName="dieresis" x="50" y="0" flags="0x4"/>
    </TTGlyph>
    <TTGlyph name="ograve" xMin="36" yMin="-7" xMax="428" yMax="612">
      <component glyphName="o" x="0" y="0" flags="0x204"/>
      <component glyphName="grave" x="143" y="0" flags="0x4"/>
    </TTGlyph>
    <TTGlyph name="one" xMin="34" yMin="0" xMax="246" yMax="650">
      <contour>
        <pt x="58" y="27" on="1"/>
        <pt x="138" y="27" on="1"/>
        <pt x="138" y="623" on="1"/>
        <pt x="34" y="623" on="1"/>
        <pt x="34" y="650" on="1"/>
        <pt x="166" y="650" on="1"/>
        <pt x="166" y="27" on="1"/>
        <pt x="246" y="27" on="1"/>
        <pt x="246" y="0" on="1"/>
        <pt x="58" y="0" on="1"/>
      </contour>
    </TTGlyph>
    <TTGlyph name="onehalf" xMin="121" yMin="-19" xMax="868" yMax="735">
      <contour>
        <pt x="138" y="253" on="1"/>
        <pt x="195" y="253" on="1"/>
        <pt x="195" y="676" on="1"/>
        <pt x="121" y="676" on="1"/>
        <pt x="121" y="695" on="1"/>
        <pt x="215" y="695" on="1"/>
        <pt x="215" y="253" on="1"/>
        <pt x="272" y="253" on="1"/>
        <pt x="272" y="234" on="1"/>
        <pt x="138" y="234" on="1"/>
      </contour>
      <contour>
        <pt x="630" y="19" on="1"/>
        <pt x="849" y="19" on="1"/>
        <pt x="849" y="96" on="1"/>
        <pt x="868" y="96" on="1"/>
        <pt x="868" y="0" on="1"/>
        <pt x="581" y="0" on="1"/>
        <pt x="627" y="44" on="0"/>
        <pt x="712" y="129" on="0"/>
        <pt x="777" y="209" on="0"/>
        <pt x="817" y="284" on="0"/>
        <pt x="817" y="318" on="1"/>
        <pt x="817" y="354" on="0"/>
        <pt x="796" y="404" on="0"/>
        <pt x="763" y="434" on="0"/>
        <pt x="726" y="446" on="0"/>
        <pt x="709" y="446" on="1"/>
        <pt x="676" y="446" on="0"/>
        <pt x="632" y="422" on="0"/>
        <pt x="608" y="388" on="0"/>
        <pt x="598" y="347" on="0"/>
        <pt x="598" y="330" on="1"/>
        <pt x="598" y="281" on="0"/>
        <pt x="627" y="250" on="1"/>
        <pt x="614" y="239" on="1"/>
        <pt x="598" y="255" on="0"/>
        <pt x="579" y="301" on="0"/>
        <pt x="579" y="330" on="1"/>
        <pt x="579" y="358" on="0"/>
        <pt x="596" y="407" on="0"/>
        <pt x="629" y="444" on="0"/>
        <pt x="677" y="465" on="0"/>
        <pt x="709" y="465" on="1"/>
        <pt x="737" y="465" on="0"/>
        <pt x="784" y="444" on="0"/>
        <pt x="818" y="407" on="0"/>
        <pt x="837" y="356" on="0"/>
        <pt x="837" y="326" on="1"/>
        <pt x="837" y="286" on="0"/>
        <pt x="799" y="208" on="0"/>
        <pt x="738" y="132" on="0"/>
        <pt x="665" y="56" on="0"/>
      </contour>
      <contour>
        <pt x="287" y="-19" on="1"/>
        <pt x="357" y="171" on="0"/>
        <pt x="495" y="545" on="0"/>
        <pt x="565" y="735" on="1"/>
        <pt x="593" y="735" on="1"/>
        <pt x="523" y="545" on="0"/>
        <pt x="385" y="171" on="0"/>
        <pt x="315" y="-19" on="1"/>
      </contour>
    </TTGlyph>
    <TTGlyph name="onequarter" xMin="135" yMin="-19" xMax="845" yMax="735">
      <contour>
        <pt x="287" y="-19" on="1"/>
        <pt x="357" y="171" on="0"/>
        <pt x="495" y="545" on="0"/>
        <pt x="565" y="735" on="1"/>
        <pt x="593" y="735" on="1"/>
        <pt x="523" y="545" on="0"/>
        <pt x="385" y="171" on="0"/>
        <pt x="315" y="-19" on="1"/>
      </contour>
      <contour>
        <pt x="695" y="20" on="1"/>
        <pt x="753" y="20" on="1"/>
        <pt x="753" y="136" on="1"/>
        <pt x="501" y="136" on="1"/>
        <pt x="773" y="490" on="1"/>
        <pt x="773" y="156" on="1"/>
        <pt x="845" y="156" on="1"/>
        <pt x="845" y="136" on="1"/>
        <pt x="773" y="136" on="1"/>
        <pt x="773" y="20" on="1"/>
        <pt x="835" y="20" on="1"/>
        <pt x="835" y="0" on="1"/>
        <pt x="695" y="0" on="1"/>
      </contour>
      <contour>
        <pt x="753" y="429" on="1"/>
        <pt x="545" y="156" on="1"/>
        <pt x="753" y="156" on="1"/>
      </contour>
      <contour>
        <pt x="152" y="253" on="1"/>
        <pt x="209" y="253" on="1"/>
        <pt x="209" y="676" on="1"/>
        <pt x="135" y="676" on="1"/>
        <pt x="135" y="695" on="1"/>
        <pt x="229" y="695" on="1"/>
        <pt x="229" y="253" on="1"/>
        <pt x="285" y="253" on="1"/>
        <pt x="285" y="234" on="1"/>
        <pt x="152" y="234" on="1"/>
      </contour>
    </TTGlyph>
    <TTGlyph name="onesuperior" xMin="68" yMin="401" xMax="165" yMax="700">
      <contour>
        <pt x="79" y="413" on="1"/>
        <pt x="115" y="413" on="1"/>
        <pt x="115" y="688" on="1"/>
        <pt x="68" y="688" on="1"/>
        <pt x="68" y="700" on="1"/>
        <pt x="128" y="700" on="1"/>
        <pt x="128" y="413" on="1"/>
        <pt x="165" y="413" on="1"/>
        <pt x="165" y="401" on="1"/>
        <pt x="79" y="401" on="1"/>
      </contour>
    </TTGlyph>
    <TTGlyph name="ordfeminine" xMin="83" yMin="301" xMax="419" yMax="582">
      <contour>
        <pt x="83" y="442" on="1"/>
        <pt x="83" y="470" on="0"/>
        <pt x="105" y="522" on="0"/>
        <pt x="143" y="560" on="0"/>
        <pt x="194" y="582" on="0"/>
        <pt x="224" y="582" on="1"/>
        <pt x="246" y="582" on="0"/>
        <pt x="285" y="570" on="0"/>
        <pt x="317" y="548" on="0"/>
        <pt x="341" y="519" on="0"/>
        <pt x="347" y="504" on="1"/>
        <pt x="347" y="522" on="0"/>
        <pt x="349" y="558" on="0"/>
        <pt x="350" y="576" on="1"/>
        <pt x="365" y="576" on="1"/>
        <pt x="365" y="325" on="1"/>
        <pt x="419" y="325" on="1"/>
        <pt x="419" y="306" on="1"/>
        <pt x="347" y="306" on="1"/>
        <pt x="347" y="340" on="1"/>
        <pt x="347" y="380" on="1"/>
        <pt x="341" y="364" on="0"/>
        <pt x="318" y="335" on="0"/>
        <pt x="285" y="313" on="0"/>
        <pt x="246" y="301" on="0"/>
        <pt x="224" y="301" on="1"/>
        <pt x="194" y="301" on="0"/>
        <pt x="143" y="323" on="0"/>
        <pt x="105" y="361" on="0"/>
        <pt x="83" y="412" on="0"/>
      </contour>
      <contour>
        <pt x="103" y="442" on="1"/>
        <pt x="103" y="416" on="0"/>
        <pt x="122" y="372" on="0"/>
        <pt x="155" y="340" on="0"/>
        <pt x="199" y="321" on="0"/>
        <pt x="224" y="321" on="1"/>
        <pt x="249" y="321" on="0"/>
        <pt x="294" y="340" on="0"/>
        <pt x="327" y="372" on="0"/>
        <pt x="346" y="416" on="0"/>
        <pt x="346" y="442" on="1"/>
        <pt x="346" y="467" on="0"/>
        <pt x="327" y="511" on="0"/>
        <pt x="294" y="544" on="0"/>
        <pt x="249" y="563" on="0"/>
        <pt x="224" y="563" on="1"/>
        <pt x="199" y="563" on="0"/>
        <pt x="155" y="544" on="0"/>
        <pt x="122" y="511" on="0"/>
        <pt x="103" y="467" on="0"/>
      </contour>
    </TTGlyph>
    <TTGlyph name="ordmasculine" xMin="91" yMin="301" xMax="374" yMax="583">
      <contour>
        <pt x="91" y="442" on="1"/>
        <pt x="91" y="470" on="0"/>
        <pt x="113" y="522" on="0"/>
        <pt x="151" y="561" on="0"/>
        <pt x="202" y="583" on="0"/>
        <pt x="232" y="583" on="1"/>
        <pt x="261" y="583" on="0"/>
        <pt x="313" y="561" on="0"/>
        <pt x="351" y="522" on="0"/>
        <pt x="374" y="470" on="0"/>
        <pt x="374" y="442" on="1"/>
        <pt x="374" y="412" on="0"/>
        <pt x="351" y="361" on="0"/>
        <pt x="313" y="323" on="0"/>
        <pt x="261" y="301" on="0"/>
        <pt x="232" y="301" on="1"/>
        <pt x="202" y="301" on="0"/>
        <pt x="151" y="323" on="0"/>
        <pt x="113" y="361" on="0"/>
        <pt x="91" y="412" on="0"/>
      </contour>
      <contour>
        <pt x="111" y="442" on="1"/>
        <pt x="111" y="416" on="0"/>
        <pt x="130" y="372" on="0"/>
        <pt x="162" y="340" on="0"/>
        <pt x="206" y="321" on="0"/>
        <pt x="232" y="321" on="1"/>
        <pt x="256" y="321" on="0"/>
        <pt x="301" y="340" on="0"/>
        <pt x="333" y="372" on="0"/>
        <pt x="353" y="416" on="0"/>
        <pt x="353" y="442" on="1"/>
        <pt x="353" y="467" on="0"/>
        <pt x="333" y="511" on="0"/>
        <pt x="301" y="544" on="0"/>
        <pt x="256" y="563" on="0"/>
        <pt x="232" y="563" on="1"/>
        <pt x="206" y="563" on="0"/>
        <pt x="162" y="544" on="0"/>
        <pt x="130" y="511" on="0"/>
        <pt x="111" y="467" on="0"/>
      </contour>
    </TTGlyph>
    <TTGlyph name="oslash" xMin="35" yMin="-12" xMax="426" yMax="387">
      <contour>
        <pt x="63" y="188" on="1"/>
        <pt x="63" y="153" on="0"/>
        <pt x="88" y="94" on="0"/>
        <pt x="109" y="71" on="1"/>
        <pt x="163" y="135" on="0"/>
        <pt x="269" y="263" on="0"/>
        <pt x="323" y="327" on="1"/>
        <pt x="303" y="341" on="0"/>
        <pt x="256" y="356" on="0"/>
        <pt x="230" y="356" on="1"/>
        <pt x="195" y="356" on="0"/>
        <pt x="134" y="330" on="0"/>
        <pt x="89" y="284" on="0"/>
        <pt x="63" y="223" on="0"/>
      </contour>
      <contour>
        <pt x="230" y="21" on="1"/>
        <pt x="265" y="21" on="0"/>
        <pt x="327" y="47" on="0"/>
        <pt x="372" y="92" on="0"/>
        <pt x="398" y="153" on="0"/>
        <pt x="398" y="188" on="1"/>
        <pt x="398" y="226" on="0"/>
        <pt x="367" y="290" on="0"/>
        <pt x="341" y="313" on="1"/>
        <pt x="287" y="249" on="0"/>
        <pt x="179" y="121" on="0"/>
        <pt x="125" y="57" on="1"/>
        <pt x="170" y="21" on="0"/>
      </contour>
      <contour>
        <pt x="35" y="188" on="1"/>
        <pt x="35" y="228" on="0"/>
        <pt x="66" y="300" on="0"/>
        <pt x="118" y="352" on="0"/>
        <pt x="189" y="383" on="0"/>
        <pt x="230" y="383" on="1"/>
        <pt x="262" y="383" on="0"/>
        <pt x="319" y="365" on="0"/>
        <pt x="342" y="348" on="1"/>
        <pt x="350" y="358" on="0"/>
        <pt x="366" y="377" on="0"/>
        <pt x="374" y="387" on="1"/>
        <pt x="379" y="383" on="0"/>
        <pt x="386" y="376" on="0"/>
        <pt x="391" y="372" on="1"/>
        <pt x="383" y="363" on="0"/>
        <pt x="367" y="344" on="0"/>
        <pt x="359" y="335" on="1"/>
        <pt x="390" y="309" on="0"/>
        <pt x="426" y="232" on="0"/>
        <pt x="426" y="188" on="1"/>
        <pt x="426" y="147" on="0"/>
        <pt x="395" y="76" on="0"/>
        <pt x="342" y="24" on="0"/>
        <pt x="271" y="-7" on="0"/>
        <pt x="230" y="-7" on="1"/>
        <pt x="195" y="-7" on="0"/>
        <pt x="133" y="16" on="0"/>
        <pt x="108" y="36" on="1"/>
        <pt x="97" y="24" on="0"/>
        <pt x="78" y="0" on="0"/>
        <pt x="68" y="-12" on="1"/>
        <pt x="64" y="-8" on="0"/>
        <pt x="56" y="-2" on="0"/>
        <pt x="52" y="2" on="1"/>
        <pt x="62" y="15" on="0"/>
        <pt x="81" y="38" on="0"/>
        <pt x="91" y="50" on="1"/>
        <pt x="65" y="76" on="0"/>
        <pt x="35" y="147" on="0"/>
      </contour>
    </TTGlyph>
    <TTGlyph name="otilde" xMin="36" yMin="-7" xMax="428" yMax="543">
      <component glyphName="o" x="0" y="0" flags="0x204"/>
      <component glyphName="asciitilde" x="-34" y="0" flags="0x4"/>
    </TTGlyph>
    <TTGlyph name="p" xMin="35" yMin="-250" xMax="500" yMax="382">
      <contour>
        <pt x="43" y="-223" on="1"/>
        <pt x="109" y="-223" on="1"/>
        <pt x="109" y="348" on="1"/>
        <pt x="35" y="348" on="1"/>
        <pt x="35" y="375" on="1"/>
        <pt x="131" y="375" on="1"/>
        <pt x="131" y="349" on="0"/>
        <pt x="133" y="297" on="0"/>
        <pt x="134" y="271" on="1"/>
        <pt x="143" y="293" on="0"/>
        <pt x="176" y="334" on="0"/>
        <pt x="221" y="364" on="0"/>
        <pt x="275" y="382" on="0"/>
        <pt x="305" y="382" on="1"/>
        <pt x="346" y="382" on="0"/>
        <pt x="417" y="351" on="0"/>
        <pt x="470" y="299" on="0"/>
        <pt x="500" y="227" on="0"/>
        <pt x="500" y="187" on="1"/>
        <pt x="500" y="146" on="0"/>
        <pt x="470" y="75" on="0"/>
        <pt x="417" y="23" on="0"/>
        <pt x="346" y="-8" on="0"/>
        <pt x="305" y="-8" on="1"/>
        <pt x="244" y="-8" on="0"/>
        <pt x="153" y="55" on="0"/>
        <pt x="135" y="100" on="1"/>
        <pt x="135" y="88" on="0"/>
        <pt x="137" y="64" on="0"/>
        <pt x="137" y="53" on="1"/>
        <pt x="137" y="-223" on="1"/>
        <pt x="226" y="-223" on="1"/>
        <pt x="226" y="-250" on="1"/>
        <pt x="43" y="-250" on="1"/>
      </contour>
      <contour>
        <pt x="472" y="187" on="1"/>
        <pt x="472" y="222" on="0"/>
        <pt x="446" y="283" on="0"/>
        <pt x="401" y="328" on="0"/>
        <pt x="340" y="354" on="0"/>
        <pt x="305" y="354" on="1"/>
        <pt x="270" y="354" on="0"/>
        <pt x="208" y="328" on="0"/>
        <pt x="163" y="283" on="0"/>
        <pt x="137" y="222" on="0"/>
        <pt x="137" y="187" on="1"/>
        <pt x="137" y="152" on="0"/>
        <pt x="163" y="91" on="0"/>
        <pt x="208" y="45" on="0"/>
        <pt x="270" y="19" on="0"/>
        <pt x="305" y="19" on="1"/>
        <pt x="340" y="19" on="0"/>
        <pt x="401" y="45" on="0"/>
        <pt x="446" y="91" on="0"/>
        <pt x="472" y="152" on="0"/>
      </contour>
    </TTGlyph>
    <TTGlyph name="paragraph" xMin="38" yMin="0" xMax="492" yMax="750">
      <contour>
        <pt x="229" y="0" on="1"/>
        <pt x="201" y="0" on="1"/>
        <pt x="201" y="423" on="1"/>
        <pt x="167" y="423" on="0"/>
        <pt x="107" y="448" on="0"/>
        <pt x="63" y="492" on="0"/>
        <pt x="38" y="552" on="0"/>
        <pt x="38" y="586" on="1"/>
        <pt x="38" y="620" on="0"/>
        <pt x="63" y="680" on="0"/>
        <pt x="107" y="724" on="0"/>
        <pt x="167" y="750" on="0"/>
        <pt x="201" y="750" on="1"/>
        <pt x="492" y="750" on="1"/>
        <pt x="492" y="725" on="1"/>
        <pt x="392" y="725" on="1"/>
        <pt x="392" y="25" on="1"/>
        <pt x="492" y="25" on="1"/>
        <pt x="492" y="0" on="1"/>
        <pt x="364" y="0" on="1"/>
        <pt x="364" y="725" on="1"/>
        <pt x="229" y="725" on="1"/>
      </contour>
    </TTGlyph>
    <TTGlyph name="parenleft" xMin="141" yMin="-163" xMax="323" yMax="747">
      <contour>
        <pt x="141" y="292" on="1"/>
        <pt x="141" y="367" on="0"/>
        <pt x="169" y="503" on="0"/>
        <pt x="215" y="619" on="0"/>
        <pt x="274" y="714" on="0"/>
        <pt x="306" y="747" on="1"/>
        <pt x="310" y="741" on="0"/>
        <pt x="318" y="730" on="0"/>
        <pt x="323" y="724" on="1"/>
        <pt x="294" y="691" on="0"/>
        <pt x="239" y="601" on="0"/>
        <pt x="195" y="491" on="0"/>
        <pt x="169" y="363" on="0"/>
        <pt x="169" y="292" on="1"/>
        <pt x="169" y="221" on="0"/>
        <pt x="195" y="93" on="0"/>
        <pt x="239" y="-17" on="0"/>
        <pt x="294" y="-107" on="0"/>
        <pt x="323" y="-140" on="1"/>
        <pt x="318" y="-146" on="0"/>
        <pt x="310" y="-157" on="0"/>
        <pt x="306" y="-163" on="1"/>
        <pt x="274" y="-130" on="0"/>
        <pt x="215" y="-35" on="0"/>
        <pt x="169" y="81" on="0"/>
        <pt x="141" y="217" on="0"/>
      </contour>
    </TTGlyph>
    <TTGlyph name="parenright" xMin="104" yMin="-164" xMax="286" yMax="746">
      <contour>
        <pt x="286" y="291" on="1"/>
        <pt x="286" y="216" on="0"/>
        <pt x="258" y="80" on="0"/>
        <pt x="212" y="-36" on="0"/>
        <pt x="152" y="-131" on="0"/>
        <pt x="121" y="-164" on="1"/>
        <pt x="116" y="-158" on="0"/>
        <pt x="108" y="-147" on="0"/>
        <pt x="104" y="-141" on="1"/>
        <pt x="133" y="-108" on="0"/>
        <pt x="188" y="-18" on="0"/>
        <pt x="232" y="92" on="0"/>
        <pt x="258" y="220" on="0"/>
        <pt x="258" y="291" on="1"/>
        <pt x="258" y="362" on="0"/>
        <pt x="232" y="490" on="0"/>
        <pt x="188" y="600" on="0"/>
        <pt x="133" y="690" on="0"/>
        <pt x="104" y="723" on="1"/>
        <pt x="108" y="729" on="0"/>
        <pt x="116" y="740" on="0"/>
        <pt x="121" y="746" on="1"/>
        <pt x="152" y="713" on="0"/>
        <pt x="212" y="618" on="0"/>
        <pt x="258" y="502" on="0"/>
        <pt x="286" y="366" on="0"/>
      </contour>
    </TTGlyph>
    <TTGlyph name="percent" xMin="104" yMin="0" xMax="636" yMax="501">
      <contour>
        <pt x="436" y="112" on="1"/>
        <pt x="436" y="77" on="0"/>
        <pt x="486" y="27" on="0"/>
        <pt x="522" y="27" on="1"/>
        <pt x="558" y="27" on="0"/>
        <pt x="608" y="77" on="0"/>
        <pt x="608" y="112" on="1"/>
        <pt x="608" y="147" on="0"/>
        <pt x="558" y="197" on="0"/>
        <pt x="522" y="197" on="1"/>
        <pt x="486" y="197" on="0"/>
        <pt x="436" y="147" on="0"/>
      </contour>
      <contour>
        <pt x="522" y="0" on="1"/>
        <pt x="499" y="0" on="0"/>
        <pt x="457" y="18" on="0"/>
        <pt x="426" y="48" on="0"/>
        <pt x="408" y="89" on="0"/>
        <pt x="408" y="113" on="1"/>
        <pt x="408" y="136" on="0"/>
        <pt x="426" y="177" on="0"/>
        <pt x="457" y="207" on="0"/>
        <pt x="499" y="224" on="0"/>
        <pt x="522" y="224" on="1"/>
        <pt x="545" y="224" on="0"/>
        <pt x="586" y="207" on="0"/>
        <pt x="618" y="177" on="0"/>
        <pt x="636" y="136" on="0"/>
        <pt x="636" y="113" on="1"/>
        <pt x="636" y="89" on="0"/>
        <pt x="618" y="48" on="0"/>
        <pt x="586" y="18" on="0"/>
        <pt x="545" y="0" on="0"/>
      </contour>
      <contour>
        <pt x="132" y="388" on="1"/>
        <pt x="132" y="353" on="0"/>
        <pt x="182" y="304" on="0"/>
        <pt x="218" y="304" on="1"/>
        <pt x="254" y="304" on="0"/>
        <pt x="304" y="353" on="0"/>
        <pt x="304" y="388" on="1"/>
        <pt x="304" y="423" on="0"/>
        <pt x="254" y="473" on="0"/>
        <pt x="218" y="473" on="1"/>
        <pt x="182" y="473" on="0"/>
        <pt x="132" y="423" on="0"/>
      </contour>
      <contour>
        <pt x="218" y="276" on="1"/>
        <pt x="195" y="276" on="0"/>
        <pt x="153" y="294" on="0"/>
        <pt x="122" y="324" on="0"/>
        <pt x="104" y="365" on="0"/>
        <pt x="104" y="389" on="1"/>
        <pt x="104" y="412" on="0"/>
        <pt x="122" y="453" on="0"/>
        <pt x="153" y="483" on="0"/>
        <pt x="195" y="501" on="0"/>
        <pt x="218" y="501" on="1"/>
        <pt x="241" y="501" on="0"/>
        <pt x="282" y="483" on="0"/>
        <pt x="314" y="453" on="0"/>
        <pt x="332" y="412" on="0"/>
        <pt x="332" y="389" on="1"/>
        <pt x="332" y="365" on="0"/>
        <pt x="314" y="324" on="0"/>
        <pt x="282" y="294" on="0"/>
        <pt x="241" y="276" on="0"/>
      </contour>
      <contour>
        <pt x="201" y="0" on="1"/>
        <pt x="276" y="126" on="0"/>
        <pt x="424" y="374" on="0"/>
        <pt x="499" y="500" on="1"/>
        <pt x="530" y="500" on="1"/>
        <pt x="455" y="374" on="0"/>
        <pt x="307" y="126" on="0"/>
        <pt x="232" y="0" on="1"/>
      </contour>
    </TTGlyph>
    <TTGlyph name="period" xMin="59" yMin="0" xMax="112" yMax="53">
      <contour>
        <pt x="59" y="26" on="1"/>
        <pt x="59" y="37" on="0"/>
        <pt x="75" y="53" on="0"/>
        <pt x="86" y="53" on="1"/>
        <pt x="97" y="53" on="0"/>
        <pt x="112" y="37" on="0"/>
        <pt x="112" y="26" on="1"/>
        <pt x="112" y="15" on="0"/>
        <pt x="97" y="0" on="0"/>
        <pt x="86" y="0" on="1"/>
        <pt x="75" y="0" on="0"/>
        <pt x="59" y="15" on="0"/>
      </contour>
    </TTGlyph>
    <TTGlyph name="periodcentered" xMin="59" yMin="254" xMax="112" yMax="307">
      <component glyphName="period" x="0" y="254" flags="0x4"/>
    </TTGlyph>
    <TTGlyph name="plus" xMin="86" yMin="51" xMax="446" yMax="411">
      <contour>
        <pt x="252" y="51" on="1"/>
        <pt x="252" y="218" on="1"/>
        <pt x="86" y="218" on="1"/>
        <pt x="86" y="245" on="1"/>
        <pt x="252" y="245" on="1"/>
        <pt x="252" y="411" on="1"/>
        <pt x="280" y="411" on="1"/>
        <pt x="280" y="245" on="1"/>
        <pt x="446" y="245" on="1"/>
        <pt x="446" y="218" on="1"/>
        <pt x="280" y="218" on="1"/>
        <pt x="280" y="51" on="1"/>
      </contour>
    </TTGlyph>
    <TTGlyph name="plusminus" xMin="86" yMin="129" xMax="446" yMax="571">
      <contour>
        <pt x="252" y="211" on="1"/>
        <pt x="252" y="378" on="1"/>
        <pt x="86" y="378" on="1"/>
        <pt x="86" y="405" on="1"/>
        <pt x="252" y="405" on="1"/>
        <pt x="252" y="571" on="1"/>
        <pt x="280" y="571" on="1"/>
        <pt x="280" y="405" on="1"/>
        <pt x="446" y="405" on="1"/>
        <pt x="446" y="378" on="1"/>
        <pt x="280" y="378" on="1"/>
        <pt x="280" y="211" on="1"/>
      </contour>
      <contour>
        <pt x="446" y="129" on="1"/>
        <pt x="86" y="129" on="1"/>
        <pt x="86" y="156" on="1"/>
        <pt x="446" y="156" on="1"/>
      </contour>
    </TTGlyph>
    <TTGlyph name="q" xMin="35" yMin="-250" xMax="501" yMax="382">
      <contour>
        <pt x="312" y="-223" on="1"/>
        <pt x="398" y="-223" on="1"/>
        <pt x="398" y="53" on="1"/>
        <pt x="398" y="64" on="0"/>
        <pt x="400" y="88" on="0"/>
        <pt x="400" y="100" on="1"/>
        <pt x="382" y="55" on="0"/>
        <pt x="291" y="-8" on="0"/>
        <pt x="230" y="-8" on="1"/>
        <pt x="189" y="-8" on="0"/>
        <pt x="118" y="23" on="0"/>
        <pt x="65" y="75" on="0"/>
        <pt x="35" y="146" on="0"/>
        <pt x="35" y="187" on="1"/>
        <pt x="35" y="227" on="0"/>
        <pt x="65" y="299" on="0"/>
        <pt x="118" y="351" on="0"/>
        <pt x="189" y="382" on="0"/>
        <pt x="230" y="382" on="1"/>
        <pt x="260" y="382" on="0"/>
        <pt x="315" y="364" on="0"/>
        <pt x="360" y="334" on="0"/>
        <pt x="392" y="293" on="0"/>
        <pt x="401" y="271" on="1"/>
        <pt x="401" y="297" on="0"/>
        <pt x="405" y="349" on="0"/>
        <pt x="405" y="375" on="1"/>
        <pt x="501" y="375" on="1"/>
        <pt x="501" y="348" on="1"/>
        <pt x="426" y="348" on="1"/>
        <pt x="426" y="-223" on="1"/>
        <pt x="496" y="-223" on="1"/>
        <pt x="496" y="-250" on="1"/>
        <pt x="312" y="-250" on="1"/>
      </contour>
      <contour>
        <pt x="63" y="187" on="1"/>
        <pt x="63" y="152" on="0"/>
        <pt x="89" y="91" on="0"/>
        <pt x="134" y="45" on="0"/>
        <pt x="195" y="19" on="0"/>
        <pt x="230" y="19" on="1"/>
        <pt x="265" y="19" on="0"/>
        <pt x="327" y="45" on="0"/>
        <pt x="373" y="91" on="0"/>
        <pt x="399" y="152" on="0"/>
        <pt x="399" y="187" on="1"/>
        <pt x="399" y="222" on="0"/>
        <pt x="373" y="283" on="0"/>
        <pt x="327" y="328" on="0"/>
        <pt x="265" y="354" on="0"/>
        <pt x="230" y="354" on="1"/>
        <pt x="195" y="354" on="0"/>
        <pt x="134" y="328" on="0"/>
        <pt x="89" y="283" on="0"/>
        <pt x="63" y="222" on="0"/>
      </contour>
    </TTGlyph>
    <TTGlyph name="question" xMin="33" yMin="20" xMax="417" yMax="732">
      <contour>
        <pt x="58" y="587" on="1"/>
        <pt x="52" y="589" on="0"/>
        <pt x="39" y="593" on="0"/>
        <pt x="33" y="595" on="1"/>
        <pt x="42" y="622" on="0"/>
        <pt x="76" y="672" on="0"/>
        <pt x="124" y="710" on="0"/>
        <pt x="185" y="732" on="0"/>
        <pt x="221" y="732" on="1"/>
        <pt x="262" y="732" on="0"/>
        <pt x="334" y="701" on="0"/>
        <pt x="387" y="648" on="0"/>
        <pt x="417" y="577" on="0"/>
        <pt x="417" y="537" on="1"/>
        <pt x="417" y="483" on="0"/>
        <pt x="364" y="401" on="0"/>
        <pt x="319" y="369" on="1"/>
        <pt x="301" y="355" on="0"/>
        <pt x="267" y="336" on="0"/>
        <pt x="242" y="311" on="0"/>
        <pt x="227" y="274" on="0"/>
        <pt x="227" y="242" on="1"/>
        <pt x="227" y="164" on="1"/>
        <pt x="199" y="164" on="1"/>
        <pt x="199" y="261" on="1"/>
        <pt x="199" y="292" on="0"/>
        <pt x="221" y="330" on="0"/>
        <pt x="258" y="360" on="0"/>
        <pt x="304" y="387" on="0"/>
        <pt x="328" y="408" on="1"/>
        <pt x="360" y="435" on="0"/>
        <pt x="389" y="500" on="0"/>
        <pt x="389" y="537" on="1"/>
        <pt x="389" y="573" on="0"/>
        <pt x="363" y="634" on="0"/>
        <pt x="318" y="679" on="0"/>
        <pt x="257" y="705" on="0"/>
        <pt x="221" y="705" on="1"/>
        <pt x="162" y="705" on="0"/>
        <pt x="75" y="641" on="0"/>
      </contour>
      <contour>
        <pt x="213" y="20" on="1"/>
        <pt x="203" y="20" on="0"/>
        <pt x="187" y="35" on="0"/>
        <pt x="187" y="46" on="1"/>
        <pt x="187" y="58" on="0"/>
        <pt x="203" y="73" on="0"/>
        <pt x="213" y="73" on="1"/>
        <pt x="223" y="73" on="0"/>
        <pt x="239" y="58" on="0"/>
        <pt x="239" y="46" on="1"/>
        <pt x="239" y="35" on="0"/>
        <pt x="223" y="20" on="0"/>
      </contour>
    </TTGlyph>
    <TTGlyph name="questiondown" xMin="36" yMin="-193" xMax="420" yMax="519">
      <component glyphName="question" x="453" y="539" scale="-0.999877929688" flags="0x4"/>
    </TTGlyph>
    <TTGlyph name="quotedbl" xMin="63" yMin="472" xMax="227" yMax="720">
      <contour>
        <pt x="196" y="472" on="1"/>
        <pt x="196" y="720" on="1"/>
        <pt x="227" y="720" on="1"/>
        <pt x="226" y="657" on="0"/>
        <pt x="224" y="535" on="0"/>
        <pt x="223" y="472" on="1"/>
      </contour>
      <contour>
        <pt x="63" y="472" on="1"/>
        <pt x="63" y="720" on="1"/>
        <pt x="94" y="720" on="1"/>
        <pt x="93" y="657" on="0"/>
        <pt x="91" y="535" on="0"/>
        <pt x="90" y="472" on="1"/>
      </contour>
    </TTGlyph>
    <TTGlyph name="quotedblbase" xMin="20" yMin="-48" xMax="190" yMax="92">
      <contour>
        <pt x="33" y="-48" on="1"/>
        <pt x="29" y="-43" on="0"/>
        <pt x="23" y="-34" on="0"/>
        <pt x="20" y="-29" on="1"/>
        <pt x="41" y="-9" on="0"/>
        <pt x="60" y="50" on="0"/>
        <pt x="53" y="85" on="1"/>
        <pt x="59" y="87" on="0"/>
        <pt x="72" y="90" on="0"/>
        <pt x="78" y="92" on="1"/>
        <pt x="86" y="52" on="0"/>
        <pt x="62" y="-22" on="0"/>
      </contour>
      <contour>
        <pt x="137" y="-48" on="1"/>
        <pt x="133" y="-43" on="0"/>
        <pt x="127" y="-34" on="0"/>
        <pt x="124" y="-29" on="1"/>
        <pt x="145" y="-9" on="0"/>
        <pt x="164" y="50" on="0"/>
        <pt x="157" y="85" on="1"/>
        <pt x="163" y="87" on="0"/>
        <pt x="176" y="90" on="0"/>
        <pt x="182" y="92" on="1"/>
        <pt x="190" y="52" on="0"/>
        <pt x="166" y="-22" on="0"/>
      </contour>
    </TTGlyph>
    <TTGlyph name="quotedblleft" xMin="23" yMin="571" xMax="194" yMax="711">
      <contour>
        <pt x="194" y="590" on="1"/>
        <pt x="190" y="585" on="0"/>
        <pt x="184" y="576" on="0"/>
        <pt x="181" y="571" on="1"/>
        <pt x="152" y="597" on="0"/>
        <pt x="127" y="671" on="0"/>
        <pt x="135" y="711" on="1"/>
        <pt x="141" y="709" on="0"/>
        <pt x="154" y="706" on="0"/>
        <pt x="161" y="704" on="1"/>
        <pt x="154" y="669" on="0"/>
        <pt x="173" y="610" on="0"/>
      </contour>
      <contour>
        <pt x="90" y="590" on="1"/>
        <pt x="86" y="585" on="0"/>
        <pt x="80" y="576" on="0"/>
        <pt x="77" y="571" on="1"/>
        <pt x="48" y="597" on="0"/>
        <pt x="23" y="671" on="0"/>
        <pt x="31" y="711" on="1"/>
        <pt x="37" y="709" on="0"/>
        <pt x="50" y="706" on="0"/>
        <pt x="57" y="704" on="1"/>
        <pt x="50" y="669" on="0"/>
        <pt x="69" y="610" on="0"/>
      </contour>
    </TTGlyph>
    <TTGlyph name="quotedblright" xMin="37" yMin="571" xMax="208" yMax="711">
      <contour>
        <pt x="50" y="571" on="1"/>
        <pt x="47" y="576" on="0"/>
        <pt x="41" y="585" on="0"/>
        <pt x="37" y="590" on="1"/>
        <pt x="58" y="610" on="0"/>
        <pt x="77" y="669" on="0"/>
        <pt x="70" y="704" on="1"/>
        <pt x="77" y="706" on="0"/>
        <pt x="90" y="709" on="0"/>
        <pt x="96" y="711" on="1"/>
        <pt x="104" y="671" on="0"/>
        <pt x="79" y="597" on="0"/>
      </contour>
      <contour>
        <pt x="154" y="571" on="1"/>
        <pt x="151" y="576" on="0"/>
        <pt x="145" y="585" on="0"/>
        <pt x="141" y="590" on="1"/>
        <pt x="162" y="610" on="0"/>
        <pt x="181" y="669" on="0"/>
        <pt x="174" y="704" on="1"/>
        <pt x="181" y="706" on="0"/>
        <pt x="194" y="709" on="0"/>
        <pt x="200" y="711" on="1"/>
        <pt x="208" y="671" on="0"/>
        <pt x="183" y="597" on="0"/>
      </contour>
    </TTGlyph>
    <TTGlyph name="quoteleft" xMin="30" yMin="571" xMax="97" yMax="711">
      <contour>
        <pt x="97" y="590" on="1"/>
        <pt x="93" y="585" on="0"/>
        <pt x="87" y="576" on="0"/>
        <pt x="84" y="571" on="1"/>
        <pt x="55" y="597" on="0"/>
        <pt x="30" y="671" on="0"/>
        <pt x="38" y="711" on="1"/>
        <pt x="44" y="709" on="0"/>
        <pt x="58" y="706" on="0"/>
        <pt x="64" y="704" on="1"/>
        <pt x="57" y="669" on="0"/>
        <pt x="76" y="610" on="0"/>
      </contour>
    </TTGlyph>
    <TTGlyph name="quoteright" xMin="54" yMin="571" xMax="121" yMax="711">
      <contour>
        <pt x="67" y="571" on="1"/>
        <pt x="64" y="576" on="0"/>
        <pt x="58" y="585" on="0"/>
        <pt x="54" y="590" on="1"/>
        <pt x="75" y="610" on="0"/>
        <pt x="94" y="669" on="0"/>
        <pt x="87" y="704" on="1"/>
        <pt x="93" y="706" on="0"/>
        <pt x="107" y="709" on="0"/>
        <pt x="113" y="711" on="1"/>
        <pt x="121" y="671" on="0"/>
        <pt x="96" y="597" on="0"/>
      </contour>
    </TTGlyph>
    <TTGlyph name="quotesinglbase" xMin="20" yMin="-48" xMax="86" yMax="92">
      <contour>
        <pt x="33" y="-48" on="1"/>
        <pt x="29" y="-43" on="0"/>
        <pt x="23" y="-34" on="0"/>
        <pt x="20" y="-29" on="1"/>
        <pt x="41" y="-9" on="0"/>
        <pt x="60" y="50" on="0"/>
        <pt x="53" y="85" on="1"/>
        <pt x="59" y="87" on="0"/>
        <pt x="72" y="90" on="0"/>
        <pt x="78" y="92" on="1"/>
        <pt x="86" y="52" on="0"/>
        <pt x="62" y="-22" on="0"/>
      </contour>
    </TTGlyph>
    <TTGlyph name="quotesingle" xMin="62" yMin="472" xMax="93" yMax="720">
      <contour>
        <pt x="62" y="472" on="1"/>
        <pt x="62" y="720" on="1"/>
        <pt x="93" y="720" on="1"/>
        <pt x="92" y="657" on="0"/>
        <pt x="90" y="535" on="0"/>
        <pt x="89" y="472" on="1"/>
      </contour>
    </TTGlyph>
    <TTGlyph name="r" xMin="35" yMin="0" xMax="300" yMax="382">
      <contour>
        <pt x="35" y="27" on="1"/>
        <pt x="113" y="27" on="1"/>
        <pt x="113" y="348" on="1"/>
        <pt x="40" y="348" on="1"/>
        <pt x="40" y="375" on="1"/>
        <pt x="134" y="375" on="1"/>
        <pt x="136" y="331" on="1"/>
        <pt x="136" y="316" on="0"/>
        <pt x="138" y="292" on="0"/>
        <pt x="138" y="277" on="1"/>
        <pt x="160" y="326" on="0"/>
        <pt x="249" y="381" on="0"/>
        <pt x="300" y="382" on="1"/>
        <pt x="299" y="355" on="1"/>
        <pt x="267" y="354" on="0"/>
        <pt x="209" y="332" on="0"/>
        <pt x="166" y="294" on="0"/>
        <pt x="141" y="242" on="0"/>
        <pt x="141" y="212" on="1"/>
        <pt x="141" y="27" on="1"/>
        <pt x="219" y="27" on="1"/>
        <pt x="219" y="0" on="1"/>
        <pt x="35" y="0" on="1"/>
      </contour>
    </TTGlyph>
    <TTGlyph name="registered" xMin="143" yMin="117" xMax="657" yMax="628">
      <contour>
        <pt x="399" y="135" on="1"/>
        <pt x="448" y="135" on="0"/>
        <pt x="535" y="171" on="0"/>
        <pt x="600" y="234" on="0"/>
        <pt x="637" y="321" on="0"/>
        <pt x="637" y="371" on="1"/>
        <pt x="637" y="423" on="0"/>
        <pt x="600" y="510" on="0"/>
        <pt x="535" y="574" on="0"/>
        <pt x="448" y="610" on="0"/>
        <pt x="399" y="610" on="1"/>
        <pt x="350" y="610" on="0"/>
        <pt x="264" y="574" on="0"/>
        <pt x="200" y="510" on="0"/>
        <pt x="163" y="423" on="0"/>
        <pt x="163" y="371" on="1"/>
        <pt x="163" y="321" on="0"/>
        <pt x="200" y="234" on="0"/>
        <pt x="264" y="171" on="0"/>
        <pt x="350" y="135" on="0"/>
      </contour>
      <contour>
        <pt x="400" y="117" on="1"/>
        <pt x="346" y="117" on="0"/>
        <pt x="252" y="155" on="0"/>
        <pt x="183" y="223" on="0"/>
        <pt x="143" y="317" on="0"/>
        <pt x="143" y="372" on="1"/>
        <pt x="143" y="427" on="0"/>
        <pt x="183" y="521" on="0"/>
        <pt x="252" y="590" on="0"/>
        <pt x="346" y="628" on="0"/>
        <pt x="400" y="628" on="1"/>
        <pt x="454" y="628" on="0"/>
        <pt x="548" y="590" on="0"/>
        <pt x="617" y="521" on="0"/>
        <pt x="657" y="427" on="0"/>
        <pt x="657" y="372" on="1"/>
        <pt x="657" y="317" on="0"/>
        <pt x="617" y="223" on="0"/>
        <pt x="548" y="155" on="0"/>
        <pt x="454" y="117" on="0"/>
      </contour>
      <contour>
        <pt x="311" y="223" on="1"/>
        <pt x="342" y="223" on="1"/>
        <pt x="342" y="528" on="1"/>
        <pt x="311" y="528" on="1"/>
        <pt x="311" y="541" on="1"/>
        <pt x="410" y="541" on="1"/>
        <pt x="424" y="541" on="0"/>
        <pt x="458" y="532" on="0"/>
        <pt x="488" y="511" on="0"/>
        <pt x="508" y="479" on="0"/>
        <pt x="508" y="456" on="1"/>
        <pt x="508" y="422" on="0"/>
        <pt x="472" y="378" on="0"/>
        <pt x="437" y="371" on="1"/>
        <pt x="506" y="223" on="1"/>
        <pt x="547" y="223" on="1"/>
        <pt x="547" y="210" on="1"/>
        <pt x="499" y="210" on="1"/>
        <pt x="423" y="370" on="1"/>
        <pt x="418" y="369" on="0"/>
        <pt x="406" y="368" on="0"/>
        <pt x="401" y="368" on="1"/>
        <pt x="355" y="368" on="1"/>
        <pt x="355" y="223" on="1"/>
        <pt x="399" y="223" on="1"/>
        <pt x="399" y="210" on="1"/>
        <pt x="311" y="210" on="1"/>
      </contour>
      <contour>
        <pt x="355" y="381" on="1"/>
        <pt x="406" y="381" on="1"/>
        <pt x="432" y="381" on="0"/>
        <pt x="467" y="395" on="0"/>
        <pt x="487" y="418" on="0"/>
        <pt x="495" y="444" on="0"/>
        <pt x="495" y="456" on="1"/>
        <pt x="495" y="485" on="0"/>
        <pt x="445" y="528" on="0"/>
        <pt x="407" y="528" on="1"/>
        <pt x="355" y="528" on="1"/>
      </contour>
    </TTGlyph>
    <TTGlyph name="s" xMin="53" yMin="-8" xMax="287" yMax="380">
      <contour>
        <pt x="79" y="97" on="1"/>
        <pt x="79" y="42" on="1"/>
        <pt x="100" y="27" on="0"/>
        <pt x="149" y="19" on="0"/>
        <pt x="172" y="19" on="1"/>
        <pt x="184" y="19" on="0"/>
        <pt x="214" y="29" on="0"/>
        <pt x="241" y="49" on="0"/>
        <pt x="259" y="79" on="0"/>
        <pt x="259" y="100" on="1"/>
        <pt x="259" y="128" on="0"/>
        <pt x="231" y="159" on="0"/>
        <pt x="189" y="178" on="0"/>
        <pt x="139" y="191" on="0"/>
        <pt x="96" y="211" on="0"/>
        <pt x="67" y="246" on="0"/>
        <pt x="67" y="278" on="1"/>
        <pt x="67" y="303" on="0"/>
        <pt x="86" y="341" on="0"/>
        <pt x="116" y="367" on="0"/>
        <pt x="153" y="380" on="0"/>
        <pt x="171" y="380" on="1"/>
        <pt x="174" y="380" on="0"/>
        <pt x="198" y="379" on="0"/>
        <pt x="229" y="373" on="0"/>
        <pt x="261" y="360" on="0"/>
        <pt x="272" y="348" on="1"/>
        <pt x="272" y="278" on="1"/>
        <pt x="246" y="278" on="1"/>
        <pt x="246" y="334" on="1"/>
        <pt x="238" y="341" on="0"/>
        <pt x="215" y="349" on="0"/>
        <pt x="192" y="352" on="0"/>
        <pt x="174" y="353" on="0"/>
        <pt x="171" y="353" on="1"/>
        <pt x="159" y="353" on="0"/>
        <pt x="132" y="345" on="0"/>
        <pt x="109" y="329" on="0"/>
        <pt x="95" y="301" on="0"/>
        <pt x="95" y="282" on="1"/>
        <pt x="95" y="256" on="0"/>
        <pt x="123" y="228" on="0"/>
        <pt x="166" y="210" on="0"/>
        <pt x="216" y="196" on="0"/>
        <pt x="259" y="173" on="0"/>
        <pt x="287" y="136" on="0"/>
        <pt x="287" y="103" on="1"/>
        <pt x="287" y="85" on="0"/>
        <pt x="274" y="46" on="0"/>
        <pt x="245" y="13" on="0"/>
        <pt x="200" y="-8" on="0"/>
        <pt x="169" y="-8" on="1"/>
        <pt x="161" y="-8" on="0"/>
        <pt x="132" y="-6" on="0"/>
        <pt x="99" y="2" on="0"/>
        <pt x="65" y="15" on="0"/>
        <pt x="53" y="27" on="1"/>
        <pt x="53" y="97" on="1"/>
      </contour>
    </TTGlyph>
    <TTGlyph name="section" xMin="138" yMin="-18" xMax="377" yMax="736">
      <contour>
        <pt x="177" y="321" on="1"/>
        <pt x="189" y="294" on="0"/>
        <pt x="239" y="267" on="0"/>
        <pt x="268" y="269" on="1"/>
        <pt x="287" y="270" on="0"/>
        <pt x="318" y="289" on="0"/>
        <pt x="340" y="317" on="0"/>
        <pt x="350" y="351" on="0"/>
        <pt x="348" y="369" on="1"/>
        <pt x="345" y="389" on="0"/>
        <pt x="326" y="421" on="0"/>
        <pt x="298" y="443" on="0"/>
        <pt x="264" y="453" on="0"/>
        <pt x="247" y="452" on="1"/>
        <pt x="221" y="450" on="0"/>
        <pt x="186" y="423" on="0"/>
        <pt x="168" y="385" on="0"/>
        <pt x="167" y="341" on="0"/>
      </contour>
      <contour>
        <pt x="242" y="153" on="1"/>
        <pt x="213" y="201" on="0"/>
        <pt x="174" y="269" on="0"/>
        <pt x="156" y="300" on="1"/>
        <pt x="144" y="321" on="0"/>
        <pt x="138" y="367" on="0"/>
        <pt x="148" y="411" on="0"/>
        <pt x="174" y="449" on="0"/>
        <pt x="194" y="462" on="1"/>
        <pt x="219" y="476" on="0"/>
        <pt x="274" y="476" on="0"/>
        <pt x="298" y="465" on="1"/>
        <pt x="283" y="490" on="0"/>
        <pt x="255" y="541" on="0"/>
        <pt x="240" y="567" on="1"/>
        <pt x="225" y="593" on="0"/>
        <pt x="211" y="631" on="0"/>
        <pt x="209" y="659" on="0"/>
        <pt x="217" y="680" on="0"/>
        <pt x="224" y="688" on="1"/>
        <pt x="235" y="703" on="0"/>
        <pt x="280" y="727" on="0"/>
        <pt x="297" y="736" on="1"/>
        <pt x="300" y="731" on="0"/>
        <pt x="307" y="719" on="0"/>
        <pt x="311" y="713" on="1"/>
        <pt x="298" y="705" on="0"/>
        <pt x="275" y="693" on="0"/>
        <pt x="263" y="685" on="1"/>
        <pt x="237" y="670" on="0"/>
        <pt x="242" y="619" on="0"/>
        <pt x="271" y="569" on="1"/>
        <pt x="293" y="531" on="0"/>
        <pt x="336" y="456" on="0"/>
        <pt x="358" y="418" on="1"/>
        <pt x="371" y="397" on="0"/>
        <pt x="377" y="352" on="0"/>
        <pt x="366" y="308" on="0"/>
        <pt x="339" y="271" on="0"/>
        <pt x="319" y="258" on="1"/>
        <pt x="295" y="243" on="0"/>
        <pt x="240" y="242" on="0"/>
        <pt x="215" y="254" on="1"/>
        <pt x="275" y="152" on="1"/>
        <pt x="290" y="126" on="0"/>
        <pt x="304" y="88" on="0"/>
        <pt x="306" y="59" on="0"/>
        <pt x="298" y="38" on="0"/>
        <pt x="291" y="30" on="1"/>
        <pt x="279" y="14" on="0"/>
        <pt x="235" y="-9" on="0"/>
        <pt x="218" y="-18" on="1"/>
        <pt x="215" y="-12" on="0"/>
        <pt x="208" y="0" on="0"/>
        <pt x="204" y="6" on="1"/>
        <pt x="217" y="13" on="0"/>
        <pt x="240" y="26" on="0"/>
        <pt x="252" y="33" on="1"/>
        <pt x="278" y="48" on="0"/>
        <pt x="272" y="101" on="0"/>
      </contour>
    </TTGlyph>
    <TTGlyph name="semicolon" xMin="7" yMin="-120" xMax="136" yMax="303">
      <contour>
        <pt x="83" y="276" on="1"/>
        <pt x="83" y="287" on="0"/>
        <pt x="99" y="303" on="0"/>
        <pt x="110" y="303" on="1"/>
        <pt x="120" y="303" on="0"/>
        <pt x="136" y="287" on="0"/>
        <pt x="136" y="276" on="1"/>
        <pt x="136" y="265" on="0"/>
        <pt x="120" y="250" on="0"/>
        <pt x="110" y="250" on="1"/>
        <pt x="99" y="250" on="0"/>
        <pt x="83" y="265" on="0"/>
      </contour>
      <contour>
        <pt x="119" y="86" on="1"/>
        <pt x="97" y="34" on="0"/>
        <pt x="55" y="-68" on="0"/>
        <pt x="33" y="-120" on="1"/>
        <pt x="7" y="-120" on="1"/>
        <pt x="27" y="-68" on="0"/>
        <pt x="64" y="34" on="0"/>
        <pt x="84" y="86" on="1"/>
      </contour>
    </TTGlyph>
    <TTGlyph name="seven" xMin="14" yMin="0" xMax="417" yMax="650">
      <contour>
        <pt x="417" y="650" on="1"/>
        <pt x="125" y="0" on="1"/>
        <pt x="92" y="0" on="1"/>
        <pt x="373" y="622" on="1"/>
        <pt x="41" y="622" on="1"/>
        <pt x="41" y="559" on="1"/>
        <pt x="14" y="559" on="1"/>
        <pt x="14" y="650" on="1"/>
      </contour>
    </TTGlyph>
    <TTGlyph name="six" xMin="50" yMin="-8" xMax="463" yMax="634">
      <contour>
        <pt x="77" y="196" on="1"/>
        <pt x="77" y="159" on="0"/>
        <pt x="105" y="95" on="0"/>
        <pt x="153" y="47" on="0"/>
        <pt x="218" y="19" on="0"/>
        <pt x="255" y="19" on="1"/>
        <pt x="292" y="19" on="0"/>
        <pt x="358" y="47" on="0"/>
        <pt x="407" y="95" on="0"/>
        <pt x="435" y="159" on="0"/>
        <pt x="435" y="196" on="1"/>
        <pt x="435" y="233" on="0"/>
        <pt x="407" y="297" on="0"/>
        <pt x="358" y="345" on="0"/>
        <pt x="292" y="373" on="0"/>
        <pt x="255" y="373" on="1"/>
        <pt x="218" y="373" on="0"/>
        <pt x="153" y="345" on="0"/>
        <pt x="105" y="297" on="0"/>
        <pt x="77" y="233" on="0"/>
      </contour>
      <contour>
        <pt x="50" y="194" on="1"/>
        <pt x="50" y="266" on="0"/>
        <pt x="112" y="391" on="0"/>
        <pt x="208" y="500" on="0"/>
        <pt x="325" y="593" on="0"/>
        <pt x="381" y="634" on="1"/>
        <pt x="386" y="628" on="0"/>
        <pt x="395" y="616" on="0"/>
        <pt x="400" y="611" on="1"/>
        <pt x="340" y="571" on="0"/>
        <pt x="247" y="494" on="0"/>
        <pt x="179" y="424" on="0"/>
        <pt x="134" y="361" on="0"/>
        <pt x="122" y="336" on="1"/>
        <pt x="145" y="365" on="0"/>
        <pt x="214" y="401" on="0"/>
        <pt x="256" y="401" on="1"/>
        <pt x="299" y="401" on="0"/>
        <pt x="374" y="369" on="0"/>
        <pt x="430" y="313" on="0"/>
        <pt x="463" y="238" on="0"/>
        <pt x="463" y="196" on="1"/>
        <pt x="463" y="154" on="0"/>
        <pt x="430" y="80" on="0"/>
        <pt x="374" y="24" on="0"/>
        <pt x="299" y="-8" on="0"/>
        <pt x="256" y="-8" on="1"/>
        <pt x="214" y="-8" on="0"/>
        <pt x="139" y="24" on="0"/>
        <pt x="83" y="78" on="0"/>
        <pt x="50" y="152" on="0"/>
      </contour>
    </TTGlyph>
    <TTGlyph name="slash" xMin="17" yMin="-19" xMax="323" yMax="736">
      <contour>
        <pt x="17" y="-19" on="1"/>
        <pt x="87" y="171" on="0"/>
        <pt x="225" y="546" on="0"/>
        <pt x="295" y="736" on="1"/>
        <pt x="323" y="736" on="1"/>
        <pt x="253" y="546" on="0"/>
        <pt x="115" y="171" on="0"/>
        <pt x="45" y="-19" on="1"/>
      </contour>
    </TTGlyph>
    <TTGlyph name="sterling" xMin="27" yMin="0" xMax="498" yMax="634">
      <contour>
        <pt x="498" y="0" on="1"/>
        <pt x="27" y="0" on="1"/>
        <pt x="27" y="27" on="1"/>
        <pt x="71" y="27" on="1"/>
        <pt x="88" y="27" on="0"/>
        <pt x="109" y="40" on="0"/>
        <pt x="120" y="72" on="0"/>
        <pt x="123" y="126" on="0"/>
        <pt x="123" y="167" on="1"/>
        <pt x="123" y="303" on="1"/>
        <pt x="58" y="303" on="1"/>
        <pt x="58" y="331" on="1"/>
        <pt x="123" y="331" on="1"/>
        <pt x="123" y="500" on="1"/>
        <pt x="123" y="570" on="0"/>
        <pt x="216" y="634" on="0"/>
        <pt x="294" y="634" on="1"/>
        <pt x="361" y="634" on="0"/>
        <pt x="432" y="583" on="0"/>
        <pt x="452" y="543" on="1"/>
        <pt x="432" y="531" on="1"/>
        <pt x="421" y="551" on="0"/>
        <pt x="397" y="580" on="0"/>
        <pt x="365" y="598" on="0"/>
        <pt x="323" y="607" on="0"/>
        <pt x="294" y="607" on="1"/>
        <pt x="253" y="607" on="0"/>
        <pt x="198" y="590" on="0"/>
        <pt x="165" y="561" on="0"/>
        <pt x="151" y="522" on="0"/>
        <pt x="151" y="499" on="1"/>
        <pt x="151" y="331" on="1"/>
        <pt x="277" y="331" on="1"/>
        <pt x="277" y="303" on="1"/>
        <pt x="151" y="303" on="1"/>
        <pt x="151" y="120" on="1"/>
        <pt x="151" y="91" on="0"/>
        <pt x="142" y="41" on="0"/>
        <pt x="128" y="27" on="1"/>
        <pt x="470" y="27" on="1"/>
        <pt x="470" y="134" on="1"/>
        <pt x="498" y="134" on="1"/>
      </contour>
    </TTGlyph>
    <TTGlyph name="t" xMin="35" yMin="0" xMax="272" yMax="619">
      <contour>
        <pt x="123" y="619" on="1"/>
        <pt x="151" y="619" on="1"/>
        <pt x="151" y="375" on="1"/>
        <pt x="272" y="375" on="1"/>
        <pt x="272" y="348" on="1"/>
        <pt x="151" y="348" on="1"/>
        <pt x="151" y="27" on="1"/>
        <pt x="235" y="27" on="1"/>
        <pt x="235" y="0" on="1"/>
        <pt x="123" y="0" on="1"/>
        <pt x="123" y="348" on="1"/>
        <pt x="35" y="348" on="1"/>
        <pt x="35" y="375" on="1"/>
        <pt x="123" y="375" on="1"/>
      </contour>
    </TTGlyph>
    <TTGlyph name="thorn" xMin="16" yMin="-250" xMax="484" yMax="750">
      <contour>
        <pt x="16" y="-223" on="1"/>
        <pt x="93" y="-223" on="1"/>
        <pt x="93" y="723" on="1"/>
        <pt x="16" y="723" on="1"/>
        <pt x="16" y="750" on="1"/>
        <pt x="200" y="750" on="1"/>
        <pt x="200" y="723" on="1"/>
        <pt x="121" y="723" on="1"/>
        <pt x="121" y="329" on="1"/>
        <pt x="120" y="315" on="0"/>
        <pt x="119" y="285" on="0"/>
        <pt x="118" y="271" on="1"/>
        <pt x="127" y="294" on="0"/>
        <pt x="160" y="334" on="0"/>
        <pt x="205" y="364" on="0"/>
        <pt x="259" y="381" on="0"/>
        <pt x="289" y="381" on="1"/>
        <pt x="330" y="381" on="0"/>
        <pt x="401" y="350" on="0"/>
        <pt x="454" y="298" on="0"/>
        <pt x="484" y="227" on="0"/>
        <pt x="484" y="187" on="1"/>
        <pt x="484" y="146" on="0"/>
        <pt x="454" y="75" on="0"/>
        <pt x="401" y="23" on="0"/>
        <pt x="330" y="-8" on="0"/>
        <pt x="289" y="-8" on="1"/>
        <pt x="228" y="-8" on="0"/>
        <pt x="137" y="55" on="0"/>
        <pt x="119" y="100" on="1"/>
        <pt x="120" y="88" on="0"/>
        <pt x="121" y="64" on="0"/>
        <pt x="122" y="53" on="1"/>
        <pt x="122" y="-223" on="1"/>
        <pt x="204" y="-223" on="1"/>
        <pt x="204" y="-250" on="1"/>
        <pt x="16" y="-250" on="1"/>
      </contour>
      <contour>
        <pt x="456" y="187" on="1"/>
        <pt x="456" y="222" on="0"/>
        <pt x="430" y="283" on="0"/>
        <pt x="385" y="328" on="0"/>
        <pt x="324" y="354" on="0"/>
        <pt x="289" y="354" on="1"/>
        <pt x="254" y="354" on="0"/>
        <pt x="192" y="328" on="0"/>
        <pt x="147" y="283" on="0"/>
        <pt x="121" y="222" on="0"/>
        <pt x="121" y="187" on="1"/>
        <pt x="121" y="152" on="0"/>
        <pt x="147" y="91" on="0"/>
        <pt x="192" y="45" on="0"/>
        <pt x="254" y="19" on="0"/>
        <pt x="289" y="19" on="1"/>
        <pt x="324" y="19" on="0"/>
        <pt x="385" y="45" on="0"/>
        <pt x="430" y="91" on="0"/>
        <pt x="456" y="152" on="0"/>
      </contour>
    </TTGlyph>
    <TTGlyph name="three" xMin="86" yMin="-8" xMax="444" yMax="650">
      <contour>
        <pt x="173" y="354" on="1"/>
        <pt x="371" y="622" on="1"/>
        <pt x="130" y="622" on="1"/>
        <pt x="130" y="559" on="1"/>
        <pt x="103" y="559" on="1"/>
        <pt x="103" y="650" on="1"/>
        <pt x="424" y="650" on="1"/>
        <pt x="236" y="401" on="1"/>
        <pt x="279" y="400" on="0"/>
        <pt x="354" y="369" on="0"/>
        <pt x="411" y="315" on="0"/>
        <pt x="444" y="241" on="0"/>
        <pt x="444" y="198" on="1"/>
        <pt x="444" y="155" on="0"/>
        <pt x="411" y="80" on="0"/>
        <pt x="355" y="24" on="0"/>
        <pt x="280" y="-8" on="0"/>
        <pt x="237" y="-8" on="1"/>
        <pt x="192" y="-8" on="0"/>
        <pt x="115" y="28" on="0"/>
        <pt x="86" y="59" on="1"/>
        <pt x="106" y="81" on="1"/>
        <pt x="129" y="54" on="0"/>
        <pt x="196" y="19" on="0"/>
        <pt x="235" y="19" on="1"/>
        <pt x="272" y="19" on="0"/>
        <pt x="338" y="48" on="0"/>
        <pt x="388" y="97" on="0"/>
        <pt x="417" y="162" on="0"/>
        <pt x="417" y="198" on="1"/>
        <pt x="417" y="235" on="0"/>
        <pt x="388" y="300" on="0"/>
        <pt x="338" y="348" on="0"/>
        <pt x="272" y="376" on="0"/>
        <pt x="235" y="376" on="1"/>
        <pt x="218" y="376" on="0"/>
        <pt x="187" y="364" on="0"/>
      </contour>
    </TTGlyph>
    <TTGlyph name="threequarters" xMin="150" yMin="-19" xMax="1044" yMax="736">
      <contour>
        <pt x="217" y="479" on="1"/>
        <pt x="370" y="686" on="1"/>
        <pt x="184" y="686" on="1"/>
        <pt x="184" y="638" on="1"/>
        <pt x="163" y="638" on="1"/>
        <pt x="163" y="708" on="1"/>
        <pt x="411" y="708" on="1"/>
        <pt x="266" y="516" on="1"/>
        <pt x="299" y="515" on="0"/>
        <pt x="357" y="491" on="0"/>
        <pt x="401" y="449" on="0"/>
        <pt x="426" y="392" on="0"/>
        <pt x="426" y="359" on="1"/>
        <pt x="426" y="326" on="0"/>
        <pt x="401" y="268" on="0"/>
        <pt x="358" y="225" on="0"/>
        <pt x="300" y="200" on="0"/>
        <pt x="267" y="200" on="1"/>
        <pt x="232" y="200" on="0"/>
        <pt x="173" y="228" on="0"/>
        <pt x="150" y="252" on="1"/>
        <pt x="166" y="269" on="1"/>
        <pt x="183" y="248" on="0"/>
        <pt x="235" y="221" on="0"/>
        <pt x="265" y="221" on="1"/>
        <pt x="294" y="221" on="0"/>
        <pt x="345" y="243" on="0"/>
        <pt x="383" y="281" on="0"/>
        <pt x="406" y="331" on="0"/>
        <pt x="406" y="359" on="1"/>
        <pt x="406" y="387" on="0"/>
        <pt x="383" y="438" on="0"/>
        <pt x="345" y="475" on="0"/>
        <pt x="294" y="496" on="0"/>
        <pt x="265" y="496" on="1"/>
        <pt x="252" y="496" on="0"/>
        <pt x="228" y="487" on="0"/>
      </contour>
      <contour>
        <pt x="457" y="-19" on="1"/>
        <pt x="527" y="171" on="0"/>
        <pt x="665" y="546" on="0"/>
        <pt x="735" y="736" on="1"/>
        <pt x="763" y="736" on="1"/>
        <pt x="693" y="546" on="0"/>
        <pt x="555" y="171" on="0"/>
        <pt x="485" y="-19" on="1"/>
      </contour>
      <contour>
        <pt x="894" y="20" on="1"/>
        <pt x="951" y="20" on="1"/>
        <pt x="951" y="136" on="1"/>
        <pt x="700" y="136" on="1"/>
        <pt x="972" y="490" on="1"/>
        <pt x="972" y="156" on="1"/>
        <pt x="1044" y="156" on="1"/>
        <pt x="1044" y="136" on="1"/>
        <pt x="972" y="136" on="1"/>
        <pt x="972" y="20" on="1"/>
        <pt x="1034" y="20" on="1"/>
        <pt x="1034" y="0" on="1"/>
        <pt x="894" y="0" on="1"/>
      </contour>
      <contour>
        <pt x="951" y="429" on="1"/>
        <pt x="743" y="156" on="1"/>
        <pt x="951" y="156" on="1"/>
      </contour>
    </TTGlyph>
    <TTGlyph name="threesuperior" xMin="92" yMin="376" xMax="269" yMax="700">
      <contour>
        <pt x="135" y="554" on="1"/>
        <pt x="233" y="686" on="1"/>
        <pt x="114" y="686" on="1"/>
        <pt x="114" y="655" on="1"/>
        <pt x="101" y="655" on="1"/>
        <pt x="101" y="700" on="1"/>
        <pt x="259" y="700" on="1"/>
        <pt x="166" y="577" on="1"/>
        <pt x="188" y="577" on="0"/>
        <pt x="225" y="562" on="0"/>
        <pt x="253" y="535" on="0"/>
        <pt x="269" y="499" on="0"/>
        <pt x="269" y="478" on="1"/>
        <pt x="269" y="456" on="0"/>
        <pt x="253" y="419" on="0"/>
        <pt x="225" y="392" on="0"/>
        <pt x="188" y="376" on="0"/>
        <pt x="167" y="376" on="1"/>
        <pt x="145" y="376" on="0"/>
        <pt x="107" y="394" on="0"/>
        <pt x="92" y="409" on="1"/>
        <pt x="102" y="420" on="1"/>
        <pt x="114" y="407" on="0"/>
        <pt x="147" y="389" on="0"/>
        <pt x="166" y="389" on="1"/>
        <pt x="184" y="389" on="0"/>
        <pt x="217" y="404" on="0"/>
        <pt x="241" y="428" on="0"/>
        <pt x="256" y="460" on="0"/>
        <pt x="256" y="478" on="1"/>
        <pt x="256" y="496" on="0"/>
        <pt x="241" y="528" on="0"/>
        <pt x="217" y="551" on="0"/>
        <pt x="184" y="565" on="0"/>
        <pt x="166" y="565" on="1"/>
        <pt x="157" y="565" on="0"/>
        <pt x="142" y="559" on="0"/>
      </contour>
    </TTGlyph>
</ttFont>
